<svg width="75" height="75" viewBox="0 0 75 75" fill="none" xmlns="http://www.w3.org/2000/svg">
<path d="M33.7399 36.9141C32.8816 37.7725 31.4912 37.773 30.6325 36.9141C30.0606 36.3422 29.1329 36.3422 28.5609 36.9141C27.9889 37.4861 27.9887 38.4136 28.5609 38.9858C30.5647 40.9894 33.8077 40.9897 35.8116 38.9858C36.3836 38.4138 36.3836 37.4862 35.8116 36.9141C35.2396 36.3419 34.312 36.3422 33.7399 36.9141Z" fill="white"/>
<path d="M33.7405 29.9561C33.1685 30.5281 33.1685 31.4556 33.7405 32.0278C34.3126 32.5998 35.2401 32.5998 35.8123 32.0278C36.2661 31.5738 37.0008 31.5738 37.4547 32.0278C38.0267 32.5998 38.9541 32.5998 39.5264 32.0278C40.0984 31.4558 40.0984 30.5282 39.5264 29.9561C37.931 28.361 35.3358 28.3612 33.7405 29.9561Z" fill="white"/>
<path d="M30.7373 32.0278C31.3093 31.4558 31.3093 30.5282 30.7373 29.9561C29.1421 28.361 26.5467 28.3612 24.9515 29.9561C24.3795 30.5281 24.3795 31.4556 24.9515 32.0278C25.5235 32.5998 26.451 32.5998 27.0232 32.0278C27.477 31.5738 28.2118 31.5738 28.6656 32.0278C29.2376 32.5997 30.1653 32.5998 30.7373 32.0278Z" fill="white"/>
<path d="M13.3301 10.4004C14.1391 10.4004 14.7949 9.74456 14.7949 8.93555C14.7949 8.12654 14.1391 7.4707 13.3301 7.4707C12.5211 7.4707 11.8652 8.12654 11.8652 8.93555C11.8652 9.74456 12.5211 10.4004 13.3301 10.4004Z" fill="white"/>
<path d="M49.9512 8.93555C50.7602 8.93555 51.416 8.27971 51.416 7.4707C51.416 6.66169 50.7602 6.00586 49.9512 6.00586C49.1422 6.00586 48.4863 6.66169 48.4863 7.4707C48.4863 8.27971 49.1422 8.93555 49.9512 8.93555Z" fill="white"/>
<path d="M61.6699 30.9082C62.4789 30.9082 63.1348 30.2524 63.1348 29.4434C63.1348 28.6343 62.4789 27.9785 61.6699 27.9785C60.8609 27.9785 60.2051 28.6343 60.2051 29.4434C60.2051 30.2524 60.8609 30.9082 61.6699 30.9082Z" fill="white"/>
<path d="M7.4707 42.627C8.27971 42.627 8.93555 41.9711 8.93555 41.1621C8.93555 40.3531 8.27971 39.6973 7.4707 39.6973C6.66169 39.6973 6.00586 40.3531 6.00586 41.1621C6.00586 41.9711 6.66169 42.627 7.4707 42.627Z" fill="white"/>
<path d="M22.2179 19.87C22.6669 19.87 23.11 19.6644 23.3973 19.2754C25.4697 16.4698 28.7862 14.7949 32.2688 14.7949C33.0779 14.7949 33.7337 14.1391 33.7337 13.3301C33.7337 12.521 33.0779 11.8652 32.2688 11.8652C27.8605 11.8652 23.6632 13.9847 21.0409 17.5348C20.3204 18.5102 21.0349 19.87 22.2179 19.87Z" fill="white"/>
<path d="M7.4707 33.8379C9.89385 33.8379 11.8652 31.8665 11.8652 29.4434C11.8652 27.0202 9.89385 25.0488 7.4707 25.0488C5.04756 25.0488 3.07617 27.0202 3.07617 29.4434C3.07617 31.8665 5.04756 33.8379 7.4707 33.8379ZM7.4707 27.9785C8.27842 27.9785 8.93555 28.6356 8.93555 29.4434C8.93555 30.2511 8.27842 30.9082 7.4707 30.9082C6.66299 30.9082 6.00586 30.2511 6.00586 29.4434C6.00586 28.6356 6.66299 27.9785 7.4707 27.9785Z" fill="white"/>
<path d="M60.9375 20.6543C63.7645 20.6543 66.0645 18.3543 66.0645 15.5273C66.0645 12.7003 63.7645 10.4004 60.9375 10.4004C58.1105 10.4004 55.8105 12.7003 55.8105 15.5273C55.8105 18.3543 58.1105 20.6543 60.9375 20.6543ZM60.9375 13.3301C62.1491 13.3301 63.1348 14.3158 63.1348 15.5273C63.1348 16.7389 62.1491 17.7246 60.9375 17.7246C59.7259 17.7246 58.7402 16.7389 58.7402 15.5273C58.7402 14.3158 59.7259 13.3301 60.9375 13.3301Z" fill="white"/>
<path d="M70.4592 41.1621H52.8811C52.0722 41.1621 51.4163 41.8181 51.4163 42.627V47.0495C50.8255 46.2601 50.5792 45.4758 50.5792 44.0918V25.1008C50.5792 15.0044 42.3651 6.79028 32.2687 6.79028C22.1723 6.79028 13.9582 15.0044 13.9582 25.1008C13.9582 27.9995 13.9582 41.8018 13.9582 44.0918C13.9582 46.7552 13.0699 47.3039 10.7251 49.6478C9.97422 50.3987 10.2484 51.6765 11.2412 52.0532L16.1365 53.9111L11.3239 55.9736C6.69502 57.9574 3.7041 62.4935 3.7041 67.5294C3.7041 68.3383 4.35991 68.9943 5.16895 68.9943C7.1771 68.9943 65.4323 68.9943 70.4591 68.9943C71.268 68.9943 71.9239 68.3383 71.9239 67.5294V42.627C71.9241 41.8181 71.2681 41.1621 70.4592 41.1621ZM31.5458 66.0645L29.1043 58.7402H34.8089L32.3644 66.0645H31.5458ZM24.5532 59.9936L20.4773 57.9557L21.2475 54.8745C22.2525 54.3712 23.218 53.764 24.1259 53.07L28.4575 66.0646H22.7994V64.4742L24.9338 62.3398C25.64 61.6334 25.4474 60.4405 24.5532 59.9936ZM31.7906 45.4513C22.5686 40.8356 22.3809 33.9486 22.2297 28.3897C22.2114 27.7126 22.1934 27.0554 22.1594 26.4249C23.1418 26.2239 24.0222 25.6916 24.6571 24.9296C25.715 25.1814 26.8797 25.0409 27.8973 24.4436C30.7287 27.2038 35.2728 27.2042 38.1045 24.4436C38.6693 24.775 39.3061 24.9798 39.9691 25.0342C40.5779 25.7194 41.3872 26.1989 42.2787 26.4032C41.7442 32.2891 42.5228 39.1939 31.7906 45.4513ZM31.2273 48.4327C31.6533 48.6312 32.1481 48.6136 32.5589 48.3853C33.3826 47.9269 34.1485 47.462 34.8644 46.9919C35.5189 47.8635 36.4836 49.0935 37.6075 50.3552L35.7867 55.8105H28.1277L26.4979 50.9213C27.514 49.8349 28.4053 48.6318 29.1332 47.3499C29.7865 47.7239 30.4831 48.0855 31.2273 48.4327ZM39.9074 52.7177C40.8083 53.5504 41.7408 54.2927 42.6503 54.8272L43.4324 57.9555L39.3565 59.9934C38.4634 60.4399 38.2688 61.6323 38.9756 62.3395L41.1101 64.4739V66.0645H35.4528L39.9074 52.7177ZM43.6107 62.8314L42.4844 61.7051L45.7934 60.0505C46.4075 59.7435 46.726 59.0512 46.5594 58.3852L46.0536 56.3616L51.4163 58.6597V66.0645H44.0397V63.8672C44.0397 63.4787 43.8853 63.1062 43.6107 62.8314ZM51.4163 52.7038V55.4723L47.915 53.9717L51.4163 52.7038ZM16.8878 44.0918C16.8878 41.8018 16.8878 28.0003 16.8878 25.1008C16.8878 16.6198 23.7877 9.71997 32.2687 9.71997C40.7498 9.71997 47.6496 16.6198 47.6496 25.1008V44.0918C47.6496 47.0864 48.6634 48.5209 50.1601 50.0429L44.0523 52.2548C41.7667 50.886 38.8727 47.4315 37.2377 45.2701C46.0935 38.1289 44.5491 30.156 45.3769 25.2089C45.5491 24.1815 44.6184 23.2992 43.5943 23.5418C42.9259 23.7004 42.2872 23.3811 41.9796 22.8365C41.6862 22.3172 41.1064 22.0267 40.5159 22.1042C39.9401 22.1785 39.4353 21.9272 39.1313 21.4988C38.5382 20.6626 37.2692 20.6732 36.7034 21.5558C34.9696 24.2606 31.0318 24.2583 29.2996 21.5558C28.7402 20.6829 27.4722 20.6524 26.8718 21.4986C26.3881 22.1802 25.4917 22.2946 24.8626 21.8717C24.0676 21.3374 22.98 21.6981 22.663 22.6028C22.4233 23.2863 21.6958 23.7327 20.9211 23.5358C19.916 23.2811 18.9697 24.1241 19.1088 25.1522C19.7512 29.8947 17.9112 39.1381 26.6783 45.7396C25.1616 48.4975 22.7487 50.8395 19.9773 52.235L14.4035 50.1198C15.8888 48.5752 16.8878 47.0915 16.8878 44.0918ZM12.4781 58.6663L17.856 56.3615L17.3501 58.3849C17.1836 59.0511 17.5022 59.7434 18.1161 60.0504L21.4252 61.7049L20.2989 62.8312C20.0242 63.1061 19.8698 63.4786 19.8698 63.867V66.0643H6.74497C7.24346 62.8062 9.38359 59.9925 12.4781 58.6663ZM68.9944 66.0645H54.3459C54.3459 63.9179 54.3459 46.4726 54.3459 44.0918H68.9944V66.0645Z" fill="white"/>
<path d="M57.2754 49.9512H66.0645C66.8733 49.9512 67.5293 49.2952 67.5293 48.4863C67.5293 47.6774 66.8733 47.0215 66.0645 47.0215H57.2754C56.4665 47.0215 55.8105 47.6774 55.8105 48.4863C55.8105 49.2952 56.4665 49.9512 57.2754 49.9512Z" fill="white"/>
<path d="M57.2754 54.3457H66.0645C66.8733 54.3457 67.5293 53.6897 67.5293 52.8809C67.5293 52.072 66.8733 51.416 66.0645 51.416H57.2754C56.4665 51.416 55.8105 52.072 55.8105 52.8809C55.8105 53.6897 56.4665 54.3457 57.2754 54.3457Z" fill="white"/>
<path d="M57.2754 58.7402H66.0645C66.8733 58.7402 67.5293 58.0843 67.5293 57.2754C67.5293 56.4665 66.8733 55.8105 66.0645 55.8105H57.2754C56.4665 55.8105 55.8105 56.4665 55.8105 57.2754C55.8105 58.0843 56.4665 58.7402 57.2754 58.7402Z" fill="white"/>
<path d="M57.2754 63.1348H66.0645C66.8733 63.1348 67.5293 62.4788 67.5293 61.6699C67.5293 60.861 66.8733 60.2051 66.0645 60.2051H57.2754C56.4665 60.2051 55.8105 60.861 55.8105 61.6699C55.8105 62.4788 56.4665 63.1348 57.2754 63.1348Z" fill="white"/>
</svg>
