<svg width="76" height="76" viewBox="0 0 76 76" fill="none" xmlns="http://www.w3.org/2000/svg">
<path d="M70.2109 2.375H58.0391C56.1564 2.375 54.625 3.90658 54.625 5.78906V15.5859C54.625 17.4684 56.1564 19 58.0391 19H70.2109C72.0936 19 73.625 17.4684 73.625 15.5859V5.78906C73.625 3.90658 72.0936 2.375 70.2109 2.375ZM61.7837 16.625C61.7837 15.3155 62.8492 14.25 64.1587 14.25C65.4682 14.25 66.5337 15.3155 66.5337 16.625H61.7837ZM62.9712 9.5C62.9712 8.84524 63.5039 8.3125 64.1587 8.3125C64.8135 8.3125 65.3462 8.84524 65.3462 9.5C65.3462 10.1548 64.8135 10.6875 64.1587 10.6875C63.5039 10.6875 62.9712 10.1548 62.9712 9.5ZM71.25 15.5859C71.25 16.1589 70.7838 16.625 70.2109 16.625H68.9087C68.9087 14.7626 67.8306 13.1479 66.2664 12.3699C67.1479 11.7208 67.7212 10.6762 67.7212 9.5C67.7212 7.53558 66.123 5.9375 64.1587 5.9375C62.1944 5.9375 60.5962 7.53558 60.5962 9.5C60.5962 10.6762 61.1695 11.7208 62.051 12.3699C60.4867 13.1479 59.4087 14.7626 59.4087 16.625H58.0391C57.4662 16.625 57 16.1589 57 15.5859V5.78906C57 5.21609 57.4662 4.75 58.0391 4.75H70.2109C70.7838 4.75 71.25 5.21609 71.25 5.78906V15.5859Z" fill="white"/>
<path d="M46.4609 30.875H27.2453L27.1219 30.7259L42.1237 26.7089C42.4702 26.6161 42.7561 26.3718 42.9017 26.0441C43.0473 25.7163 43.0371 25.3405 42.8738 25.021L35.3044 10.2192C35.1409 9.89988 34.8423 9.67158 34.4912 9.59766C34.14 9.52388 33.7746 9.6128 33.4969 9.83931L20.4148 20.5011L16.2974 22.6067C13.3825 24.0973 12.224 27.6816 13.7146 30.5965C13.763 30.6911 13.8139 30.7837 13.8667 30.8748H5.78906C3.90643 30.8748 2.375 32.4064 2.375 34.2889V60.7108C2.375 62.5932 3.90643 64.1248 5.78906 64.1248H21.836L20.819 67.6873H20.1875C17.5683 67.6873 15.4375 69.8181 15.4375 72.4373C15.4375 73.0931 15.9692 73.6248 16.625 73.6248H35.625C36.2808 73.6248 36.8125 73.0931 36.8125 72.4373C36.8125 69.8181 34.6817 67.6873 32.0625 67.6873H31.4309L30.4138 64.1248H46.4609C48.3436 64.1248 49.875 62.5932 49.875 60.7108V34.289C49.875 32.4065 48.3436 30.875 46.4609 30.875ZM28.5263 36.1476C28.7336 36.3982 28.7816 36.6609 28.7853 36.8393C28.7932 37.1845 28.6355 37.6382 28.1706 37.876C27.694 38.1193 27.1235 38.0015 26.7827 37.59L22.7083 32.6662L24.7715 31.6111L28.5263 36.1476ZM34.4375 41.5625V52.25H9.5V41.5625H34.4375ZM30.2873 39.1875C30.5936 38.8413 30.8284 38.4389 30.9764 38H34.4375V39.1875H30.2873ZM9.5 39.1875V38H24.0395L24.9537 39.1046C24.9771 39.133 25.0019 39.1599 25.0261 39.1875H9.5ZM33.8587 12.6086L40.0906 24.7948L26.0131 28.5642L22.5619 21.8155L33.8587 12.6086ZM17.3789 24.7213L20.5507 23.0994L23.7948 29.4431L20.3909 31.1726C20.39 31.1729 20.3892 31.1733 20.3885 31.1736C19.6003 31.5084 18.7282 31.5492 17.9051 31.283C16.9997 30.9903 16.2625 30.3626 15.8294 29.5153C14.9349 27.7662 15.63 25.6157 17.3789 24.7213ZM32.0625 70.0625C32.9398 70.0625 33.7075 70.5406 34.1188 71.25H18.1312C18.5425 70.5406 19.3101 70.0625 20.1875 70.0625H32.0625ZM23.289 67.6875L24.306 64.125H27.9441L28.9612 67.6875H23.289ZM47.5 60.7109C47.5 61.2839 47.0338 61.75 46.4609 61.75H5.78906C5.21624 61.75 4.75 61.2839 4.75 60.7109V59.375H47.5V60.7109ZM47.5 57H4.75V34.289C4.75 33.7161 5.21624 33.25 5.78906 33.25H16.4412C16.6774 33.3622 16.9216 33.461 17.1745 33.5428C17.776 33.7373 18.393 33.8336 19.0074 33.8336C19.4909 33.8336 19.9723 33.7725 20.4428 33.6537L22.0741 35.625H8.3125C7.6567 35.625 7.125 36.1567 7.125 36.8125V53.4375C7.125 54.0933 7.6567 54.625 8.3125 54.625H35.625C36.2808 54.625 36.8125 54.0933 36.8125 53.4375V36.8125C36.8125 36.1567 36.2808 35.625 35.625 35.625H30.9348C30.7999 35.2696 30.6062 34.9356 30.3561 34.6334L29.211 33.25H46.4609C47.0338 33.25 47.5 33.7161 47.5 34.289V57Z" fill="white"/>
<path d="M14.1816 45.125H21.3067C21.9625 45.125 22.4942 44.5933 22.4942 43.9375C22.4942 43.2817 21.9625 42.75 21.3067 42.75H14.1816C13.5258 42.75 12.9941 43.2817 12.9941 43.9375C12.9941 44.5933 13.5258 45.125 14.1816 45.125Z" fill="white"/>
<path d="M24.8692 46.3125H14.1816C13.5258 46.3125 12.9941 46.8442 12.9941 47.5C12.9941 48.1558 13.5258 48.6875 14.1816 48.6875H24.8692C25.525 48.6875 26.0567 48.1558 26.0567 47.5C26.0567 46.8442 25.525 46.3125 24.8692 46.3125Z" fill="white"/>
<path d="M41.2028 16.5389C41.4129 16.9498 41.8293 17.1859 42.2611 17.1859C42.4431 17.1859 42.6278 17.1441 42.8008 17.0555L47.03 14.8927C47.6139 14.5941 47.8452 13.8787 47.5465 13.2948C47.2477 12.7108 46.5326 12.4794 45.9484 12.7782L41.7193 14.941C41.1355 15.2396 40.9041 15.9549 41.2028 16.5389Z" fill="white"/>
<path d="M39.518 12.8055C39.7014 12.9083 39.9003 12.9569 40.0967 12.9569C40.5128 12.9569 40.9164 12.7379 41.134 12.3489L43.2246 8.61233C43.5448 8.03995 43.3404 7.31647 42.7681 6.99629C42.1961 6.67626 41.4724 6.88036 41.152 7.45288L39.0615 11.1895C38.7413 11.7617 38.9457 12.4854 39.518 12.8055Z" fill="white"/>
<path d="M43.2443 20.0907C43.1689 20.7422 43.6359 21.3315 44.2874 21.4069L48.5406 21.8994C48.5869 21.9048 48.633 21.9075 48.6786 21.9075C49.2734 21.9075 49.7867 21.4615 49.8569 20.8564C49.9323 20.2049 49.4653 19.6156 48.8138 19.5402L44.5607 19.0477C43.9092 18.9723 43.3199 19.4394 43.2443 20.0907Z" fill="white"/>
<path d="M17.9609 2.375H5.78906C3.90643 2.375 2.375 3.90658 2.375 5.78906V15.5859C2.375 17.4684 3.90643 19 5.78906 19H17.9609C19.8436 19 21.375 17.4684 21.375 15.5859V5.78906C21.375 3.90658 19.8436 2.375 17.9609 2.375ZM9.5 16.625C9.5 15.3155 10.5655 14.25 11.875 14.25C13.1845 14.25 14.25 15.3155 14.25 16.625H9.5ZM10.6875 9.5C10.6875 8.84524 11.2202 8.3125 11.875 8.3125C12.5298 8.3125 13.0625 8.84524 13.0625 9.5C13.0625 10.1548 12.5298 10.6875 11.875 10.6875C11.2202 10.6875 10.6875 10.1548 10.6875 9.5ZM19 15.5859C19 16.1589 18.5338 16.625 17.9609 16.625H16.625C16.625 14.7626 15.547 13.1479 13.9827 12.3699C14.8641 11.7208 15.4375 10.6762 15.4375 9.5C15.4375 7.53558 13.8393 5.9375 11.875 5.9375C9.91073 5.9375 8.3125 7.53558 8.3125 9.5C8.3125 10.6762 8.88591 11.7208 9.76734 12.3699C8.20295 13.1479 7.125 14.7626 7.125 16.625H5.78906C5.21624 16.625 4.75 16.1589 4.75 15.5859V5.78906C4.75 5.21609 5.21624 4.75 5.78906 4.75H17.9609C18.5338 4.75 19 5.21609 19 5.78906V15.5859Z" fill="white"/>
<path d="M70.2109 29.6875H58.0391C56.1564 29.6875 54.625 31.2191 54.625 33.1016V42.8984C54.625 44.7809 56.1564 46.3125 58.0391 46.3125H70.2109C72.0936 46.3125 73.625 44.7809 73.625 42.8984V33.1016C73.625 31.2191 72.0936 29.6875 70.2109 29.6875ZM61.7837 43.9375C61.7837 42.628 62.8492 41.5625 64.1587 41.5625C65.4682 41.5625 66.5337 42.628 66.5337 43.9375H61.7837ZM62.9712 36.8125C62.9712 36.1577 63.5039 35.625 64.1587 35.625C64.8135 35.625 65.3462 36.1577 65.3462 36.8125C65.3462 37.4673 64.8135 38 64.1587 38C63.5039 38 62.9712 37.4673 62.9712 36.8125ZM71.25 42.8984C71.25 43.4714 70.7838 43.9375 70.2109 43.9375H68.9087C68.9087 42.0751 67.8306 40.4604 66.2664 39.6824C67.1479 39.0333 67.7212 37.9887 67.7212 36.8125C67.7212 34.8481 66.123 33.25 64.1587 33.25C62.1944 33.25 60.5962 34.8481 60.5962 36.8125C60.5962 37.9887 61.1695 39.0333 62.051 39.6824C60.4867 40.4604 59.4087 42.0751 59.4087 43.9375H58.0391C57.4662 43.9375 57 43.4714 57 42.8984V33.1016C57 32.5286 57.4662 32.0625 58.0391 32.0625H70.2109C70.7838 32.0625 71.25 32.5286 71.25 33.1016V42.8984Z" fill="white"/>
<path d="M70.2109 57H58.0391C56.1564 57 54.625 58.5316 54.625 60.4141V70.2109C54.625 72.0934 56.1564 73.625 58.0391 73.625H70.2109C72.0936 73.625 73.625 72.0934 73.625 70.2109V60.4141C73.625 58.5316 72.0936 57 70.2109 57ZM61.7837 71.25C61.7837 69.9405 62.8492 68.875 64.1587 68.875C65.4682 68.875 66.5337 69.9405 66.5337 71.25H61.7837ZM62.9712 64.125C62.9712 63.4702 63.5039 62.9375 64.1587 62.9375C64.8135 62.9375 65.3462 63.4702 65.3462 64.125C65.3462 64.7798 64.8135 65.3125 64.1587 65.3125C63.5039 65.3125 62.9712 64.7798 62.9712 64.125ZM71.25 70.2109C71.25 70.7839 70.7838 71.25 70.2109 71.25H68.9087C68.9087 69.3876 67.8306 67.7729 66.2664 66.9949C67.1479 66.3458 67.7212 65.3012 67.7212 64.125C67.7212 62.1606 66.123 60.5625 64.1587 60.5625C62.1944 60.5625 60.5962 62.1606 60.5962 64.125C60.5962 65.3012 61.1695 66.3458 62.051 66.9949C60.4867 67.7729 59.4087 69.3876 59.4087 71.25H58.0391C57.4662 71.25 57 70.7839 57 70.2109V60.4141C57 59.8411 57.4662 59.375 58.0391 59.375H70.2109C70.7838 59.375 71.25 59.8411 71.25 60.4141V70.2109Z" fill="white"/>
</svg>
