<svg width="69" height="77" viewBox="0 0 69 77" fill="none" xmlns="http://www.w3.org/2000/svg">
<g clip-path="url(#clip0_384_15)">
<path d="M27.9478 17.9813C21.6751 17.9813 19.7498 18.0439 13.4149 18.0439C12.6697 18.0439 11.9865 18.1066 11.3654 18.2319C10.6823 18.3572 10.0612 18.5452 9.50225 18.7958C8.88119 19.0464 8.32223 19.3596 7.76328 19.7356C7.20432 20.1115 6.70747 20.55 6.21062 21.0513C5.71377 21.5525 5.27903 22.0537 4.90639 22.6176C4.53375 23.1814 4.22322 23.7453 3.9748 24.3718C3.72637 24.9984 3.54005 25.6249 3.41584 26.2514C3.29163 26.9406 3.22952 27.6298 3.22952 28.319V49.1823C3.22952 49.9341 3.29163 50.6233 3.41584 51.2498C3.54005 51.939 3.72637 52.5655 3.9748 53.1294C4.22322 53.7559 4.53375 54.3198 4.90639 54.8836C5.27903 55.4475 5.71377 55.9487 6.21062 56.45C6.70747 56.9512 7.26643 57.3897 7.82538 57.7657C8.38434 58.1416 8.94329 58.4548 9.56436 58.7054C10.1854 58.9561 10.8065 59.144 11.4275 59.2693C12.1107 59.3946 12.7939 59.4573 13.477 59.4573H21.3024C21.5509 59.4573 21.7993 59.5199 21.9856 59.6452C22.1719 59.7705 22.3582 59.8958 22.5446 60.0838C23.1656 60.8983 23.7867 61.7128 24.4699 62.4646C25.153 63.2164 25.8362 63.9683 26.6436 64.6574C27.3888 65.3466 28.1341 66.0358 29.0036 66.6623C29.811 67.2888 30.6805 67.9154 31.4879 68.4792C32.2952 69.0431 33.1647 69.5443 34.0963 70.0456C34.9658 70.5468 35.8974 70.9854 36.829 71.4239C36.9532 71.4866 37.0774 71.4866 37.1395 71.4239C37.3258 71.2986 37.3879 71.1106 37.2637 70.9227C37.0774 70.6094 36.9532 70.3588 36.7669 70.0456C36.6427 69.7323 36.4563 69.4817 36.3321 69.1684C36.0837 68.5419 35.8353 67.978 35.5869 67.3515C35.3384 66.725 35.09 66.0984 34.9037 65.4093C34.7174 64.7827 34.469 64.1562 34.2826 63.5297C34.0963 62.9032 33.91 62.2766 33.7237 61.5875C33.6616 61.3995 33.6616 61.2116 33.6616 61.0236C33.6616 60.585 33.8479 60.2091 34.0963 59.8958C34.4068 59.5826 34.7795 59.3946 35.2142 59.3946H44.3438C45.0891 59.3946 45.7723 59.332 46.3933 59.2067C47.0144 59.0814 47.6355 58.8934 48.2565 58.6428C48.8155 58.3922 49.4366 58.0789 49.9334 57.703C50.4924 57.3271 51.0513 56.8885 51.5482 56.3246C52.045 55.8234 52.4798 55.3222 52.8524 54.7583C53.225 54.1945 53.5356 53.6306 53.784 53.0041C54.0324 52.3775 54.2187 51.751 54.3429 51.1245C54.4672 50.4353 54.5293 49.7461 54.5293 49.057V44.7966C54.5293 42.6664 57.2619 42.6664 57.7588 44.1701V49.057C57.7588 49.9967 57.6967 50.8739 57.5104 51.751C57.324 52.6281 57.0756 53.4426 56.7651 54.3198C56.4546 55.1343 56.0198 55.8861 55.523 56.6379C55.0261 57.3897 54.4672 58.0789 53.784 58.7054C53.1629 59.3946 52.4176 59.9585 51.7345 60.4597C50.9892 60.9609 50.2439 61.3369 49.4987 61.7128C48.6913 62.026 47.8218 62.2766 47.0144 62.4646C46.1449 62.6526 45.2754 62.7152 44.3438 62.7152H37.8848C37.8227 62.7152 37.8227 62.7152 37.7606 62.7152C37.5743 62.7779 37.4501 62.9658 37.5122 63.1538C37.6364 63.5297 37.7606 63.9683 37.8848 64.4068C38.0711 64.9707 38.3195 65.5972 38.568 66.1611C38.8164 66.725 39.0027 67.2888 39.2511 67.7901V67.8527C39.4996 68.4166 39.748 68.9178 40.0585 69.4817C40.369 69.9829 40.7417 70.5468 41.1143 71.048C41.4869 71.5492 41.9217 72.0504 42.4185 72.6143C42.9154 73.1155 43.4122 73.6794 44.0333 74.118C44.3438 74.4312 44.5302 74.8072 44.5923 75.2457C44.5923 75.6216 44.468 76.0602 44.2196 76.3735C44.0333 76.6241 43.7849 76.7494 43.4743 76.812C43.2259 76.8747 42.9154 76.8747 42.6049 76.812C41.4248 76.4988 40.2448 76.1229 39.1269 75.7469C38.009 75.371 36.8911 74.9325 35.8353 74.4312C34.7795 73.9927 33.7237 73.4288 32.73 72.9276C31.7363 72.3637 30.7426 71.7998 29.811 71.1733C28.8794 70.5468 27.9478 69.9203 27.0783 69.2311C26.2088 68.5419 25.3393 67.7901 24.532 67.0382C23.8488 66.4117 23.1656 65.7225 22.5446 64.9707C21.9235 64.2815 21.2403 63.5297 20.6814 62.7779C20.6193 62.6526 20.4951 62.5899 20.3708 62.5899H13.4149C12.4833 62.5899 11.6139 62.5273 10.7444 62.3393C9.87489 62.1513 9.06751 61.9007 8.26013 61.5875C7.45275 61.2742 6.70747 60.8356 5.9622 60.3344C5.21692 59.8332 4.53375 59.2693 3.91269 58.6428C3.22952 57.9536 2.67057 57.2644 2.17372 56.5753C1.67687 55.8234 1.24212 55.0716 0.931593 54.2571C0.621062 53.4426 0.372637 52.6281 0.186319 51.751C0.0621062 50.9992 0 50.122 0 49.1823V28.1937C0 27.2539 0.0621062 26.3767 0.248425 25.4996C0.434744 24.6225 0.683168 23.808 0.993699 22.9935C1.30423 22.179 1.73897 21.4272 2.23582 20.6753C2.73267 19.9235 3.29163 19.2343 3.9748 18.6078C4.65797 17.9186 5.34113 17.3548 6.0243 16.8535C6.76958 16.3523 7.51485 15.9764 8.26013 15.6005C9.06751 15.2872 9.93699 15.0366 10.8065 14.8487C11.676 14.6607 12.5455 14.598 13.477 14.598C19.9982 14.598 22.1719 14.598 28.6931 14.598C30.2457 15.0366 30.3078 17.9813 27.9478 17.9813ZM36.0837 21.2392C35.7732 21.8657 35.7111 22.7429 35.7732 23.5574C35.8353 23.9333 35.8974 24.3092 35.9595 24.6851C36.0837 25.061 36.2079 25.4996 36.3321 25.8755C36.5185 26.2514 36.7048 26.6273 36.8911 27.0033C37.0774 27.3165 37.3258 27.6924 37.5743 27.943C38.1953 28.6322 38.8785 29.1961 39.6859 29.3841C41.1143 29.8226 43.5986 28.5696 44.9028 28.131C45.1512 28.0683 45.4618 28.0683 45.6481 28.1937C45.8965 28.319 46.0828 28.5069 46.207 28.7575C46.207 28.8202 46.207 28.8202 46.2691 28.8828C46.3312 29.1334 46.4555 29.384 46.5176 29.6347C47.1386 31.5142 47.6976 33.3312 48.3807 34.7722C48.4428 34.8975 48.505 35.0854 48.5671 35.2107V35.2734C48.7534 35.712 49.0018 36.1505 49.2502 36.5891C49.4987 37.0277 49.685 37.3409 49.9334 37.5915C50.0576 37.7168 50.2439 37.8421 50.4302 37.8421C50.6166 37.8421 50.865 37.7168 51.2376 37.4036C51.3618 37.2156 51.5482 37.0903 51.7345 36.9024C51.8587 36.7771 52.045 36.5891 52.2934 36.3385C52.9766 35.712 53.9703 34.7722 54.3429 34.271L54.1566 34.2083C52.045 33.5191 52.1692 32.3914 52.2934 31.3889C52.3555 31.0757 52.3555 30.7624 52.2934 30.5744C52.2934 30.5118 52.2313 30.5744 52.1071 30.4491C52.045 30.3865 51.9829 30.3865 51.9208 30.3238C51.6103 30.0732 51.4239 29.8226 51.2376 29.5094C51.0513 29.1334 50.9892 28.7575 50.9271 28.3816C50.865 28.0057 50.9271 27.5671 50.9892 27.1912C51.0513 26.69 51.1755 26.2514 51.2997 25.8755C51.3618 25.6875 51.4239 25.5622 51.5482 25.4369C51.6724 25.3116 51.8587 25.249 52.045 25.1863C56.3924 24.1839 58.6283 24.9984 60.7399 25.7502C61.0504 25.8755 61.423 26.0008 61.7336 26.1261C60.802 25.1863 59.9946 24.1212 59.1872 22.9308C57.883 21.0513 56.7651 18.9837 55.8335 16.8535C54.8398 14.7234 54.0945 12.5305 53.5356 10.463C53.1629 9.02197 52.8524 7.58096 52.7282 6.32791C51.7966 7.95687 50.4924 9.8991 48.6292 11.904C46.8902 13.533 36.7669 19.6729 36.0837 21.2392ZM62.0441 16.415C62.1062 17.2295 61.8578 18.3572 61.423 19.297C61.1125 19.9862 60.7399 20.55 60.3672 20.8633C61.1746 22.1164 62.1062 23.3068 63.0378 24.3092C63.9694 25.3116 64.901 26.1261 65.8947 26.7526H65.9568C65.9568 26.7526 66.0189 26.7526 66.081 26.7526C66.1431 26.7526 66.2052 26.7526 66.2673 26.69C66.3294 26.69 66.3915 26.6273 66.3915 26.6273C66.5779 26.4394 66.7021 26.1888 66.7642 25.8755C66.8884 25.4996 66.9505 25.1237 66.9505 24.6851C67.0126 23.3068 66.7642 21.6151 66.2673 19.7356C65.7084 17.668 64.8389 15.4125 63.8452 13.2197C62.8515 11.0895 61.6715 8.95932 60.4915 7.20504C59.3735 5.51342 58.1935 4.07242 57.1377 3.13263C56.7651 2.75671 56.3303 2.5061 56.0198 2.31814C55.7093 2.13019 55.4609 2.06753 55.2124 2.06753H55.1503C55.0882 2.13019 55.0261 2.19284 54.964 2.31814C54.5914 3.25793 54.5914 4.76159 54.8398 6.57852C55.0882 8.39544 55.6472 10.463 56.3924 12.5932C56.5788 12.5305 56.703 12.5305 56.9514 12.5305C57.6346 12.4679 58.5041 12.5305 59.3735 12.8438C60.243 13.157 61.1125 13.7209 61.6094 14.6607C61.7957 15.0993 61.982 15.6631 62.0441 16.415ZM65.8326 28.8828C65.7705 28.8828 65.6463 28.8828 65.5842 28.8828C65.5221 28.8828 65.3978 28.8828 65.3357 28.8202L65.0252 28.7575C64.2799 28.6949 63.4726 28.5069 62.6652 28.3816H62.6031C61.7336 28.1937 60.9883 27.943 60.243 27.6298C58.5041 26.9406 56.6409 26.1888 53.1008 26.9406C53.0387 27.1286 53.0387 27.2539 53.0387 27.4418C53.0387 27.6298 52.9766 27.8804 53.0387 28.0683C53.0387 28.1937 53.1008 28.319 53.1008 28.4443C53.1008 28.5069 53.1629 28.5696 53.1629 28.5696L53.225 28.6322C53.7219 29.0081 53.9703 29.1961 54.1566 29.6973C54.3429 30.1359 54.2808 30.5744 54.2808 31.013C54.2187 31.4516 54.2187 31.8902 54.7156 32.0781C55.3366 32.2661 55.9577 32.5167 56.3303 33.3312C56.3924 33.3938 56.3924 33.5191 56.4546 33.5818C56.4546 33.6444 56.4546 33.7697 56.4546 33.8324C56.3303 35.0228 54.5914 36.7144 53.5977 37.6542C53.4113 37.8421 53.225 38.0301 53.1008 38.1554L53.0387 38.2181C52.9145 38.3434 52.7903 38.4687 52.6661 38.594V38.8446C51.8587 39.6591 51.0513 39.9723 50.3681 39.9723C49.6229 39.9723 49.0018 39.5964 48.4428 39.0325C48.0702 38.6566 47.7597 38.1554 47.4492 37.6542C47.2007 37.153 46.9523 36.6517 46.7039 36.0879C46.6418 35.9626 46.5797 35.7746 46.5176 35.6493C45.8344 34.1456 45.2133 32.3914 44.6544 30.5118C42.8533 31.2636 41.1764 32.0781 39.1269 31.4516C37.9469 31.0757 36.9532 30.3238 36.0837 29.3841C35.7732 29.0081 35.4627 28.5696 35.2142 28.131C34.9658 27.6924 34.7174 27.2539 34.5311 26.7526C34.3447 26.2514 34.1584 25.8129 34.0342 25.3116C33.91 24.8104 33.7858 24.3092 33.7858 23.808C33.6616 22.5549 33.7858 21.3645 34.2205 20.3621C35.5248 17.4801 44.0954 13.7209 47.4492 9.96176C49.685 7.393 50.9892 5.0122 51.9208 3.25793V3.19528C52.4798 2.19284 52.9145 1.37836 53.3492 0.814483C53.4735 0.689178 53.5977 0.563873 53.7219 0.438568C53.8461 0.313263 53.9703 0.25061 54.1566 0.125305C54.3429 0.125305 54.4672 0.0626526 54.6535 0C54.8398 0 55.0261 0 55.2124 0C55.7093 0.0626526 56.2061 0.187958 56.7651 0.438568C57.324 0.689178 57.8209 1.06509 58.3798 1.56631C59.5599 2.63141 60.8641 4.13507 62.1062 5.95199C63.4104 7.83157 64.5905 10.0244 65.6463 12.2799C66.7021 14.598 67.6337 16.9788 68.2547 19.2343C68.8137 21.3019 69.0621 23.1814 69 24.7478C68.9379 25.4369 68.8137 26.0008 68.6274 26.5647C68.441 27.1286 68.1926 27.5671 67.82 28.0057L67.7579 28.0683L67.6958 28.1937C67.4473 28.3816 67.1989 28.5069 66.9505 28.6322C66.7021 28.7575 66.4537 28.8202 66.2673 28.8202C66.2052 28.8202 66.081 28.8202 66.0189 28.8202L65.8326 28.8828ZM40.8038 50.1847C41.6112 50.1847 42.2943 49.4955 42.2943 48.681C42.2943 47.8666 41.6112 47.1774 40.8038 47.1774L24.8425 46.9268L21.7993 46.7388C20.9919 46.6762 20.2466 47.3027 20.1845 48.1798C20.1224 48.9943 20.7435 49.7461 21.613 49.8088L24.6562 49.9967C24.7183 49.9341 39.4374 50.122 40.8038 50.1847ZM36.0216 40.6615C36.829 40.6615 37.5122 39.9723 37.5122 39.1578C37.5122 38.3434 36.829 37.6542 36.0216 37.6542H14.4707C13.6634 37.6542 12.9802 38.3434 12.9802 39.1578C12.9802 39.9723 13.6634 40.6615 14.4707 40.6615H36.0216ZM29.3141 31.5769C30.1215 31.5769 30.8047 30.8877 30.8047 30.0732C30.8047 29.2587 30.1215 28.5696 29.3141 28.5696H14.4707C13.6634 28.5696 12.9802 29.2587 12.9802 30.0732C12.9802 30.8877 13.6634 31.5769 14.4707 31.5769H29.3141Z" fill="white"/>
</g>
<defs>
<clipPath id="clip0_384_15">
<rect width="69" height="77" fill="white"/>
</clipPath>
</defs>
</svg>
