<svg width="69" height="69" viewBox="0 0 69 69" fill="none" xmlns="http://www.w3.org/2000/svg">
<path d="M23.7188 28.0312H10.7812C8.40937 28.0312 6.46875 26.0906 6.46875 23.7188V10.7812C6.46875 8.40937 8.40937 6.46875 10.7812 6.46875H23.7188C26.0906 6.46875 28.0312 8.40937 28.0312 10.7812V23.7188C28.0312 26.0906 26.0906 28.0312 23.7188 28.0312Z" stroke="white" stroke-width="2" stroke-miterlimit="10" stroke-linecap="round" stroke-linejoin="round"/>
<path d="M23.7188 62.5312H10.7812C8.40937 62.5312 6.46875 60.5906 6.46875 58.2188V45.2812C6.46875 42.9094 8.40937 40.9688 10.7812 40.9688H23.7188C26.0906 40.9688 28.0312 42.9094 28.0312 45.2812V58.2188C28.0312 60.5906 26.0906 62.5312 23.7188 62.5312Z" stroke="white" stroke-width="2" stroke-miterlimit="10" stroke-linecap="round" stroke-linejoin="round"/>
<path d="M36.6562 10.7812H62.5312" stroke="white" stroke-width="2" stroke-miterlimit="10" stroke-linecap="round" stroke-linejoin="round"/>
<path d="M36.6562 19.4062H51.75" stroke="white" stroke-width="2" stroke-miterlimit="10" stroke-linecap="round" stroke-linejoin="round"/>
<path d="M36.6562 45.2812H62.5312" stroke="white" stroke-width="2" stroke-miterlimit="10" stroke-linecap="round" stroke-linejoin="round"/>
<path d="M36.6562 53.9062H51.75" stroke="white" stroke-width="2" stroke-miterlimit="10" stroke-linecap="round" stroke-linejoin="round"/>
<path d="M12.9375 15.0938L17.25 19.4062L23.7188 12.9375" stroke="white" stroke-width="2" stroke-miterlimit="10" stroke-linecap="round" stroke-linejoin="round"/>
</svg>
