<svg width="76" height="76" viewBox="0 0 76 76" fill="none" xmlns="http://www.w3.org/2000/svg">
<path d="M67.6875 19H41.5625V17.8125C41.5636 17.2147 41.4126 16.6264 41.1238 16.103C40.8352 15.5795 40.4181 15.138 39.9119 14.82L48.4619 3.07563L46.5381 1.67438L38 13.4188L29.4619 1.67438L27.5381 3.07563L36.0881 14.82C35.6726 15.0866 35.3167 15.4362 35.0428 15.847C34.7689 16.2577 34.5831 16.7207 34.4969 17.2069C32.6989 16.6524 30.7963 16.5257 28.9407 16.8371C27.0851 17.1485 25.3279 17.8891 23.8094 19H8.3125C6.73778 19 5.22755 19.6256 4.11406 20.7391C3.00055 21.8526 2.375 23.3628 2.375 24.9375V62.9375C2.3785 64.3053 2.85253 65.6302 3.71748 66.6898C4.58243 67.7494 5.78562 68.479 7.125 68.7563V72.4375C7.125 72.7524 7.25011 73.0545 7.47281 73.2772C7.69551 73.4998 7.99755 73.625 8.3125 73.625H67.6875C68.0024 73.625 68.3045 73.4998 68.5272 73.2772C68.7498 73.0545 68.875 72.7524 68.875 72.4375V68.7563C70.2144 68.479 71.4176 67.7494 72.2825 66.6898C73.1475 65.6302 73.6216 64.3053 73.625 62.9375V24.9375C73.625 23.3628 72.9994 21.8526 71.8859 20.7391C70.7725 19.6256 69.2622 19 67.6875 19ZM36.8125 17.8125C36.8125 17.4976 36.9377 17.1955 37.1603 16.9728C37.383 16.7502 37.6851 16.625 38 16.625C38.3149 16.625 38.617 16.7502 38.8397 16.9728C39.0623 17.1955 39.1875 17.4976 39.1875 17.8125V19H37.9525C37.5922 18.7182 37.2111 18.4642 36.8125 18.24V17.8125ZM24.9256 21.1138C26.3433 19.9802 28.0547 19.2742 29.8592 19.0786C31.6639 18.883 33.4868 19.2059 35.1144 20.0094C35.7407 20.3118 36.327 20.6908 36.86 21.1375C37.1196 21.3388 37.3655 21.5569 37.5962 21.7906C38.4815 22.6685 39.1832 23.7139 39.6604 24.8659C40.1374 26.0178 40.3803 27.2532 40.375 28.5V29.9013C39.9942 29.763 39.5926 29.6907 39.1875 29.6875V28.5C39.1851 28.1852 39.0619 27.8833 38.8431 27.6569L35.2806 24.0944C35.0779 23.8919 34.8087 23.7695 34.5228 23.7499C34.2369 23.7302 33.9536 23.8146 33.725 23.9875C29.2956 27.3125 29.2956 27.3125 23.75 27.3125C23.4351 27.3125 23.133 27.4377 22.9103 27.6603C22.6877 27.883 22.5625 28.1851 22.5625 28.5V29.6875C22.1574 29.6907 21.7558 29.763 21.375 29.9013V28.5C21.3722 27.0809 21.6899 25.6795 22.3048 24.4004C22.9196 23.1215 23.8155 21.9978 24.9256 21.1138ZM42.5125 26.125H48.6875C49.6314 26.1279 50.536 26.5041 51.2035 27.1715C51.8709 27.839 52.2472 28.7436 52.25 29.6875V58.1875C52.2472 59.1315 51.8709 60.036 51.2035 60.7035C50.536 61.371 49.6314 61.7472 48.6875 61.75H46.3125V55.7413C46.3202 53.7571 45.7712 51.8106 44.728 50.1228C43.6847 48.4352 42.1889 47.0738 40.4106 46.1938L39.7456 45.8613C41.679 43.6991 42.7486 40.9006 42.75 38V28.5C42.7492 27.7025 42.6696 26.907 42.5125 26.125ZM38 53.4375V61.75H36.3969C36.668 61.1952 36.8101 60.5863 36.8125 59.9688C36.8098 59.1848 36.5853 58.4174 36.1651 57.7556C35.7448 57.0937 35.1458 56.5642 34.4375 56.2281V54.625H35.625C35.9399 54.625 36.242 54.4998 36.4647 54.2772C36.6873 54.0545 36.8125 53.7524 36.8125 53.4375V48.6875C36.8125 48.3726 36.6873 48.0705 36.4647 47.8478C36.242 47.6252 35.9399 47.5 35.625 47.5H34.96C35.1715 47.1445 35.3315 46.7606 35.435 46.36L39.3419 48.3194C40.7275 49.0003 41.8932 50.0575 42.7059 51.3701C43.5187 52.6826 43.9455 54.1975 43.9375 55.7413V61.75H40.375V53.4375H38ZM32.0625 58.1875H32.6562C33.1286 58.1875 33.5818 58.3751 33.9158 58.7092C34.2499 59.0432 34.4375 59.4964 34.4375 59.9688C34.4375 60.4411 34.2499 60.8943 33.9158 61.2283C33.5818 61.5624 33.1286 61.75 32.6562 61.75H32.0625V58.1875ZM29.6875 55.8125V54.625H32.0625V55.8125H29.6875ZM27.3125 52.25V49.875H34.4375V52.25H27.3125ZM16.1025 61.75H13.0625C12.1186 61.7472 11.214 61.371 10.5465 60.7035C9.87906 60.036 9.50281 59.1315 9.5 58.1875V29.6875C9.50281 28.7436 9.87906 27.839 10.5465 27.1715C11.214 26.5041 12.1186 26.1279 13.0625 26.125H19.2494C19.0882 26.9065 19.0046 27.702 19 28.5V38C19.0014 40.9006 20.071 43.6991 22.0044 45.8613L21.3394 46.1938C19.5611 47.0738 18.0653 48.4352 17.022 50.1228C15.9788 51.8106 15.4298 53.7571 15.4375 55.7413V59.375C15.4408 60.2122 15.6706 61.0329 16.1025 61.75ZM22.5625 36.8125H22.9069C23.2442 37.9269 23.8103 38.9587 24.5689 39.8419C25.3275 40.7253 26.2619 41.4407 27.3125 41.9425V42.0138C26.8938 42.501 26.5751 43.0659 26.3744 43.6763L24.225 44.7569C23.3238 43.8773 22.6074 42.8265 22.1179 41.6662C21.6285 40.5057 21.3759 39.2593 21.375 38V36.5988C21.7558 36.737 22.1574 36.8093 22.5625 36.8125ZM21.375 33.25C21.375 32.9351 21.5002 32.633 21.7228 32.4103C21.9455 32.1877 22.2476 32.0625 22.5625 32.0625V34.4375C22.2476 34.4375 21.9455 34.3123 21.7228 34.0897C21.5002 33.867 21.375 33.5649 21.375 33.25ZM40.375 36.5988V38C40.3741 39.2593 40.1215 40.5057 39.6321 41.6662C39.1426 42.8265 38.4262 43.8773 37.525 44.7569L35.3756 43.6763C35.1749 43.0659 34.8562 42.501 34.4375 42.0138V41.9425C35.4881 41.4407 36.4225 40.7253 37.1811 39.8419C37.9397 38.9587 38.5058 37.9269 38.8431 36.8125H39.1875C39.5926 36.8093 39.9942 36.737 40.375 36.5988ZM39.1875 34.4375V32.0625C39.5024 32.0625 39.8045 32.1877 40.0272 32.4103C40.2498 32.633 40.375 32.9351 40.375 33.25C40.375 33.5649 40.2498 33.867 40.0272 34.0897C39.8045 34.3123 39.5024 34.4375 39.1875 34.4375ZM36.8125 34.4375C36.8125 36.0122 36.1869 37.5225 35.0734 38.6359C33.96 39.7494 32.4497 40.375 30.875 40.375C29.3003 40.375 27.79 39.7494 26.6766 38.6359C25.5631 37.5225 24.9375 36.0122 24.9375 34.4375V29.6875C29.6994 29.6638 30.4356 29.4025 34.3306 26.505L36.8125 28.9869V34.4375ZM33.25 45.125C33.25 45.5948 33.1107 46.0539 32.8497 46.4444C32.5888 46.835 32.2178 47.1395 31.7839 47.3193C31.3499 47.4989 30.8724 47.546 30.4116 47.4544C29.951 47.3627 29.5278 47.1365 29.1956 46.8044C28.8635 46.4722 28.6373 46.049 28.5456 45.5884C28.454 45.1276 28.5011 44.6501 28.6807 44.2161C28.8605 43.7822 29.165 43.4112 29.5556 43.1503C29.9461 42.8893 30.4052 42.75 30.875 42.75C31.5043 42.7519 32.1073 43.0027 32.5523 43.4477C32.9973 43.8927 33.2481 44.4958 33.25 45.125ZM17.8125 55.7413C17.8045 54.1975 18.2313 52.6826 19.0441 51.3701C19.8568 50.0575 21.0226 49.0003 22.4081 48.3194L26.315 46.36C26.4186 46.7606 26.5785 47.1445 26.79 47.5H26.125C25.8101 47.5 25.508 47.6252 25.2853 47.8478C25.0627 48.0705 24.9375 48.3726 24.9375 48.6875V53.4375C24.9375 53.7524 25.0627 54.0545 25.2853 54.2772C25.508 54.4998 25.8101 54.625 26.125 54.625H27.3125V55.8125H23.75V53.4375H21.375V56.5131L19.3444 58.5319L21.0306 60.2181L23.0494 58.1875H29.6875V61.75H20.1875C19.5582 61.7481 18.9552 61.4973 18.5102 61.0523C18.0652 60.6073 17.8144 60.0044 17.8125 59.375V55.7413ZM66.5 71.25H9.5V68.875H66.5V71.25ZM71.25 62.9375C71.2471 63.8815 70.8709 64.786 70.2035 65.4535C69.536 66.121 68.6314 66.4972 67.6875 66.5H8.3125C7.36853 66.4972 6.46404 66.121 5.79654 65.4535C5.12906 64.786 4.75281 63.8815 4.75 62.9375V24.9375C4.75281 23.9936 5.12906 23.089 5.79654 22.4215C6.46404 21.7541 7.36853 21.3779 8.3125 21.375H21.3869C20.835 22.1092 20.3726 22.9065 20.0094 23.75H13.0625C11.4878 23.75 9.97755 24.3756 8.86406 25.4891C7.75055 26.6026 7.125 28.1128 7.125 29.6875V58.1875C7.125 59.7623 7.75055 61.2725 8.86406 62.3859C9.97755 63.4994 11.4878 64.125 13.0625 64.125H48.6875C50.2622 64.125 51.7725 63.4994 52.8859 62.3859C53.9994 61.2725 54.625 59.7623 54.625 58.1875V29.6875C54.625 28.1128 53.9994 26.6026 52.8859 25.4891C51.7725 24.3756 50.2622 23.75 48.6875 23.75H41.7525C41.3854 22.9034 40.9148 22.1057 40.3512 21.375H67.6875C68.6314 21.3779 69.536 21.7541 70.2035 22.4215C70.8709 23.089 71.2471 23.9936 71.25 24.9375V62.9375Z" fill="white"/>
<path d="M66.5 23.75H59.375C58.7451 23.75 58.1411 24.0002 57.6956 24.4456C57.2502 24.8911 57 25.4951 57 26.125V38C57 38.6299 57.2502 39.2339 57.6956 39.6794C58.1411 40.1248 58.7451 40.375 59.375 40.375H66.5C67.1299 40.375 67.7339 40.1248 68.1794 39.6794C68.6248 39.2339 68.875 38.6299 68.875 38V26.125C68.875 25.4951 68.6248 24.8911 68.1794 24.4456C67.7339 24.0002 67.1299 23.75 66.5 23.75ZM66.5 26.125V28.5H59.375V26.125H66.5ZM66.5 30.875V33.25H59.375V30.875H66.5ZM59.375 38V35.625H66.5V38H59.375Z" fill="white"/>
<path d="M62.9375 42.75C61.9981 42.75 61.0797 43.0286 60.2985 43.5505C59.5174 44.0724 58.9086 44.8143 58.5491 45.6823C58.1895 46.5502 58.0955 47.5052 58.2788 48.4267C58.4621 49.3481 58.9145 50.1944 59.5788 50.8587C60.2431 51.523 61.0894 51.9754 62.0108 52.1587C62.9323 52.342 63.8873 52.248 64.7552 51.8884C65.6232 51.5289 66.3651 50.9201 66.887 50.139C67.4089 49.3578 67.6875 48.4394 67.6875 47.5C67.6875 46.2402 67.1871 45.032 66.2962 44.1413C65.4055 43.2504 64.1973 42.75 62.9375 42.75ZM62.9375 49.875C62.4677 49.875 62.0086 49.7357 61.6181 49.4747C61.2275 49.2138 60.923 48.8428 60.7432 48.4089C60.5636 47.9749 60.5165 47.4974 60.6081 47.0366C60.6998 46.576 60.926 46.1528 61.2581 45.8206C61.5903 45.4885 62.0135 45.2623 62.4741 45.1706C62.9349 45.079 63.4124 45.1261 63.8464 45.3057C64.2803 45.4855 64.6513 45.79 64.9122 46.1806C65.1732 46.5711 65.3125 47.0302 65.3125 47.5C65.3125 48.1298 65.0623 48.7339 64.6169 49.1794C64.1714 49.6248 63.5674 49.875 62.9375 49.875Z" fill="white"/>
<path d="M62.9375 54.625C61.9981 54.625 61.0797 54.9036 60.2985 55.4255C59.5174 55.9474 58.9086 56.6893 58.5491 57.5573C58.1895 58.4252 58.0955 59.3802 58.2788 60.3017C58.4621 61.2231 58.9145 62.0694 59.5788 62.7337C60.2431 63.398 61.0894 63.8504 62.0108 64.0337C62.9323 64.217 63.8873 64.123 64.7552 63.7634C65.6232 63.4039 66.3651 62.7951 66.887 62.014C67.4089 61.2328 67.6875 60.3144 67.6875 59.375C67.6875 58.1152 67.1871 56.907 66.2962 56.0163C65.4055 55.1254 64.1973 54.625 62.9375 54.625ZM62.9375 61.75C62.4677 61.75 62.0086 61.6107 61.6181 61.3497C61.2275 61.0888 60.923 60.7178 60.7432 60.2839C60.5636 59.8499 60.5165 59.3724 60.6081 58.9116C60.6998 58.451 60.926 58.0278 61.2581 57.6956C61.5903 57.3635 62.0135 57.1373 62.4741 57.0456C62.9349 56.954 63.4124 57.0011 63.8464 57.1807C64.2803 57.3605 64.6513 57.665 64.9122 58.0556C65.1732 58.4461 65.3125 58.9052 65.3125 59.375C65.3125 60.0048 65.0623 60.6089 64.6169 61.0544C64.1714 61.4998 63.5674 61.75 62.9375 61.75Z" fill="white"/>
<path d="M29.0938 35.15L27.9062 37.2068C28.8091 37.7273 29.8328 38.0012 30.875 38.0012C31.9172 38.0012 32.9409 37.7273 33.8438 37.2068L32.6562 35.15C32.1126 35.4565 31.4992 35.6177 30.875 35.6177C30.2508 35.6177 29.6374 35.4565 29.0938 35.15Z" fill="white"/>
<path d="M29.6875 30.875H27.3125V33.25H29.6875V30.875Z" fill="white"/>
<path d="M34.4375 30.875H32.0625V33.25H34.4375V30.875Z" fill="white"/>
</svg>
