<svg width="78" height="78" viewBox="0 0 78 78" fill="none" xmlns="http://www.w3.org/2000/svg">
<path d="M50.5594 31.8708C50.0732 31.8707 49.5913 31.9633 49.1398 32.1438V31.7772C49.1378 30.6669 48.6958 29.6027 47.9107 28.8177C47.1257 28.0326 46.0615 27.5906 44.9512 27.5886H44.7562C44.0803 27.5943 43.4161 27.7657 42.8218 28.0878C42.6265 27.1436 42.1119 26.2954 41.3647 25.686C40.6175 25.0766 39.6832 24.7431 38.719 24.7416C38.006 24.7409 37.3029 24.9093 36.6676 25.233V19.1802H44.0776C44.3879 19.1802 44.6855 19.0569 44.9049 18.8375C45.1244 18.6181 45.2476 18.3205 45.2476 18.0102V6.62999C45.2476 6.47568 45.2171 6.3229 45.1578 6.18044C45.0985 6.03798 45.0117 5.90865 44.9022 5.7999C44.7927 5.69115 44.6628 5.60514 44.52 5.5468C44.3771 5.48846 44.2241 5.45896 44.0698 5.45999H19.8898C19.5795 5.45999 19.2819 5.58325 19.0625 5.80267C18.8431 6.02209 18.7198 6.31968 18.7198 6.62999V18.0102C18.7198 18.3205 18.8431 18.6181 19.0625 18.8375C19.2819 19.0569 19.5795 19.1802 19.8898 19.1802H28.0798V47.8062L21.2236 42.1902C19.8472 41.0385 18.0906 40.4418 16.2974 40.5168C14.5043 40.5918 12.8037 41.3332 11.5282 42.5958C11.3231 42.7985 11.2 43.0699 11.1828 43.3579C11.1655 43.6458 11.2552 43.93 11.4346 44.1558L28.0798 65.4342V75.27C28.0798 75.5803 28.2031 75.8779 28.4225 76.0973C28.6419 76.3167 28.9395 76.44 29.2498 76.44C29.5601 76.44 29.8577 76.3167 30.0771 76.0973C30.2966 75.8779 30.4198 75.5803 30.4198 75.27V65.0286C30.4188 64.7683 30.3309 64.5158 30.1702 64.311L13.9774 43.5942C14.8515 43.0377 15.8804 42.7746 16.9143 42.8434C17.9483 42.9121 18.9333 43.309 19.726 43.9764L28.5088 51.1758C28.6797 51.3156 28.8866 51.4043 29.1057 51.4315C29.3248 51.4587 29.5471 51.4233 29.747 51.3295C29.9468 51.2357 30.1161 51.0872 30.2351 50.9013C30.3542 50.7154 30.4182 50.4996 30.4198 50.2788V15.2958C30.4219 14.8061 30.6173 14.3371 30.9635 13.9909C31.3098 13.6447 31.7788 13.4492 32.2684 13.4472H32.4634C32.9544 13.4472 33.4254 13.6417 33.7733 13.9882C34.1213 14.3346 34.3178 14.8048 34.3198 15.2958V40.17C34.3198 40.4803 34.4431 40.7779 34.6625 40.9973C34.8819 41.2167 35.1795 41.34 35.4898 41.34C35.8001 41.34 36.0977 41.2167 36.3171 40.9973C36.5366 40.7779 36.6598 40.4803 36.6598 40.17V28.86C36.7111 28.3588 36.9521 27.8961 37.3336 27.5669C37.715 27.2377 38.2079 27.0669 38.7112 27.0894C39.2009 27.0914 39.6699 27.2869 40.0161 27.6331C40.3623 27.9793 40.5578 28.4483 40.5598 28.938V31.59C40.5598 31.59 40.5598 31.6524 40.5598 31.6836C40.5598 31.7148 40.5598 31.746 40.5598 31.7772V40.17C40.5598 40.4803 40.6831 40.7779 40.9025 40.9973C41.1219 41.2167 41.4195 41.34 41.7298 41.34C42.0401 41.34 42.3377 41.2167 42.5571 40.9973C42.7766 40.7779 42.8998 40.4803 42.8998 40.17V31.785C42.9019 31.2953 43.0973 30.8263 43.4435 30.4801C43.7898 30.1339 44.2588 29.9384 44.7484 29.9364H44.9434C45.4344 29.9364 45.9054 30.1309 46.2533 30.4774C46.6013 30.8238 46.7978 31.294 46.7998 31.785V40.17C46.7998 40.4803 46.9231 40.7779 47.1425 40.9973C47.3619 41.2167 47.6595 41.34 47.9698 41.34C48.2801 41.34 48.5777 41.2167 48.7971 40.9973C49.0166 40.7779 49.1398 40.4803 49.1398 40.17V35.88C49.1124 35.6752 49.1283 35.4669 49.1866 35.2687C49.2449 35.0705 49.3441 34.8867 49.478 34.7293C49.6119 34.5719 49.7773 34.4445 49.9636 34.3551C50.1499 34.2658 50.3529 34.2166 50.5594 34.2108C51.005 34.2107 51.4329 34.3856 51.7509 34.6977C52.0689 35.0099 52.2516 35.4344 52.2598 35.88V56.0742C52.2631 57.6684 51.9505 59.2474 51.34 60.7201C50.7295 62.1928 49.8333 63.5299 48.703 64.6542C48.5896 64.7673 48.5006 64.9025 48.4416 65.0515C48.3825 65.2004 48.3547 65.3599 48.3598 65.52V74.49C48.3598 74.8003 48.4831 75.0979 48.7025 75.3173C48.9219 75.5367 49.2195 75.66 49.5298 75.66C49.8401 75.66 50.1377 75.5367 50.3571 75.3173C50.5766 75.0979 50.6998 74.8003 50.6998 74.49V65.9646C53.2153 63.2869 54.6107 59.7481 54.5998 56.0742V35.88C54.5916 34.8138 54.1623 33.7941 53.4054 33.0431C52.6486 32.2922 51.6256 31.8708 50.5594 31.8708ZM32.4712 11.0994H32.2762C31.1633 11.0994 30.0959 11.5415 29.3089 12.3285C28.5219 13.1155 28.0798 14.1828 28.0798 15.2958V16.8558H21.0598V7.79999H42.8998V16.8402H36.6598V15.2802C36.6557 14.1713 36.2128 13.1091 35.428 12.3257C34.6431 11.5423 33.5801 11.1014 32.4712 11.0994Z" fill="white"/>
<path d="M62.0096 10.14H50.3096C49.9993 10.14 49.7018 10.2633 49.4823 10.4827C49.2629 10.7021 49.1396 10.9997 49.1396 11.31C49.1396 11.6203 49.2629 11.9179 49.4823 12.1373C49.7018 12.3567 49.9993 12.48 50.3096 12.48H62.0096C62.32 12.48 62.6175 12.3567 62.837 12.1373C63.0564 11.9179 63.1796 11.6203 63.1796 11.31C63.1796 10.9997 63.0564 10.7021 62.837 10.4827C62.6175 10.2633 62.32 10.14 62.0096 10.14Z" fill="white"/>
<path d="M50.4422 17.16C50.2204 16.9534 49.9271 16.8408 49.624 16.8462C49.3209 16.8515 49.0317 16.9743 48.8173 17.1887C48.6029 17.4031 48.4801 17.6923 48.4748 17.9954C48.4694 18.2985 48.582 18.5918 48.7886 18.8136L59.2172 29.2656C59.4441 29.4326 59.7236 29.512 60.0044 29.4894C60.2852 29.4668 60.5484 29.3437 60.7457 29.1426C60.943 28.9415 61.0611 28.676 61.0784 28.3948C61.0956 28.1137 61.0109 27.8357 60.8396 27.612L50.4422 17.16Z" fill="white"/>
<path d="M16.4266 21.0132C16.2072 20.7941 15.9098 20.671 15.5998 20.671C15.2897 20.671 14.9923 20.7941 14.773 21.0132L6.97297 28.8132C6.85802 28.9203 6.76582 29.0495 6.70187 29.193C6.63792 29.3365 6.60354 29.4914 6.60077 29.6485C6.598 29.8056 6.62689 29.9617 6.68574 30.1074C6.74458 30.253 6.83217 30.3854 6.94327 30.4965C7.05437 30.6076 7.18671 30.6952 7.3324 30.754C7.47808 30.8129 7.63413 30.8418 7.79123 30.839C7.94832 30.8362 8.10325 30.8018 8.24677 30.7379C8.39029 30.6739 8.51946 30.5817 8.62657 30.4668L16.4266 22.6668C16.6457 22.4474 16.7687 22.15 16.7687 21.84C16.7687 21.5299 16.6457 21.2326 16.4266 21.0132Z" fill="white"/>
</svg>
