<svg width="76" height="76" viewBox="0 0 76 76" fill="none" xmlns="http://www.w3.org/2000/svg">
<g clip-path="url(#clip0_400_1279)">
<path d="M19.4132 6.42427e-05C19.3819 0.00217369 19.3528 0.00485335 19.3227 0.00934159C17.2871 0.135011 15.2844 0.608766 13.4177 1.41718C5.37264 4.90118 1.22698 14.2924 4.93122 22.2587C8.20414 29.2976 16.9266 32.9162 24.2977 29.6017C30.7267 26.7108 34.0313 19.108 30.9194 12.7147C28.2481 7.22664 21.3293 4.42604 15.5515 7.17609C10.6908 9.48966 8.21917 15.3576 10.7667 20.2247C12.8544 24.2132 18.0263 26.2419 22.2636 24.0214C25.6154 22.2651 27.3066 18.0394 25.2741 14.642C23.7451 12.0863 20.2016 10.7916 17.4417 12.5569C16.479 13.1727 15.7884 14.1153 15.4981 15.1894C15.2077 16.2635 15.3648 17.5345 16.1939 18.5269C17.2041 19.7712 19.1096 18.2648 18.0656 17.0472C17.7537 16.6738 17.6999 16.2656 17.8314 15.7785C17.9629 15.2914 18.3275 14.7874 18.7614 14.5098C20.2388 13.5648 22.3016 14.3312 23.1937 15.8226C24.4802 17.973 23.3442 20.7904 21.1132 21.9595C18.1541 23.5102 14.4164 22.0384 12.9097 19.1601C11.0122 15.5348 12.905 11.0433 16.6091 9.27973C21.1133 7.13585 26.6209 9.36692 28.7392 13.7189C31.2486 18.8743 28.5457 25.12 23.2934 27.4819C17.1929 30.2251 9.86694 27.1846 7.12995 21.2985C4.00025 14.5677 7.53966 6.52632 14.3941 3.55793C15.9951 2.86459 17.7264 2.45085 19.4781 2.34259C21.0675 2.28649 21.0033 -0.0276728 19.4132 6.42427e-05ZM74.7224 0.00470291C74.5365 0.0181899 74.3557 0.0756479 74.1959 0.171695C61.2637 7.68959 56.5078 14.6676 56.1282 21.4887C55.7485 28.2443 59.7566 34.4219 62.9401 39.9135C66.2454 45.6152 68.9874 50.5688 67.4999 56.1118C65.9462 61.4583 59.9581 67.2406 44.6522 73.7155C43.2152 74.3645 44.1384 76.4864 45.5799 75.898C61.1511 69.3109 67.9277 63.1451 69.7775 56.7797C71.6274 50.4143 68.3115 44.3836 64.9556 38.6472C61.5997 32.9108 58.1711 27.3675 58.494 21.6209C58.8167 15.8744 62.8527 9.53036 75.388 2.23127C76.4926 1.62985 76.0023 -0.1016 74.7224 0.00470291ZM47.5049 7.12506C45.5235 7.12506 43.9378 8.73885 43.9378 10.6922C43.9378 12.6456 45.5282 14.2501 47.5049 14.2501C49.4817 14.2501 51.0628 12.6456 51.0628 10.6922C51.0628 8.73885 49.4864 7.12506 47.5049 7.12506ZM68.9055 19.5822C67.8294 19.5553 67.2775 20.8616 68.045 21.6163L68.9843 22.5579L68.0404 23.5019C66.9177 24.6244 68.6016 26.3082 69.7242 25.1857L70.6635 24.2418L71.6052 25.1857C72.7278 26.3082 74.4116 24.6244 73.289 23.5019L72.3427 22.5579L73.2821 21.6163C74.0486 20.8624 73.4989 19.5592 72.4239 19.5822C72.1156 19.5912 71.8226 19.7204 71.6075 19.9417L70.6635 20.8834L69.7196 19.9417C69.505 19.7209 69.2132 19.5921 68.9055 19.5822ZM39.1878 24.9399C37.2346 24.9399 35.63 26.5076 35.63 28.4977V35.8384C33.9174 36.1499 31.989 37.048 30.2816 38.0534C28.586 39.0519 26.9129 40.2708 25.4991 41.544L1.24811 40.3751C-0.336889 40.2992 -0.450627 42.6766 1.13447 42.7524L23.8106 43.8425C23.9408 44.7046 25.0806 45.3503 25.8702 44.4965C27.2787 42.983 29.3954 41.3468 31.483 40.1037C33.7406 38.7593 35.7038 38.0882 36.8175 38.0882C36.9795 38.1196 36.9898 38.1195 37.3045 38.2366C37.6191 38.3533 38.0349 38.5365 38.4966 38.7631C39.4201 39.2166 40.5401 39.8373 41.6092 40.4632C43.7474 41.715 45.6935 42.9797 45.6935 42.9797C46.3115 43.3657 46.4928 44.1129 46.176 44.6287C46.0099 44.9164 45.804 45.025 45.5219 45.0926C45.2212 45.1599 44.8057 45.1286 44.353 44.9697L38.4085 42.9101C37.8728 42.7265 37.2833 42.946 36.9984 43.4366C36.9984 43.4366 34.9517 46.7946 31.7822 47.6323C30.228 48.0218 30.8429 50.3547 32.3875 49.9284C33.6985 49.5819 34.7976 48.9545 35.63 48.342V64.1204H32.7192C30.5947 64.1204 27.685 63.0774 25.9328 61.43C25.7012 61.2056 25.3879 61.0848 25.0654 61.096C24.0454 61.1319 23.5416 62.351 24.2397 63.0953L1.13911 64.1204C-0.431536 64.2012 -0.319491 66.5619 1.24348 66.4954L27.6027 65.3265C29.2733 66.0859 31.07 66.4954 32.7192 66.4954H35.63V68.8727C35.6286 69.0886 35.6865 69.2996 35.7969 69.4851L39.3641 75.4202C39.8338 76.1986 40.9363 76.1856 41.3981 75.4202L44.956 69.4851C45.0691 69.3001 45.1309 69.0896 45.1323 68.8727V66.5047H48.6878C50.6411 66.5047 52.2549 64.9146 52.2549 62.9352C52.2549 62.0141 51.9189 61.189 51.3481 60.5602C51.9182 59.9289 52.2549 59.1013 52.2549 58.1806C52.2549 57.2607 51.9198 56.4365 51.3504 55.8079C51.9192 55.1768 52.2549 54.3501 52.2549 53.4306C52.2549 52.5107 51.9198 51.6865 51.3504 51.0579C51.9192 50.4268 52.2549 49.6024 52.2549 48.6829C52.2549 46.7035 50.6411 45.1251 48.6878 45.1251H48.5394C49.0298 43.5778 48.3784 41.863 46.9738 40.9735C46.8087 40.8684 46.0797 40.4072 45.1323 39.8231V28.4977C45.1323 26.5447 43.5601 24.9399 41.5651 24.9399H39.1878ZM39.1878 27.3149H41.5651C42.2436 27.3149 42.7573 27.8518 42.7573 28.4977V30.8727H38.0049V28.4977C38.0049 27.8518 38.5094 27.3149 39.1878 27.3149ZM43.9471 47.4977H48.6878C49.3663 47.4977 49.8799 48.0349 49.8799 48.6806C49.8799 49.3263 49.3663 49.8727 48.6878 49.8727H43.9471C43.2685 49.8727 42.7549 49.3263 42.7549 48.6806C42.7549 48.0349 43.2685 47.4977 43.9471 47.4977ZM60.5698 48.6852C58.5884 48.6852 57.0003 50.299 57.0003 52.2524C57.0003 54.2058 58.593 55.8102 60.5698 55.8102C62.5465 55.8102 64.13 54.2058 64.13 52.2524C64.13 50.299 62.5512 48.6852 60.5698 48.6852ZM43.9448 52.2501H48.6901C49.3684 52.2541 49.8799 52.7873 49.8799 53.4306C49.8799 54.0763 49.3663 54.6227 48.6878 54.6227H43.9471C43.2685 54.6227 42.7549 54.0763 42.7549 53.4306C42.7549 52.7873 43.2665 52.2541 43.9448 52.2501ZM43.9448 57.0001H48.6901C49.3684 57.0041 49.8799 57.5374 49.8799 58.1806C49.8799 58.8263 49.3663 59.3727 48.6878 59.3727H43.9471C43.2685 59.3727 42.7549 58.8263 42.7549 58.1806C42.7549 57.5374 43.2665 57.0041 43.9448 57.0001ZM43.9471 61.7524H48.6878C49.3663 61.7524 49.8799 62.2895 49.8799 62.9352C49.8799 63.5809 49.3663 64.1274 48.6878 64.1274H43.9471C43.2685 64.1274 42.7549 63.5809 42.7549 62.9352C42.7549 62.2895 43.2685 61.7524 43.9471 61.7524ZM24.9633 67.6783C23.8883 67.6558 23.3365 68.9582 24.1029 69.7123L25.0445 70.654L24.0982 71.598C22.9761 72.72 24.6576 74.4015 25.7797 73.2795L26.7214 72.3355L27.663 73.2795C28.7852 74.4015 30.469 72.72 29.3469 71.598L28.3983 70.654L29.3422 69.7123C30.1085 68.9582 29.5568 67.6548 28.4818 67.6783C28.1739 67.6873 27.8802 67.8165 27.6654 68.0378L26.7214 68.9794L25.7774 68.0378C25.5624 67.817 25.2714 67.6877 24.9633 67.6783Z" fill="white"/>
</g>
<defs>
<clipPath id="clip0_400_1279">
<rect width="76" height="76" fill="white"/>
</clipPath>
</defs>
</svg>
