<svg width="71" height="71" viewBox="0 0 71 71" fill="none" xmlns="http://www.w3.org/2000/svg">
<path d="M66.5627 34.2353H59.8399C59.5457 34.2353 59.2635 34.3522 59.0555 34.5602C58.8474 34.7683 58.7305 35.0505 58.7305 35.3447V37.4858H57.6877L56.5118 31.9389C56.101 30.4036 55.1915 29.0483 53.9263 28.0864C52.6611 27.1244 51.112 26.6104 49.5227 26.625H39.9377V12.1255C39.9407 11.6969 39.8583 11.2719 39.6953 10.8755C39.5323 10.4791 39.292 10.1191 38.9884 9.81649C38.6848 9.51392 38.324 9.27484 37.927 9.11319C37.53 8.95155 37.1048 8.87058 36.6762 8.87501H29.1435C29.0197 8.00342 28.5556 7.21639 27.8529 6.6862C27.1501 6.156 26.2659 5.92584 25.3938 6.0461C25.1504 5.25794 24.6609 4.56848 23.9971 4.07876C23.3333 3.58905 22.5301 3.32483 21.7052 3.32483C20.8803 3.32483 20.077 3.58905 19.4132 4.07876C18.7494 4.56848 18.2599 5.25794 18.0165 6.0461C17.1444 5.92584 16.2602 6.156 15.5574 6.6862C14.8547 7.21639 14.3906 8.00342 14.2668 8.87501H6.73414C5.87795 8.87501 5.05682 9.21513 4.4514 9.82055C3.84598 10.426 3.50586 11.2471 3.50586 12.1033V51.7856C3.51378 52.264 3.62474 52.7351 3.8312 53.1667C4.03765 53.5983 4.33473 53.9803 4.70219 54.2867C5.06966 54.5931 5.49887 54.8167 5.96056 54.9422C6.42225 55.0676 6.90557 55.0921 7.37758 55.0139C7.26664 56.922 7.37758 62.2138 7.37758 64.0664C7.38037 65.0141 7.75507 65.9229 8.42104 66.5972C9.08702 67.2714 9.99106 67.6574 10.9387 67.6719H17.0846C18.0399 67.669 18.9553 67.2882 19.6308 66.6126C20.3064 65.9371 20.6872 65.0217 20.6901 64.0664V62.957H50.3104V64.0664C50.3133 65.0217 50.6941 65.9371 51.3696 66.6126C52.0452 67.2882 52.9605 67.669 53.9159 67.6719H60.0618C61.0171 67.669 61.9325 67.2882 62.608 66.6126C63.2835 65.9371 63.6643 65.0217 63.6673 64.0664V61.8477C63.6673 61.7922 63.6673 55.5686 63.6673 55.5131C63.6673 55.4577 63.0904 49.1342 63.1126 49.0677C62.9969 47.7218 62.5399 46.4277 61.7848 45.3076C61.0297 44.1875 60.0014 43.2785 58.7971 42.6666L58.1759 39.7045H58.7638V40.703C58.7615 40.866 58.795 41.0275 58.8622 41.1761C58.9293 41.3246 59.0284 41.4565 59.1523 41.5625C59.2762 41.6684 59.422 41.7457 59.5792 41.7889C59.7364 41.8321 59.9011 41.8401 60.0618 41.8124L66.718 40.703C66.9806 40.6604 67.2191 40.525 67.3901 40.3214C67.5611 40.1178 67.6533 39.8595 67.6499 39.5936V35.3447C67.65 35.0543 67.5361 34.7754 67.3329 34.568C67.1296 34.3606 66.8531 34.2411 66.5627 34.2353ZM15.3429 13.9116H34.5129V49.9995H8.87523V13.9116H15.3429ZM16.4523 9.28548C16.4522 9.02258 16.5559 8.7703 16.7408 8.58337C16.9256 8.39644 17.1767 8.28996 17.4396 8.28704H18.9484C19.2426 8.28704 19.5248 8.17016 19.7328 7.96211C19.9409 7.75406 20.0577 7.47189 20.0577 7.17766C20.0577 6.73633 20.2331 6.31307 20.5451 6.00099C20.8572 5.68892 21.2805 5.5136 21.7218 5.5136C22.1631 5.5136 22.5864 5.68892 22.8985 6.00099C23.2105 6.31307 23.3859 6.73633 23.3859 7.17766C23.3859 7.47189 23.5027 7.75406 23.7108 7.96211C23.9188 8.17016 24.201 8.28704 24.4952 8.28704H26.0151C26.276 8.29284 26.5243 8.40059 26.7068 8.5872C26.8893 8.77382 26.9914 9.02447 26.9913 9.28548V11.6928H16.4523V9.28548ZM5.72461 51.7856V12.1255C5.72165 11.991 5.74558 11.8574 5.79499 11.7323C5.8444 11.6073 5.91829 11.4933 6.01233 11.3972C6.10637 11.3011 6.21866 11.2248 6.34262 11.1727C6.46657 11.1206 6.59968 11.0937 6.73414 11.0938H14.2335V11.6706H7.76586C7.47163 11.6706 7.18946 11.7875 6.98141 11.9956C6.77336 12.2036 6.65648 12.4858 6.65648 12.78V51.1089C6.65648 51.4031 6.77336 51.6853 6.98141 51.8934C7.18946 52.1014 7.47163 52.2183 7.76586 52.2183H35.6223C35.9165 52.2183 36.1987 52.1014 36.4067 51.8934C36.6148 51.6853 36.7316 51.4031 36.7316 51.1089V12.8022C36.7316 12.508 36.6148 12.2258 36.4067 12.0177C36.1987 11.8097 35.9165 11.6928 35.6223 11.6928H29.1768V11.0938H36.6762C36.9439 11.0938 37.2007 11.2001 37.39 11.3894C37.5793 11.5788 37.6857 11.8355 37.6857 12.1033V51.7856C37.6857 52.0534 37.5793 52.3102 37.39 52.4995C37.2007 52.6888 36.9439 52.7952 36.6762 52.7952H6.72305C6.45723 52.7922 6.20329 52.6846 6.01636 52.4956C5.82943 52.3066 5.72459 52.0515 5.72461 51.7856ZM28.5001 60.7605V58.6527H42.5004V60.7605H28.5001ZM60.8827 49.2895L61.4485 55.6019V64.0664C61.4485 64.4342 61.3024 64.7869 61.0424 65.047C60.7823 65.307 60.4296 65.4531 60.0618 65.4531H53.9159C53.5481 65.4531 53.1954 65.307 52.9353 65.047C52.6752 64.7869 52.5291 64.4342 52.5291 64.0664V62.957H54.8699C55.1641 62.957 55.4463 62.8402 55.6544 62.6321C55.8624 62.4241 55.9793 62.1419 55.9793 61.8477C55.9793 61.5534 55.8624 61.2713 55.6544 61.0632C55.4463 60.8552 55.1641 60.7383 54.8699 60.7383H44.7191V57.5211C44.7191 57.2269 44.6023 56.9447 44.3942 56.7367C44.1862 56.5286 43.904 56.4117 43.6098 56.4117H27.3907C27.0965 56.4117 26.8143 56.5286 26.6063 56.7367C26.3982 56.9447 26.2813 57.2269 26.2813 57.5211V60.7383H16.1305C15.8363 60.7383 15.5541 60.8552 15.3461 61.0632C15.1381 61.2713 15.0212 61.5534 15.0212 61.8477C15.0212 62.1419 15.1381 62.4241 15.3461 62.6321C15.5541 62.8402 15.8363 62.957 16.1305 62.957H18.4713V64.0664C18.4713 64.4342 18.3252 64.7869 18.0652 65.047C17.8051 65.307 17.4524 65.4531 17.0846 65.4531H10.9387C10.5709 65.4531 10.2182 65.307 9.95811 65.047C9.69805 64.7869 9.55195 64.4342 9.55195 64.0664V55.6019L9.60742 55.0139H36.6762C37.1029 55.0183 37.5263 54.9381 37.9218 54.7778C38.3173 54.6175 38.6771 54.3804 38.9805 54.0802C39.2838 53.78 39.5245 53.4226 39.6889 53.0288C39.8532 52.6349 39.9378 52.2124 39.9377 51.7856V44.02H55.1584C56.6017 44.0128 57.9942 44.5522 59.0562 45.5298C60.1181 46.5073 60.7706 47.8506 60.8827 49.2895ZM39.9377 41.8124V28.8438H49.556C50.6398 28.8277 51.6984 29.1704 52.5672 29.8185C53.436 30.4666 54.0661 31.3837 54.3596 32.427L56.3454 41.8124H39.9377ZM65.4534 38.6506L60.9493 39.3939V36.4541H65.4534V38.6506Z" fill="currentColor"/>
<path d="M45.7277 50.5099C44.7293 52.7286 47.0035 55.3467 49.3332 55.2802H56.1337C56.6574 55.251 57.1703 55.119 57.643 54.8917C58.1157 54.6643 58.539 54.3461 58.8888 53.9552C59.2385 53.5642 59.5078 53.1082 59.6813 52.6132C59.8548 52.1182 59.9291 51.5938 59.9 51.0701C59.8708 50.5464 59.7388 50.0335 59.5115 49.5608C59.2841 49.0881 58.9659 48.6647 58.575 48.315C58.184 47.9653 57.728 47.696 57.233 47.5225C56.738 47.3489 56.2136 47.2746 55.6899 47.3038L47.7024 48.9235C47.2685 49.0059 46.8615 49.1937 46.5171 49.4703C46.1728 49.7469 45.9017 50.1039 45.7277 50.5099ZM47.7579 51.3974C47.7899 51.3234 47.8386 51.2579 47.9002 51.2059C47.9618 51.1539 48.0346 51.1169 48.1129 51.0978L56.056 49.4892C58.2748 49.4892 58.2748 53.0282 56.1337 53.0614H49.3332C49.0565 53.0612 48.7845 52.9897 48.5435 52.8536C48.3025 52.7176 48.1007 52.5217 47.9576 52.2849C47.7912 52.0297 47.5915 51.708 47.7579 51.3974Z" fill="currentColor"/>
<path d="M11.1934 22.3428H15.8749C16.1691 22.3428 16.4513 22.2259 16.6594 22.0178C16.8674 21.8098 16.9843 21.5276 16.9843 21.2334V16.7959C16.9843 16.5017 16.8674 16.2195 16.6594 16.0115C16.4513 15.8034 16.1691 15.6865 15.8749 15.6865H11.1934C10.8991 15.6865 10.617 15.8034 10.4089 16.0115C10.2009 16.2195 10.084 16.5017 10.084 16.7959V21.2334C10.084 21.5276 10.2009 21.8098 10.4089 22.0178C10.617 22.2259 10.8991 22.3428 11.1934 22.3428ZM12.3027 17.9053H14.7655V20.124H12.3027V17.9053Z" fill="currentColor"/>
<path d="M18.6816 18.5266H25.0051C25.2993 18.5266 25.5815 18.4097 25.7895 18.2017C25.9976 17.9936 26.1145 17.7115 26.1145 17.4172C26.1145 17.123 25.9976 16.8408 25.7895 16.6328C25.5815 16.4247 25.2993 16.3079 25.0051 16.3079H18.6816C18.3874 16.3079 18.1052 16.4247 17.8972 16.6328C17.6891 16.8408 17.5723 17.123 17.5723 17.4172C17.5723 17.7115 17.6891 17.9936 17.8972 18.2017C18.1052 18.4097 18.3874 18.5266 18.6816 18.5266Z" fill="currentColor"/>
<path d="M18.6816 21.3666H32.6265C32.9207 21.3666 33.2029 21.2497 33.4109 21.0416C33.619 20.8336 33.7359 20.5514 33.7359 20.2572C33.7359 19.963 33.619 19.6808 33.4109 19.4728C33.2029 19.2647 32.9207 19.1478 32.6265 19.1478H18.6816C18.3874 19.1478 18.1052 19.2647 17.8972 19.4728C17.6891 19.6808 17.5723 19.963 17.5723 20.2572C17.5723 20.5514 17.6891 20.8336 17.8972 21.0416C18.1052 21.2497 18.3874 21.3666 18.6816 21.3666Z" fill="currentColor"/>
<path d="M11.1934 31.0625H15.8749C16.1691 31.0625 16.4513 30.9456 16.6594 30.7376C16.8674 30.5295 16.9843 30.2473 16.9843 29.9531V25.5156C16.9843 25.2214 16.8674 24.9392 16.6594 24.7312C16.4513 24.5231 16.1691 24.4062 15.8749 24.4062H11.1934C10.8991 24.4062 10.617 24.5231 10.4089 24.7312C10.2009 24.9392 10.084 25.2214 10.084 25.5156V29.9531C10.084 30.2473 10.2009 30.5295 10.4089 30.7376C10.617 30.9456 10.8991 31.0625 11.1934 31.0625ZM12.3027 26.625H14.7655V28.8438H12.3027V26.625Z" fill="currentColor"/>
<path d="M18.6816 27.2351H25.0051C25.2993 27.2351 25.5815 27.1182 25.7895 26.9102C25.9976 26.7021 26.1145 26.42 26.1145 26.1257C26.1145 25.8315 25.9976 25.5493 25.7895 25.3413C25.5815 25.1332 25.2993 25.0164 25.0051 25.0164H18.6816C18.3874 25.0164 18.1052 25.1332 17.8972 25.3413C17.6891 25.5493 17.5723 25.8315 17.5723 26.1257C17.5723 26.42 17.6891 26.7021 17.8972 26.9102C18.1052 27.1182 18.3874 27.2351 18.6816 27.2351Z" fill="currentColor"/>
<path d="M18.6816 30.0752H32.6265C32.9207 30.0752 33.2029 29.9583 33.4109 29.7503C33.619 29.5422 33.7359 29.26 33.7359 28.9658C33.7359 28.6716 33.619 28.3894 33.4109 28.1814C33.2029 27.9733 32.9207 27.8564 32.6265 27.8564H18.6816C18.3874 27.8564 18.1052 27.9733 17.8972 28.1814C17.6891 28.3894 17.5723 28.6716 17.5723 28.9658C17.5723 29.26 17.6891 29.5422 17.8972 29.7503C18.1052 29.9583 18.3874 30.0752 18.6816 30.0752Z" fill="currentColor"/>
<path d="M11.1934 39.76H15.8749C16.1691 39.76 16.4513 39.6431 16.6594 39.4351C16.8674 39.227 16.9843 38.9449 16.9843 38.6506V34.2131C16.9843 33.9189 16.8674 33.6367 16.6594 33.4287C16.4513 33.2206 16.1691 33.1038 15.8749 33.1038H11.1934C10.8991 33.1038 10.617 33.2206 10.4089 33.4287C10.2009 33.6367 10.084 33.9189 10.084 34.2131V38.6506C10.084 38.9449 10.2009 39.227 10.4089 39.4351C10.617 39.6431 10.8991 39.76 11.1934 39.76ZM12.3027 35.3225H14.7655V37.5413H12.3027V35.3225Z" fill="currentColor"/>
<path d="M18.6816 35.9437H25.0051C25.2993 35.9437 25.5815 35.8268 25.7895 35.6188C25.9976 35.4107 26.1145 35.1286 26.1145 34.8344C26.1145 34.5401 25.9976 34.258 25.7895 34.0499C25.5815 33.8419 25.2993 33.725 25.0051 33.725H18.6816C18.3874 33.725 18.1052 33.8419 17.8972 34.0499C17.6891 34.258 17.5723 34.5401 17.5723 34.8344C17.5723 35.1286 17.6891 35.4107 17.8972 35.6188C18.1052 35.8268 18.3874 35.9437 18.6816 35.9437Z" fill="currentColor"/>
<path d="M18.6816 38.8281H32.6265C32.9207 38.8281 33.2029 38.7112 33.4109 38.5032C33.619 38.2951 33.7359 38.013 33.7359 37.7188C33.7359 37.4245 33.619 37.1424 33.4109 36.9343C33.2029 36.7263 32.9207 36.6094 32.6265 36.6094H18.6816C18.3874 36.6094 18.1052 36.7263 17.8972 36.9343C17.6891 37.1424 17.5723 37.4245 17.5723 37.7188C17.5723 38.013 17.6891 38.2951 17.8972 38.5032C18.1052 38.7112 18.3874 38.8281 18.6816 38.8281Z" fill="currentColor"/>
<path d="M11.1934 48.4686H15.8749C16.1691 48.4686 16.4513 48.3517 16.6594 48.1437C16.8674 47.9357 16.9843 47.6535 16.9843 47.3593V42.9218C16.9843 42.6275 16.8674 42.3454 16.6594 42.1373C16.4513 41.9293 16.1691 41.8124 15.8749 41.8124H11.1934C10.8991 41.8124 10.617 41.9293 10.4089 42.1373C10.2009 42.3454 10.084 42.6275 10.084 42.9218V47.3593C10.084 47.6535 10.2009 47.9357 10.4089 48.1437C10.617 48.3517 10.8991 48.4686 11.1934 48.4686ZM12.3027 44.0311H14.7655V46.2499H12.3027V44.0311Z" fill="currentColor"/>
<path d="M18.6816 44.6523H25.0051C25.2993 44.6523 25.5815 44.5355 25.7895 44.3274C25.9976 44.1194 26.1145 43.8372 26.1145 43.543C26.1145 43.2487 25.9976 42.9666 25.7895 42.7585C25.5815 42.5505 25.2993 42.4336 25.0051 42.4336H18.6816C18.3874 42.4336 18.1052 42.5505 17.8972 42.7585C17.6891 42.9666 17.5723 43.2487 17.5723 43.543C17.5723 43.8372 17.6891 44.1194 17.8972 44.3274C18.1052 44.5355 18.3874 44.6523 18.6816 44.6523Z" fill="currentColor"/>
<path d="M18.6816 47.4923H32.6265C32.9207 47.4923 33.2029 47.3754 33.4109 47.1674C33.619 46.9593 33.7359 46.6772 33.7359 46.3829C33.7359 46.0887 33.619 45.8065 33.4109 45.5985C33.2029 45.3904 32.9207 45.2736 32.6265 45.2736H18.6816C18.3874 45.2736 18.1052 45.3904 17.8972 45.5985C17.6891 45.8065 17.5723 46.0887 17.5723 46.3829C17.5723 46.6772 17.6891 46.9593 17.8972 47.1674C18.1052 47.3754 18.3874 47.4923 18.6816 47.4923Z" fill="currentColor"/>
</svg>
