<svg width="73" height="73" viewBox="0 0 73 73" fill="none" xmlns="http://www.w3.org/2000/svg">
<path d="M36.5 2.28125C29.7322 2.28125 23.1163 4.28814 17.4891 8.04815C11.8619 11.8082 7.47595 17.1524 4.88601 23.4051C2.29608 29.6577 1.61843 36.538 2.93877 43.1757C4.25911 49.8135 7.51813 55.9107 12.3037 60.6963C17.0893 65.4819 23.1865 68.7409 29.8243 70.0612C36.4621 71.3816 43.3423 70.7039 49.595 68.114C55.8476 65.5241 61.1919 61.1382 64.9519 55.5109C68.7119 49.8837 70.7188 43.2678 70.7188 36.5C70.7085 27.4278 67.1 18.7301 60.685 12.315C54.27 5.89999 45.5722 2.29151 36.5 2.28125ZM36.5 68.4375C30.1834 68.4375 24.0086 66.5644 18.7565 63.0551C13.5044 59.5457 9.41089 54.5578 6.99361 48.722C4.57634 42.8861 3.94387 36.4646 5.17619 30.2693C6.4085 24.074 9.45025 18.3833 13.9168 13.9168C18.3833 9.45024 24.0741 6.40849 30.2693 5.17617C36.4646 3.94385 42.8862 4.57632 48.722 6.9936C54.5578 9.41087 59.5457 13.5044 63.0551 18.7565C66.5644 24.0086 68.4375 30.1834 68.4375 36.5C68.4279 44.9674 65.0599 53.0852 59.0726 59.0726C53.0852 65.0599 44.9674 68.4278 36.5 68.4375Z" fill="currentColor"/>
<path d="M36.5 9.125C31.0857 9.125 25.7931 10.7305 21.2913 13.7385C16.7895 16.7465 13.2808 21.0219 11.2088 26.024C9.13686 31.0262 8.59474 36.5304 9.65102 41.8406C10.7073 47.1508 13.3145 52.0286 17.143 55.857C20.9714 59.6855 25.8492 62.2927 31.1594 63.349C36.4696 64.4053 41.9738 63.8631 46.976 61.7912C51.9781 59.7192 56.2535 56.2105 59.2615 51.7087C62.2695 47.2069 63.875 41.9143 63.875 36.5C63.8666 29.2423 60.9797 22.2843 55.8477 17.1523C50.7158 12.0203 43.7577 9.13345 36.5 9.125ZM36.5 61.5938C31.5369 61.5938 26.6853 60.122 22.5587 57.3647C18.432 54.6074 15.2157 50.6882 13.3164 46.103C11.4171 41.5177 10.9202 36.4722 11.8884 31.6045C12.8567 26.7367 15.2466 22.2655 18.7561 18.756C22.2655 15.2466 26.7368 12.8567 31.6045 11.8884C36.4722 10.9202 41.5177 11.4171 46.103 13.3164C50.6883 15.2157 54.6074 18.432 57.3647 22.5587C60.122 26.6853 61.5938 31.5369 61.5938 36.5C61.5862 43.153 58.94 49.5313 54.2356 54.2356C49.5313 58.94 43.153 61.5862 36.5 61.5938Z" fill="currentColor"/>
<path d="M37.6406 5.70312H35.3594V7.98438H37.6406V5.70312Z" fill="currentColor"/>
<path d="M29.6351 6.45L27.4316 7.04077L28.0224 9.2442L30.2258 8.65342L29.6351 6.45Z" fill="currentColor"/>
<path d="M22.0889 9.25811L20.1133 10.3988L21.254 12.3744L23.2296 11.2337L22.0889 9.25811Z" fill="currentColor"/>
<path d="M15.5291 13.9166L13.916 15.5297L15.5291 17.1428L17.1422 15.5297L15.5291 13.9166Z" fill="currentColor"/>
<path d="M10.3985 20.114L9.25781 22.0896L11.2334 23.2303L12.3741 21.2547L10.3985 20.114Z" fill="currentColor"/>
<path d="M7.04976 27.4335L6.45898 29.637L8.66241 30.2277L9.25318 28.0243L7.04976 27.4335Z" fill="currentColor"/>
<path d="M7.98438 35.3594H5.70312V37.6406H7.98438V35.3594Z" fill="currentColor"/>
<path d="M8.66055 42.7796L6.45703 43.37L7.04746 45.5735L9.25098 44.9831L8.66055 42.7796Z" fill="currentColor"/>
<path d="M11.2355 49.7704L9.25977 50.9109L10.4002 52.8866L12.3759 51.7462L11.2355 49.7704Z" fill="currentColor"/>
<path d="M15.5291 55.8576L13.916 57.4707L15.5291 59.0838L17.1422 57.4707L15.5291 55.8576Z" fill="currentColor"/>
<path d="M21.2537 60.6255L20.1133 62.6012L22.089 63.7416L23.2295 61.7659L21.2537 60.6255Z" fill="currentColor"/>
<path d="M28.0182 63.749L27.4277 65.9525L29.6313 66.5429L30.2217 64.3394L28.0182 63.749Z" fill="currentColor"/>
<path d="M37.6406 65.0156H35.3594V67.2969H37.6406V65.0156Z" fill="currentColor"/>
<path d="M45.0003 63.7416L42.7969 64.3324L43.3876 66.5358L45.5911 65.9451L45.0003 63.7416Z" fill="currentColor"/>
<path d="M51.7471 60.6251L49.7715 61.7657L50.9122 63.7413L52.8878 62.6006L51.7471 60.6251Z" fill="currentColor"/>
<path d="M57.4705 55.8572L55.8574 57.4703L57.4705 59.0834L59.0836 57.4703L57.4705 55.8572Z" fill="currentColor"/>
<path d="M61.7657 49.7703L60.625 51.7458L62.6006 52.8865L63.7413 50.911L61.7657 49.7703Z" fill="currentColor"/>
<path d="M64.3383 42.7786L63.748 44.9822L65.9516 45.5725L66.5419 43.3689L64.3383 42.7786Z" fill="currentColor"/>
<path d="M67.2969 35.3594H65.0156V37.6406H67.2969V35.3594Z" fill="currentColor"/>
<path d="M65.9535 27.4274L63.75 28.0178L64.3404 30.2213L66.5439 29.6309L65.9535 27.4274Z" fill="currentColor"/>
<path d="M62.6007 20.1137L60.625 21.2542L61.7655 23.2299L63.7412 22.0894L62.6007 20.1137Z" fill="currentColor"/>
<path d="M57.4705 13.9162L55.8574 15.5293L57.4705 17.1424L59.0836 15.5293L57.4705 13.9162Z" fill="currentColor"/>
<path d="M50.9119 9.25927L49.7715 11.235L51.7472 12.3754L52.8877 10.3997L50.9119 9.25927Z" fill="currentColor"/>
<path d="M43.3697 6.45835L42.7793 8.66187L44.9828 9.2523L45.5732 7.04878L43.3697 6.45835Z" fill="currentColor"/>
<path d="M43.3438 21.6719H41.0625V15.9688H38.7812V21.6719H34.2188V15.9688H31.9375V21.6719H25.0938V23.9531H28.5156V49.0469H25.0938V51.3281H31.9375V57.0312H34.2188V51.3281H38.7812V57.0312H41.0625V51.3281H43.3438C44.8558 51.3263 46.3053 50.7249 47.3745 49.6557C48.4436 48.5866 49.0451 47.137 49.0469 45.625V41.0625C49.0469 40.1771 48.8407 39.3039 48.4448 38.512C48.0488 37.7201 47.4739 37.0312 46.7656 36.5C47.4739 35.9688 48.0488 35.2799 48.4448 34.488C48.8407 33.6961 49.0469 32.8229 49.0469 31.9375V27.375C49.0451 25.863 48.4436 24.4134 47.3745 23.3443C46.3053 22.2751 44.8558 21.6737 43.3438 21.6719ZM46.7656 41.0625V45.625C46.7656 46.5325 46.4051 47.4029 45.7634 48.0446C45.1217 48.6864 44.2513 49.0469 43.3438 49.0469H30.7969V37.6406H43.3438C44.2513 37.6406 45.1217 38.0011 45.7634 38.6429C46.4051 39.2846 46.7656 40.155 46.7656 41.0625ZM46.7656 31.9375C46.7656 32.845 46.4051 33.7154 45.7634 34.3571C45.1217 34.9989 44.2513 35.3594 43.3438 35.3594H30.7969V23.9531H43.3438C44.2513 23.9531 45.1217 24.3136 45.7634 24.9554C46.4051 25.5971 46.7656 26.4675 46.7656 27.375V31.9375Z" fill="currentColor"/>
<path d="M4.5625 9.125H6.84375V6.84375H9.125V4.5625H6.84375V2.28125H4.5625V4.5625H2.28125V6.84375H4.5625V9.125Z" fill="currentColor"/>
<path d="M6.84375 63.875H4.5625V66.1562H2.28125V68.4375H4.5625V70.7188H6.84375V68.4375H9.125V66.1562H6.84375V63.875Z" fill="currentColor"/>
<path d="M68.4375 4.5625V2.28125H66.1562V4.5625H63.875V6.84375H66.1562V9.125H68.4375V6.84375H70.7188V4.5625H68.4375Z" fill="currentColor"/>
<path d="M68.4375 63.875H66.1562V66.1562H63.875V68.4375H66.1562V70.7188H68.4375V68.4375H70.7188V66.1562H68.4375V63.875Z" fill="currentColor"/>
</svg>
