<svg width="64" height="64" viewBox="0 0 64 64" fill="none" xmlns="http://www.w3.org/2000/svg">
<path d="M61 14H56C55.7348 14 55.4804 14.1054 55.2929 14.2929C55.1054 14.4805 55 14.7348 55 15C55 15.2653 55.1054 15.5196 55.2929 15.7072C55.4804 15.8947 55.7348 16 56 16H59.83C59.5949 16.6684 59.1308 17.2319 58.52 17.5909C57.9092 17.9499 57.1911 18.0811 56.4928 17.9613C55.7945 17.8416 55.1612 17.4785 54.7049 16.9365C54.2487 16.3945 53.9989 15.7085 54 15C54 14.7348 53.8946 14.4805 53.7071 14.2929C53.5196 14.1054 53.2652 14 53 14H51V13C51.0033 11.2543 50.5903 9.53284 49.7951 7.97863C49 6.42443 47.8457 5.08225 46.428 4.06346C45.0103 3.04467 43.3701 2.37865 41.6435 2.12067C39.9168 1.86268 38.1536 2.02016 36.5 2.58004C34.8464 2.02016 33.0832 1.86268 31.3565 2.12067C29.6299 2.37865 27.9897 3.04467 26.572 4.06346C25.1543 5.08225 24 6.42443 23.2049 7.97863C22.4097 9.53284 21.9967 11.2543 22 13V14H13C12.7348 14 12.4804 14.1054 12.2929 14.2929C12.1054 14.4805 12 14.7348 12 15V28.09C10.6035 28.3275 9.33593 29.0508 8.42103 30.1322C7.50614 31.2136 7.00283 32.5835 7 34H3C2.73478 34 2.48043 34.1054 2.29289 34.2929C2.10536 34.4805 2 34.7348 2 35V57C2 58.3261 2.52678 59.5979 3.46447 60.5356C4.40215 61.4733 5.67392 62 7 62H57C58.3261 62 59.5979 61.4733 60.5355 60.5356C61.4732 59.5979 62 58.3261 62 57V15C62 14.7348 61.8946 14.4805 61.7071 14.2929C61.5196 14.1054 61.2652 14 61 14ZM40 4.00004C42.3858 4.00375 44.6728 4.95315 46.3599 6.64017C48.0469 8.3272 48.9963 10.6142 49 13V14H44V13C43.9981 11.2421 43.5749 9.51026 42.7658 7.94958C41.9567 6.3889 40.7854 5.04484 39.35 4.03004C39.56 4.02004 39.78 4.00004 40 4.00004ZM44 23C44 23.1978 43.9414 23.3912 43.8315 23.5556C43.7216 23.7201 43.5654 23.8482 43.3827 23.9239C43.2 23.9996 42.9989 24.0194 42.8049 23.9808C42.6109 23.9422 42.4327 23.847 42.2929 23.7072C42.153 23.5673 42.0578 23.3891 42.0192 23.1951C41.9806 23.0012 42.0004 22.8001 42.0761 22.6174C42.1518 22.4346 42.28 22.2785 42.4444 22.1686C42.6089 22.0587 42.8022 22 43 22C43.2652 22 43.5196 22.1054 43.7071 22.2929C43.8946 22.4805 44 22.7348 44 23ZM42 13V14H31V13C31.0021 11.231 31.5248 9.50168 32.5028 8.02756C33.4808 6.55344 34.8709 5.39968 36.5 4.71004C38.1291 5.39968 39.5192 6.55344 40.4972 8.02756C41.4752 9.50168 41.9979 11.231 42 13ZM24 13C24.0037 10.6142 24.9531 8.3272 26.6401 6.64017C28.3272 4.95315 30.6142 4.00375 33 4.00004C33.22 4.00004 33.44 4.02004 33.65 4.03004C32.2146 5.04484 31.0432 6.3889 30.2342 7.94958C29.4251 9.51026 29.0019 11.2421 29 13V14H24V13ZM23 22C23.1978 22 23.3911 22.0587 23.5556 22.1686C23.72 22.2785 23.8482 22.4346 23.9239 22.6174C23.9996 22.8001 24.0194 23.0012 23.9808 23.1951C23.9422 23.3891 23.847 23.5673 23.7071 23.7072C23.5673 23.847 23.3891 23.9422 23.1951 23.9808C23.0011 24.0194 22.8 23.9996 22.6173 23.9239C22.4346 23.8482 22.2784 23.7201 22.1685 23.5556C22.0586 23.3912 22 23.1978 22 23C22 22.7348 22.1054 22.4805 22.2929 22.2929C22.4804 22.1054 22.7348 22 23 22ZM13 30C13.1642 30.0063 13.3279 30.023 13.49 30.05C12.5325 31.1435 12.0032 32.5466 12 34H9C9 32.9392 9.42143 31.9218 10.1716 31.1716C10.9217 30.4215 11.9391 30 13 30ZM7 60C6.20508 59.9977 5.4434 59.6808 4.8813 59.1187C4.31921 58.5566 4.00237 57.795 4 57V36H7V38C6.73478 38 6.48043 38.1054 6.29289 38.2929C6.10536 38.4805 6 38.7348 6 39C6 39.2653 6.10536 39.5196 6.29289 39.7072C6.48043 39.8947 6.73478 40 7 40H9C9.26522 40 9.51957 39.8947 9.70711 39.7072C9.89464 39.5196 10 39.2653 10 39C10 38.7348 9.89464 38.4805 9.70711 38.2929C9.51957 38.1054 9.26522 38 9 38V36H17V38C16.7348 38 16.4804 38.1054 16.2929 38.2929C16.1054 38.4805 16 38.7348 16 39C16 39.2653 16.1054 39.5196 16.2929 39.7072C16.4804 39.8947 16.7348 40 17 40H19C19.2652 40 19.5196 39.8947 19.7071 39.7072C19.8946 39.5196 20 39.2653 20 39C20 38.7348 19.8946 38.4805 19.7071 38.2929C19.5196 38.1054 19.2652 38 19 38V36H22V58C22.0028 58.705 22.1963 59.3961 22.56 60H7ZM14 34C14.0016 33.4039 14.1373 32.8158 14.397 32.2792C14.6566 31.7426 15.0336 31.2713 15.5 30.9C15.9664 31.2713 16.3434 31.7426 16.603 32.2792C16.8627 32.8158 16.9984 33.4039 17 34H14ZM17.51 30.05C17.6721 30.023 17.8358 30.0063 18 30C19.0609 30 20.0783 30.4215 20.8284 31.1716C21.5786 31.9218 22 32.9392 22 34H19C18.9968 32.5466 18.4675 31.1435 17.51 30.05ZM28 58C28 58.5305 27.7893 59.0392 27.4142 59.4143C27.0391 59.7893 26.5304 60 26 60C25.4696 60 24.9609 59.7893 24.5858 59.4143C24.2107 59.0392 24 58.5305 24 58V38.44C24.6028 38.8064 25.2946 39.0001 26 39.0001C26.7054 39.0001 27.3972 38.8064 28 38.44V58ZM29.44 60C29.8037 59.3961 29.9972 58.705 30 58V35C30 34.7348 29.8946 34.4805 29.7071 34.2929C29.5196 34.1054 29.2652 34 29 34H26C25.7348 34 25.4804 34.1054 25.2929 34.2929C25.1054 34.4805 25 34.7348 25 35C25 35.2653 25.1054 35.5196 25.2929 35.7072C25.4804 35.8947 25.7348 36 26 36H27.72C27.5012 36.3815 27.1623 36.6799 26.7562 36.8486C26.3501 37.0174 25.8996 37.047 25.4749 36.9328C25.0502 36.8186 24.6752 36.5671 24.4084 36.2175C24.1416 35.8679 23.998 35.4398 24 35V34C24.0014 32.9941 23.7495 32.004 23.2675 31.1211C22.7855 30.2381 22.089 29.4907 21.2422 28.9477C20.3954 28.4048 19.4255 28.0837 18.422 28.0142C17.4185 27.9447 16.4136 28.129 15.5 28.55C15.0214 28.3341 14.5174 28.1795 14 28.09V16H22V20.18C21.3328 20.4159 20.7704 20.8801 20.4124 21.4905C20.0543 22.1009 19.9235 22.8183 20.0432 23.5158C20.1629 24.2133 20.5253 24.846 21.0663 25.3021C21.6074 25.7583 22.2923 26.0085 23 26.0085C23.7077 26.0085 24.3926 25.7583 24.9337 25.3021C25.4747 24.846 25.8371 24.2133 25.9568 23.5158C26.0765 22.8183 25.9457 22.1009 25.5876 21.4905C25.2296 20.8801 24.6672 20.4159 24 20.18V16H42V20.18C41.3328 20.4159 40.7704 20.8801 40.4124 21.4905C40.0543 22.1009 39.9235 22.8183 40.0432 23.5158C40.1629 24.2133 40.5253 24.846 41.0663 25.3021C41.6074 25.7583 42.2923 26.0085 43 26.0085C43.7077 26.0085 44.3926 25.7583 44.9337 25.3021C45.4747 24.846 45.8371 24.2133 45.9568 23.5158C46.0765 22.8183 45.9457 22.1009 45.5876 21.4905C45.2296 20.8801 44.6672 20.4159 44 20.18V16H52V57C52.003 58.0863 52.3652 59.141 53.03 60H29.44ZM60 57C60 57.7957 59.6839 58.5588 59.1213 59.1214C58.5587 59.684 57.7957 60 57 60C56.2043 60 55.4413 59.684 54.8787 59.1214C54.3161 58.5588 54 57.7957 54 57V18.97C54.8576 19.6376 55.9133 20 57 20C58.0867 20 59.1424 19.6376 60 18.97V57Z" fill="currentColor"/>
</svg>
