<svg width="74" height="74" viewBox="0 0 74 74" fill="none" xmlns="http://www.w3.org/2000/svg">
<path d="M34.9277 16.8917C34.3429 17.3256 33.9103 17.933 33.6912 18.6273C33.4719 19.3216 33.4776 20.0674 33.7074 20.7584C33.937 21.4492 34.3789 22.05 34.9701 22.4751C35.5613 22.9 36.2716 23.1274 36.9997 23.125H45.7085L51.7407 30.3597C52.6805 31.493 53.5004 32.7205 54.1873 34.0227C54.2572 34.1585 54.3532 34.2791 54.47 34.3776C54.5867 34.4761 54.7219 34.5505 54.8675 34.5965C55.0131 34.6424 55.1664 34.6592 55.3186 34.6455C55.4708 34.6319 55.6186 34.5883 55.7538 34.5172C55.889 34.4461 56.0088 34.3489 56.1061 34.2312C56.2036 34.1137 56.2767 33.9778 56.3213 33.8318C56.3659 33.6857 56.3812 33.5323 56.3663 33.3802C56.3512 33.2282 56.3063 33.0808 56.2339 32.9462C55.4723 31.501 54.5624 30.1389 53.519 28.882L48.2095 22.5133C48.6076 22.2434 48.9445 21.8928 49.1986 21.4843C49.4525 21.0758 49.6178 20.6185 49.6837 20.142C49.7497 19.6656 49.7148 19.1806 49.5814 18.7184C49.4478 18.2563 49.2188 17.8274 48.909 17.4594L50.0583 16.3101C51.3971 14.9626 52.3662 13.2931 52.8724 11.4624C53.3787 9.63167 53.4051 7.70144 52.949 5.85759C52.8028 5.27559 52.5052 4.7427 52.0862 4.31316C51.6672 3.88364 51.1418 3.57279 50.5636 3.41229C49.9854 3.25179 49.375 3.24736 48.7946 3.39946C48.214 3.55156 47.6842 3.85474 47.2591 4.27815L47.0163 4.51981C46.8128 4.72274 46.5371 4.83669 46.2497 4.83669C45.9622 4.83669 45.6866 4.72274 45.4831 4.51981L44.269 3.3069C43.9248 2.96281 43.5106 2.69671 43.0545 2.52664C42.5985 2.35657 42.1112 2.28647 41.6257 2.32112C41.1402 2.35577 40.6677 2.49434 40.2405 2.72746C39.8133 2.96057 39.4411 3.28279 39.1491 3.67227L38.7814 4.16252C38.6886 4.28758 38.5697 4.39094 38.4329 4.46542C38.2962 4.5399 38.1448 4.58371 37.9894 4.59381C37.8347 4.60385 37.6795 4.58102 37.5343 4.52681C37.389 4.47261 37.2568 4.38826 37.1465 4.27931C36.7216 3.85409 36.1916 3.54928 35.6103 3.39599C35.0291 3.2427 34.4175 3.24644 33.8382 3.40682C33.259 3.56719 32.7325 3.87847 32.3129 4.30884C31.8933 4.73922 31.5953 5.27326 31.4497 5.85643C30.9935 7.70028 31.0199 9.63051 31.5262 11.4612C32.0324 13.2919 33.0016 14.9614 34.3403 16.3089L34.9277 16.8917ZM35.8434 19.6563C35.8434 19.3496 35.9653 19.0556 36.1821 18.8387C36.3989 18.6219 36.693 18.5 36.9997 18.5H46.2497C46.5563 18.5 46.8504 18.6219 47.0672 18.8387C47.284 19.0556 47.4059 19.3496 47.4059 19.6563C47.4059 19.9629 47.284 20.257 47.0672 20.4738C46.8504 20.6907 46.5563 20.8125 46.2497 20.8125H36.9997C36.693 20.8125 36.3989 20.6907 36.1821 20.4738C35.9653 20.257 35.8434 19.9629 35.8434 19.6563ZM33.6928 6.41837C33.7394 6.23221 33.8344 6.06173 33.9684 5.92434C34.1023 5.78694 34.2703 5.68754 34.4552 5.63628C34.6402 5.58504 34.8354 5.58375 35.021 5.63259C35.2065 5.68142 35.3758 5.77861 35.5116 5.91424C35.8558 6.2584 36.2698 6.52458 36.7259 6.69476C37.1819 6.86492 37.6691 6.93512 38.1546 6.90058C38.6401 6.86604 39.1126 6.72758 39.5398 6.49456C39.9672 6.26156 40.3395 5.93944 40.6314 5.55002L40.9991 5.05977C41.0926 4.9356 41.2115 4.83292 41.348 4.75866C41.4844 4.68441 41.6353 4.64031 41.7902 4.62935C41.9453 4.61839 42.1008 4.64082 42.2464 4.69513C42.3919 4.74944 42.5241 4.83436 42.6341 4.94415L43.8481 6.15937C44.4856 6.79526 45.3493 7.15236 46.2497 7.15236C47.15 7.15236 48.0138 6.79526 48.6512 6.15937L48.894 5.91656C49.0297 5.78093 49.199 5.68373 49.3846 5.6349C49.5702 5.58606 49.7654 5.58735 49.9504 5.63859C50.1352 5.68985 50.3032 5.78925 50.4371 5.92665C50.5711 6.06405 50.6663 6.23452 50.7128 6.42068C51.0723 7.87761 51.0506 9.40258 50.6499 10.8487C50.2491 12.2949 49.4828 13.6135 48.4246 14.6774L46.8509 16.2511C46.6527 16.2124 46.4515 16.1911 46.2497 16.1875H37.4934L35.9798 14.674C34.9221 13.61 34.1561 12.2915 33.7556 10.8456C33.3549 9.3997 33.3333 7.87503 33.6928 6.41837Z" fill="currentColor"/>
<path d="M41.6245 34.6875C42.0845 34.6875 42.5257 34.8702 42.8509 35.1954C43.1762 35.5207 43.3589 35.9619 43.3589 36.4219C43.3589 36.7285 43.4808 37.0227 43.6975 37.2395C43.9143 37.4563 44.2085 37.5781 44.5151 37.5781C44.8218 37.5781 45.1159 37.4563 45.3327 37.2395C45.5496 37.0227 45.6714 36.7285 45.6714 36.4219C45.6683 35.5535 45.3853 34.7092 44.8647 34.0142C44.344 33.3192 43.6133 32.8106 42.7808 32.5635V31.2188C42.7808 30.9121 42.659 30.618 42.4421 30.4012C42.2253 30.1844 41.9311 30.0625 41.6245 30.0625C41.3179 30.0625 41.0237 30.1844 40.8069 30.4012C40.5901 30.618 40.4683 30.9121 40.4683 31.2188V32.5635C39.5368 32.8387 38.7357 33.4406 38.2123 34.2588C37.6889 35.0769 37.4781 36.0564 37.6187 37.0175C37.7592 37.9785 38.2417 38.8566 38.9775 39.4906C39.7135 40.1246 40.6533 40.4719 41.6245 40.4688C41.9676 40.4688 42.3029 40.5705 42.5881 40.7611C42.8733 40.9516 43.0956 41.2225 43.2268 41.5394C43.3582 41.8564 43.3925 42.2051 43.3256 42.5414C43.2586 42.8779 43.0934 43.187 42.8509 43.4296C42.6084 43.672 42.2993 43.8373 41.9628 43.9042C41.6265 43.9711 41.2777 43.9367 40.9608 43.8055C40.6439 43.6742 40.373 43.4519 40.1824 43.1667C39.9919 42.8815 39.8901 42.5462 39.8901 42.2031C39.8901 41.8965 39.7684 41.6023 39.5515 41.3855C39.3347 41.1687 39.0405 41.0469 38.7339 41.0469C38.4272 41.0469 38.1331 41.1687 37.9163 41.3855C37.6995 41.6023 37.5776 41.8965 37.5776 42.2031C37.5808 43.0715 37.8637 43.9158 38.3844 44.6108C38.905 45.3058 39.6358 45.8144 40.4683 46.0615V47.4062C40.4683 47.7129 40.5901 48.007 40.8069 48.2238C41.0237 48.4406 41.3179 48.5625 41.6245 48.5625C41.9311 48.5625 42.2253 48.4406 42.4421 48.2238C42.659 48.007 42.7808 47.7129 42.7808 47.4062V46.0615C43.7122 45.7863 44.5133 45.1844 45.0367 44.3662C45.5602 43.5481 45.7709 42.5686 45.6303 41.6075C45.4899 40.6465 45.0073 39.7684 44.2715 39.1344C43.5357 38.5004 42.5958 38.1531 41.6245 38.1562C41.1646 38.1562 40.7234 37.9736 40.3981 37.6483C40.0728 37.3231 39.8901 36.8818 39.8901 36.4219C39.8901 35.9619 40.0728 35.5207 40.3981 35.1954C40.7234 34.8702 41.1646 34.6875 41.6245 34.6875Z" fill="currentColor"/>
<path d="M15.0312 63.5938C15.0312 62.9078 14.8279 62.237 14.4466 61.6666C14.0655 61.0961 13.5237 60.6516 12.89 60.3891C12.2561 60.1265 11.5586 60.0578 10.8858 60.1916C10.2129 60.3255 9.59484 60.6558 9.10972 61.141C8.62461 61.6261 8.29424 62.2442 8.16041 62.917C8.02656 63.5899 8.09525 64.2874 8.35779 64.9211C8.62034 65.555 9.06493 66.0968 9.63537 66.4779C10.2058 66.8591 10.8764 67.0625 11.5625 67.0625C12.4825 67.0625 13.3647 66.697 14.0153 66.0465C14.6658 65.396 15.0312 64.5138 15.0312 63.5938ZM10.4062 63.5938C10.4062 63.3651 10.4741 63.1416 10.6011 62.9513C10.7282 62.7613 10.9087 62.613 11.12 62.5255C11.3313 62.438 11.5638 62.4151 11.7881 62.4597C12.0124 62.5043 12.2184 62.6144 12.3801 62.7762C12.5418 62.9378 12.6519 63.1439 12.6965 63.3682C12.7412 63.5925 12.7183 63.825 12.6308 64.0363C12.5432 64.2475 12.395 64.4281 12.2049 64.5552C12.0147 64.6823 11.7912 64.75 11.5625 64.75C11.2558 64.75 10.9617 64.6281 10.7449 64.4113C10.5281 64.1945 10.4062 63.9004 10.4062 63.5938Z" fill="currentColor"/>
<path d="M50.1882 54.9346C50.0689 55.0413 49.9292 55.1229 49.7776 55.1743C49.626 55.2258 49.4656 55.2461 49.306 55.2341L46.9611 55.0306C46.9335 53.9642 46.5387 52.9399 45.8436 52.1306C45.1486 51.3213 44.1956 50.7766 43.1455 50.5883L31.7576 48.581C31.6897 48.5687 31.6208 48.5624 31.5518 48.5625H27.3523C26.8568 47.0706 26.6007 45.5096 26.5938 43.9375C26.6002 42.9382 26.6775 41.9406 26.825 40.9521C28.9231 39.8186 30.7216 38.2023 32.0715 36.2364C33.4215 34.2707 34.2844 32.0119 34.589 29.6466C34.8935 27.2814 34.631 24.8778 33.8229 22.6341C33.0149 20.3904 31.6846 18.3712 29.942 16.7432C28.1994 15.1153 26.0945 13.9253 23.8011 13.2717C21.5076 12.618 19.0917 12.5193 16.7527 12.9839C14.4136 13.4485 12.2187 14.4629 10.3491 15.9433C8.47961 17.4238 6.98917 19.3279 6.00094 21.4982C5.88257 21.7755 5.87721 22.088 5.98598 22.3692C6.09474 22.6504 6.30904 22.8781 6.5832 23.0035C6.85735 23.129 7.16967 23.1424 7.45358 23.0409C7.73749 22.9393 7.97052 22.731 8.103 22.4602C9.43478 19.5804 11.7995 17.3059 14.7289 16.0869C17.6582 14.868 20.9385 14.7938 23.92 15.8788C26.9017 16.9638 29.3669 19.1291 30.8277 21.9457C32.2884 24.7623 32.638 28.0246 31.8074 31.0869C30.9767 34.1491 29.0264 36.7875 26.3425 38.4798C23.6587 40.1721 20.4372 40.7947 17.316 40.2243C14.1949 39.654 11.4018 37.9322 9.48994 35.4001C7.5781 32.8679 6.68694 29.7102 6.993 26.5522C7.00968 26.3998 6.99589 26.2455 6.95242 26.0984C6.90894 25.9514 6.83664 25.8145 6.73974 25.6956C6.64284 25.5767 6.52326 25.4785 6.38798 25.4062C6.2527 25.334 6.10441 25.2894 5.95174 25.2751C5.79907 25.2607 5.64508 25.2769 5.49872 25.3227C5.35236 25.3684 5.21656 25.4429 5.09922 25.5416C4.98189 25.6402 4.88536 25.7614 4.81526 25.8977C4.74517 26.0342 4.7029 26.1831 4.69091 26.3359C4.45252 28.8227 4.83877 31.3297 5.8146 33.6293C6.79044 35.9291 8.32498 37.9487 10.279 39.5053C12.2331 41.0617 14.5448 42.1057 17.0045 42.5425C19.4642 42.9792 21.9941 42.795 24.3645 42.0066C24.3102 42.6541 24.2812 43.2993 24.2812 43.9375C24.2871 44.7114 24.3459 45.4841 24.457 46.25H19.6562V45.0938C19.6562 44.7871 19.5344 44.493 19.3176 44.2762C19.1008 44.0594 18.8066 43.9375 18.5 43.9375H3.46875C3.16209 43.9375 2.868 44.0594 2.65115 44.2762C2.43432 44.493 2.3125 44.7871 2.3125 45.0938C2.3125 45.4004 2.43432 45.6946 2.65115 45.9114C2.868 46.1282 3.16209 46.25 3.46875 46.25H17.3438V53.1875C17.3438 53.4942 17.4656 53.7883 17.6824 54.0051C17.8992 54.2219 18.1934 54.3438 18.5 54.3438C18.8066 54.3438 19.1008 54.2219 19.3176 54.0051C19.5344 53.7883 19.6562 53.4942 19.6562 53.1875V48.5625H24.5668V67.0625H19.6562V57.8125C19.6562 57.5059 19.5344 57.2117 19.3176 56.9949C19.1008 56.7781 18.8066 56.6563 18.5 56.6563C18.1934 56.6563 17.8992 56.7781 17.6824 56.9949C17.4656 57.2117 17.3438 57.5059 17.3438 57.8125V69.375H3.46875C3.16209 69.375 2.868 69.4969 2.65115 69.7137C2.43432 69.9305 2.3125 70.2246 2.3125 70.5313C2.3125 70.8379 2.43432 71.1321 2.65115 71.3489C2.868 71.5657 3.16209 71.6875 3.46875 71.6875H18.5C18.8066 71.6875 19.1008 71.5657 19.3176 71.3489C19.5344 71.1321 19.6562 70.8379 19.6562 70.5313V69.375H25.7231C26.0297 69.375 26.3239 69.2532 26.5407 69.0364C26.7575 68.8196 26.8793 68.5254 26.8793 68.2188V50.875H31.45L42.7385 52.8649C43.0418 52.9202 43.331 53.0356 43.5891 53.2043C43.8472 53.373 44.069 53.5915 44.2414 53.8472C44.4138 54.1028 44.5332 54.3904 44.5929 54.6928C44.6524 54.9954 44.651 55.3068 44.5885 55.6087L44.5376 55.7937C44.3791 56.338 44.0255 56.8049 43.5445 57.1049C43.0635 57.4051 42.4888 57.5173 41.9302 57.4206L34.0123 56.0238C33.7102 55.9705 33.3993 56.0393 33.148 56.2152C32.8967 56.391 32.7255 56.6595 32.6722 56.9615C32.6189 57.2635 32.6877 57.5745 32.8635 57.8258C33.0394 58.0771 33.3079 58.2483 33.6099 58.3016L41.5279 59.6984C42.4898 59.8687 43.4808 59.7284 44.3577 59.2978C45.2345 58.8674 45.9515 58.169 46.4049 57.3038L49.1013 57.535C49.5803 57.5778 50.0631 57.5201 50.5184 57.3653C50.9739 57.2106 51.3918 56.9625 51.7457 56.6366L58.5976 50.3547C58.8293 50.1418 59.1021 49.9785 59.3991 49.8746C59.6961 49.7708 60.0113 49.7286 60.3253 49.7508C60.6391 49.773 60.9452 49.859 61.2247 50.0037C61.5042 50.1482 61.7513 50.3484 61.9507 50.5918C62.3161 51.088 62.4811 51.7037 62.4126 52.3162C62.3443 52.9286 62.0477 53.4928 61.5819 53.8963L51.4069 63.2272C50.3415 64.2074 48.9464 64.7511 47.4988 64.75H30.3469C30.0403 64.75 29.7462 64.8719 29.5294 65.0887C29.3126 65.3055 29.1907 65.5996 29.1907 65.9063C29.1907 66.2129 29.3126 66.5071 29.5294 66.7239C29.7462 66.9407 30.0403 67.0625 30.3469 67.0625H47.4988C49.5237 67.0644 51.4754 66.305 52.9667 64.935L63.1417 55.6052C64.051 54.8059 64.6191 53.6883 64.7291 52.4827C64.839 51.2769 64.4823 50.075 63.7325 49.1245C63.1206 48.3763 62.2885 47.8402 61.3542 47.5925C60.42 47.3449 59.4315 47.3983 58.5294 47.7451C58.818 46.4963 58.9654 45.2191 58.9688 43.9375C58.9688 41.7429 58.6573 39.5593 58.0438 37.4521C58.0033 37.3041 57.9338 37.1656 57.8393 37.0447C57.7447 36.9237 57.6272 36.8229 57.4933 36.7479C57.3594 36.6729 57.2118 36.6253 57.0593 36.6079C56.9069 36.5905 56.7524 36.6037 56.6051 36.6466C56.4577 36.6895 56.3205 36.7613 56.2011 36.8578C56.0818 36.9544 55.9828 37.0737 55.9101 37.2087C55.8374 37.3439 55.7923 37.4921 55.7775 37.645C55.7627 37.7977 55.7784 37.9519 55.8237 38.0985C56.3755 39.9958 56.6558 41.9616 56.6562 43.9375C56.6579 46.0912 56.1895 48.2192 55.2838 50.1732L50.1882 54.9346Z" fill="currentColor"/>
<path d="M22.1085 30.2036C21.6235 30.6888 21.2932 31.3069 21.1594 31.9797C21.0256 32.6525 21.0943 33.35 21.3569 33.9837C21.6195 34.6176 22.064 35.1593 22.6344 35.5404C23.2049 35.9215 23.8755 36.125 24.5615 36.125C25.2475 36.125 25.9182 35.9215 26.4887 35.5404C27.059 35.1593 27.5036 34.6176 27.7662 33.9837C28.0288 33.35 28.0975 32.6525 27.9637 31.9797C27.8299 31.3069 27.4996 30.6888 27.0145 30.2036C26.6924 29.8815 26.31 29.6259 25.8891 29.4516C25.4683 29.2772 25.0171 29.1875 24.5615 29.1875C24.106 29.1875 23.6548 29.2772 23.2339 29.4516C22.8131 29.6259 22.4307 29.8815 22.1085 30.2036ZM25.3796 33.4735C25.2179 33.6352 25.0119 33.7454 24.7876 33.7901C24.5633 33.8347 24.3307 33.8118 24.1195 33.7243C23.9081 33.6369 23.7275 33.4886 23.6005 33.2984C23.4734 33.1083 23.4056 32.8847 23.4056 32.656C23.4056 32.4273 23.4734 32.2038 23.6005 32.0136C23.7275 31.8235 23.9081 31.6753 24.1195 31.5878C24.3307 31.5002 24.5633 31.4775 24.7876 31.5221C25.0119 31.5667 25.2179 31.6768 25.3796 31.8385C25.5964 32.0553 25.7181 32.3495 25.7181 32.656C25.7181 32.9627 25.5964 33.2567 25.3796 33.4735Z" fill="currentColor"/>
<path d="M25.3801 20.3916L12.2982 33.4734C12.1878 33.58 12.0997 33.7077 12.0391 33.8487C11.9785 33.9898 11.9466 34.1415 11.9454 34.2951C11.944 34.4486 11.9732 34.6009 12.0314 34.743C12.0895 34.885 12.1753 35.0141 12.2839 35.1227C12.3925 35.2313 12.5216 35.3171 12.6637 35.3752C12.8057 35.4334 12.958 35.4626 13.1116 35.4613C13.2651 35.46 13.4168 35.4281 13.5579 35.3675C13.6989 35.3069 13.8266 35.2188 13.9332 35.1084L27.015 22.0266C27.2257 21.8085 27.3422 21.5164 27.3396 21.2133C27.3369 20.9101 27.2153 20.6201 27.0009 20.4057C26.7865 20.1914 26.4965 20.0697 26.1934 20.0671C25.8902 20.0644 25.5981 20.181 25.3801 20.3916Z" fill="currentColor"/>
<path d="M12.298 20.3916C11.8129 20.8768 11.4826 21.4948 11.3488 22.1677C11.215 22.8405 11.2838 23.538 11.5463 24.1717C11.8089 24.8056 12.2535 25.3473 12.824 25.7284C13.3943 26.1095 14.065 26.3129 14.751 26.3129C15.437 26.3129 16.1076 26.1095 16.6781 25.7284C17.2485 25.3473 17.693 24.8056 17.9556 24.1717C18.2182 23.538 18.2869 22.8405 18.1531 22.1677C18.0193 21.4948 17.689 20.8768 17.204 20.3916C16.8818 20.0695 16.4994 19.8138 16.0786 19.6395C15.6577 19.4652 15.2065 19.3754 14.751 19.3754C14.2954 19.3754 13.8444 19.4652 13.4234 19.6395C13.0025 19.8138 12.6201 20.0695 12.298 20.3916ZM15.569 23.6615C15.4074 23.8232 15.2013 23.9334 14.977 23.9781C14.7527 24.0227 14.5202 23.9998 14.3089 23.9123C14.0976 23.8247 13.917 23.6766 13.7899 23.4864C13.6629 23.2962 13.5951 23.0727 13.5951 22.844C13.5951 22.6153 13.6629 22.3918 13.7899 22.2016C13.917 22.0114 14.0976 21.8633 14.3089 21.7757C14.5202 21.6882 14.7527 21.6653 14.977 21.71C15.2013 21.7546 15.4074 21.8648 15.569 22.0265C15.7858 22.2433 15.9076 22.5374 15.9076 22.844C15.9076 23.1506 15.7858 23.4447 15.569 23.6615Z" fill="currentColor"/>
<path d="M65.9059 20.8125C65.5993 20.8125 65.3051 20.9343 65.0884 21.1511C64.8716 21.368 64.7497 21.6621 64.7497 21.9687V27.75H60.1247V17.3437C60.1247 17.0371 60.0029 16.743 59.786 16.5261C59.5692 16.3093 59.2751 16.1875 58.9684 16.1875H57.4653L62.4372 11.929L67.4091 16.1875H65.9059C65.5993 16.1875 65.3051 16.3093 65.0884 16.5261C64.8716 16.743 64.7497 17.0371 64.7497 17.3437C64.7497 17.6505 64.8716 17.9445 65.0884 18.1613C65.3051 18.3782 65.5993 18.5 65.9059 18.5H70.5309C70.767 18.4997 70.9974 18.4272 71.191 18.2922C71.3847 18.1571 71.5324 17.966 71.6142 17.7446C71.6961 17.523 71.7082 17.2819 71.6489 17.0534C71.5896 16.8248 71.4617 16.6199 71.2825 16.4661L63.1888 9.52867C62.9794 9.34953 62.7128 9.2511 62.4372 9.2511C62.1617 9.2511 61.895 9.34953 61.6856 9.52867L53.5919 16.4661C53.4127 16.6199 53.2849 16.8248 53.2256 17.0534C53.1663 17.2819 53.1783 17.523 53.2601 17.7446C53.342 17.966 53.4897 18.1571 53.6833 18.2922C53.877 18.4272 54.1073 18.4997 54.3434 18.5H57.8122V28.9062C57.8122 29.213 57.9341 29.507 58.1509 29.7238C58.3676 29.9407 58.6618 30.0625 58.9684 30.0625H65.9059C66.2126 30.0625 66.5067 29.9407 66.7235 29.7238C66.9404 29.507 67.0622 29.213 67.0622 28.9062V21.9687C67.0622 21.6621 66.9404 21.368 66.7235 21.1511C66.5067 20.9343 66.2126 20.8125 65.9059 20.8125Z" fill="currentColor"/>
<path d="M65.9062 32.375C65.5996 32.375 65.3055 32.4969 65.0887 32.7137C64.8719 32.9305 64.75 33.2246 64.75 33.5312V45.0938C64.75 45.4004 64.8719 45.6945 65.0887 45.9113C65.3055 46.1281 65.5996 46.25 65.9062 46.25C66.2129 46.25 66.507 46.1281 66.7238 45.9113C66.9406 45.6945 67.0625 45.4004 67.0625 45.0938V33.5312C67.0625 33.2246 66.9406 32.9305 66.7238 32.7137C66.507 32.4969 66.2129 32.375 65.9062 32.375Z" fill="currentColor"/>
<path d="M70.5312 40.4688C70.2246 40.4688 69.9305 40.5906 69.7137 40.8074C69.4969 41.0242 69.375 41.3184 69.375 41.625V55.5C69.375 55.8066 69.4969 56.1008 69.7137 56.3176C69.9305 56.5344 70.2246 56.6562 70.5312 56.6562C70.8379 56.6562 71.132 56.5344 71.3488 56.3176C71.5656 56.1008 71.6875 55.8066 71.6875 55.5V41.625C71.6875 41.3184 71.5656 41.0242 71.3488 40.8074C71.132 40.5906 70.8379 40.4688 70.5312 40.4688Z" fill="currentColor"/>
<path d="M62.4375 37V33.5312C62.4375 33.2246 62.3156 32.9305 62.0988 32.7137C61.882 32.4969 61.5879 32.375 61.2812 32.375C60.9746 32.375 60.6805 32.4969 60.4637 32.7137C60.2469 32.9305 60.125 33.2246 60.125 33.5312V37C60.125 37.3066 60.2469 37.6008 60.4637 37.8176C60.6805 38.0344 60.9746 38.1562 61.2812 38.1562C61.5879 38.1562 61.882 38.0344 62.0988 37.8176C62.3156 37.6008 62.4375 37.3066 62.4375 37Z" fill="currentColor"/>
</svg>
