<svg width="80" height="80" viewBox="0 0 80 80" fill="none" xmlns="http://www.w3.org/2000/svg">
<path d="M25.4621 7.31127C33.1924 4.24502 41.8017 4.24502 49.5321 7.31127C53.6339 8.94128 57.3587 11.3937 60.4771 14.5176C60.5931 14.6339 60.7309 14.7263 60.8827 14.7894C61.0344 14.8526 61.1972 14.8851 61.3616 14.8853C61.5259 14.8856 61.6887 14.8534 61.8407 14.7908C61.9926 14.7281 62.1307 14.6361 62.2471 14.5201C62.3634 14.4039 62.4558 14.2662 62.5189 14.1143C62.5821 13.9626 62.6147 13.7999 62.6149 13.6356C62.6151 13.4712 62.5829 13.3084 62.5203 13.1564C62.4576 13.0046 62.3656 12.8664 62.2496 12.7501C58.8929 9.38768 54.8842 6.74733 50.4696 4.99127H50.4633C42.1372 1.68878 32.8644 1.68878 24.5383 4.99127C24.2328 5.11567 23.9888 5.35578 23.8597 5.65928C23.7304 5.96277 23.7264 6.30503 23.8484 6.61148C23.9704 6.91793 24.2087 7.16371 24.5112 7.29526C24.8137 7.42681 25.1559 7.43347 25.4633 7.31377L25.4621 7.31127Z" fill="currentColor"/>
<path d="M25.4636 67.6873C17.4571 64.4951 11.0466 58.2531 7.64241 50.3343C4.23816 42.4156 4.119 33.469 7.31114 25.4623C7.43084 25.155 7.42417 24.8128 7.29262 24.5103C7.16107 24.2078 6.9153 23.9696 6.60885 23.8476C6.3024 23.7255 5.96014 23.7295 5.65665 23.8587C5.35315 23.988 5.11304 24.2318 4.98864 24.5373C1.55106 33.1596 1.67929 42.7942 5.34512 51.3218C9.01096 59.8496 15.9141 66.5718 24.5361 70.0098C24.6886 70.0708 24.8516 70.1012 25.0159 70.0991C25.18 70.0971 25.3423 70.0626 25.4931 69.9978C25.6441 69.9331 25.7808 69.8392 25.8954 69.7216C26.01 69.604 26.1003 69.465 26.1611 69.3123C26.2221 69.16 26.2524 68.9968 26.2504 68.8327C26.2483 68.6685 26.2139 68.5063 26.1491 68.3553C26.0844 68.2045 25.9904 68.0678 25.8729 67.9532C25.7553 67.8386 25.6161 67.7482 25.4636 67.6873Z" fill="currentColor"/>
<path d="M70 37.4998C70 37.8315 70.1317 38.1493 70.3661 38.3838C70.6005 38.6182 70.9185 38.7498 71.25 38.7498C71.5815 38.7498 71.8995 38.6182 72.1338 38.3838C72.3682 38.1493 72.5 37.8315 72.5 37.4998C72.5021 33.0601 71.6573 28.6607 70.0112 24.5373C69.8868 24.2318 69.6467 23.988 69.3432 23.8587C69.0397 23.7295 68.6975 23.7255 68.391 23.8476C68.0846 23.9696 67.8387 24.2078 67.7072 24.5103C67.5757 24.8128 67.569 25.155 67.6887 25.4623C69.2177 29.2913 70.0021 33.377 70 37.4998Z" fill="currentColor"/>
<path d="M67.5 57.5H45C43.1642 57.5027 41.3646 58.0102 39.798 58.9669C38.2314 59.9238 36.9581 61.293 36.1175 62.925C36.0865 62.8337 36.0445 62.7463 35.9925 62.665C33.2 59.0475 31.25 48.6988 31.25 37.5C31.2282 32.9955 31.5567 28.4962 32.2325 24.0425C35.7354 23.6525 39.2709 23.6525 42.7738 24.0425C43.206 26.8658 43.4902 29.7097 43.625 32.5625C43.6416 32.894 43.7891 33.2054 44.0354 33.4282C44.1572 33.5384 44.2996 33.6235 44.4544 33.6788C44.6092 33.734 44.7734 33.7583 44.9375 33.75C45.1016 33.7418 45.2626 33.7014 45.4111 33.6309C45.5596 33.5605 45.6927 33.4617 45.8031 33.3398C45.9134 33.2179 45.9985 33.0754 46.0537 32.9207C46.109 32.7659 46.1332 32.6017 46.125 32.4375C45.9937 29.7988 45.7412 27.0538 45.3587 24.4075C47.6651 24.7928 49.933 25.3805 52.1362 26.1638C53.0956 29.4435 53.625 32.8339 53.7112 36.25H36.25C35.9185 36.25 35.6005 36.3818 35.3661 36.6162C35.1317 36.8505 35 37.1685 35 37.5V56.25C35 56.5815 35.1317 56.8995 35.3661 57.1339C35.6005 57.3683 35.9185 57.5 36.25 57.5C36.5815 57.5 36.8995 57.3683 37.1339 57.1339C37.3682 56.8995 37.5 56.5815 37.5 56.25V38.75H43.75V42.5C43.75 42.8315 43.8817 43.1495 44.1161 43.3839C44.3505 43.6183 44.6685 43.75 45 43.75H56.25C56.5815 43.75 56.8995 43.6183 57.1339 43.3839C57.3682 43.1495 57.5 42.8315 57.5 42.5V38.75H63.75V53.75C63.75 54.0815 63.8817 54.3995 64.1161 54.6339C64.3505 54.8683 64.6685 55 65 55C65.3315 55 65.6495 54.8683 65.8839 54.6339C66.1182 54.3995 66.25 54.0815 66.25 53.75V37.5C66.2515 31.9157 64.6265 26.4517 61.5736 21.7757C58.5207 17.0995 54.1721 13.4138 49.059 11.1686C43.9457 8.92336 38.2894 8.21587 32.7807 9.13255C27.272 10.0492 22.1496 12.5504 18.0391 16.3305C13.9285 20.1105 11.0079 25.006 9.63384 30.4187C8.25981 35.8314 8.4919 41.5272 10.3018 46.8102C12.1116 52.0932 15.4209 56.7348 19.8254 60.1679C24.2297 63.601 29.5387 65.677 35.1037 66.1425C34.8972 67.5584 34.9992 69.002 35.4027 70.3748C35.8064 71.7475 36.502 73.0167 37.4419 74.0954C38.3819 75.1742 39.544 76.0369 40.8485 76.6247C42.153 77.2123 43.5692 77.5109 45 77.5C46.7526 77.493 48.4729 77.028 49.9902 76.1509C51.5076 75.2738 52.7692 74.0153 53.65 72.5H55C55.3315 72.5 55.6495 72.3683 55.8839 72.1339C56.1182 71.8995 56.25 71.5815 56.25 71.25C56.25 70.9185 56.1182 70.6005 55.8839 70.3662C55.6495 70.1318 55.3315 70 55 70H52.8962C52.6606 70.0007 52.43 70.0679 52.231 70.194C52.0319 70.32 51.8725 70.4998 51.7712 70.7125C51.1962 71.9257 50.3061 72.9622 49.1937 73.7139C48.0815 74.4657 46.7877 74.9052 45.4477 74.9863C44.1076 75.0675 42.7704 74.7875 41.5754 74.1755C40.3805 73.5637 39.3717 72.6422 38.6544 71.5073C37.9371 70.3724 37.5375 69.0659 37.4975 67.724C37.4574 66.382 37.7782 65.054 38.4265 63.8784C39.0747 62.7028 40.0267 61.7227 41.183 61.0405C42.3392 60.3583 43.6575 59.999 45 60H67.5C68.8426 59.9983 70.1612 60.357 71.3179 61.0388C72.4746 61.7207 73.4271 62.7004 74.0759 63.8759C74.7247 65.0514 75.046 66.3795 75.0064 67.7217C74.9667 69.0638 74.5675 70.3705 73.8504 71.5057C73.1332 72.6408 72.1245 73.5627 70.9296 74.1749C69.7346 74.7872 68.3972 75.0674 67.057 74.9864C65.7167 74.9053 64.4229 74.466 63.3104 73.7142C62.1979 72.9624 61.3076 71.9258 60.7325 70.7125C60.59 70.413 60.3342 70.1824 60.0216 70.0714C59.709 69.9604 59.3651 69.9782 59.0656 70.1207C58.7661 70.2632 58.5355 70.5189 58.4245 70.8315C58.3135 71.1442 58.3312 71.488 58.4737 71.7875C59.2411 73.4045 60.4285 74.7859 61.9117 75.7875C63.3951 76.7892 65.1201 77.3743 66.9066 77.4819C68.6932 77.5895 70.476 77.2157 72.0689 76.3994C73.6616 75.583 75.0062 74.3542 75.9621 72.841C76.9181 71.3279 77.4505 69.5859 77.5036 67.7968C77.5567 66.0078 77.1286 64.2373 76.2642 62.67C75.3997 61.1028 74.1305 59.7964 72.5889 58.887C71.0472 57.9775 69.2899 57.4987 67.5 57.5ZM33.085 62.7388C29.275 60.9975 26.0312 57.0763 23.91 51.8488C25.9279 52.4432 27.9856 52.8932 30.0675 53.195C30.5841 56.5108 31.6015 59.7288 33.085 62.7388ZM29.64 50.6038C27.3384 50.2285 25.0745 49.65 22.875 48.875C21.908 45.5834 21.3747 42.1797 21.2887 38.75H23.75C24.0815 38.75 24.3995 38.6183 24.6339 38.3839C24.8682 38.1495 25 37.8315 25 37.5C25 37.1685 24.8682 36.8505 24.6339 36.6162C24.3995 36.3818 24.0815 36.25 23.75 36.25H21.2887C21.3757 32.8338 21.906 29.4434 22.8662 26.1638C25.0675 25.3838 27.3327 24.7982 29.6362 24.4138C29.0346 28.7498 28.7385 33.1225 28.75 37.5C28.735 41.8835 29.0324 46.2625 29.64 50.6038ZM11.375 36.25C12 32.7813 15.2125 29.6388 19.9612 27.375C19.252 30.2828 18.8551 33.258 18.7775 36.25H11.375ZM18.7775 38.75C18.856 41.7588 19.2566 44.7504 19.9725 47.6738C15.1662 45.3863 11.9925 42.2063 11.375 38.75H18.7775ZM33.0812 12.2625C31.5967 15.262 30.5807 18.4714 30.0687 21.7788C27.9906 22.0772 25.9366 22.5242 23.9225 23.1163C26.0437 17.9075 29.2812 14 33.0812 12.2625ZM37.5 21.25C35.8587 21.25 34.2562 21.3275 32.6975 21.47C34.0087 15 35.9612 11.25 37.5 11.25C38.9587 11.25 40.98 14.7563 42.3262 21.4725C40.7587 21.3288 39.1487 21.25 37.5 21.25ZM44.925 21.7775C44.4161 18.4788 43.4115 15.2759 41.945 12.2775C45.7337 14.0275 48.9612 17.9238 51.0775 23.12C49.0614 22.5262 47.0052 22.0774 44.925 21.7775ZM55.05 27.3725C59.8 29.6388 63.0062 32.7813 63.6362 36.2475H56.2287C56.1509 33.2564 55.7541 30.282 55.045 27.375L55.05 27.3725ZM55 41.25H46.25V38.75H55V41.25ZM62.4125 29.28C60.0089 27.0375 57.1831 25.2954 54.1 24.155C52.7891 20.0705 50.5537 16.3434 47.5675 13.2638C51.0424 14.718 54.1654 16.9 56.7261 19.6628C59.2869 22.4255 61.2259 25.7049 62.4125 29.28ZM27.4325 13.265C24.4462 16.3447 22.2109 20.0718 20.9 24.1563C17.8167 25.2967 14.9911 27.0388 12.5875 29.2813C13.7741 25.7062 15.7131 22.4268 18.2739 19.664C20.8346 16.9013 23.9576 14.7193 27.4325 13.265ZM12.5575 45.64C14.9632 47.8947 17.7936 49.6479 20.8837 50.7975C22.1936 54.9015 24.4354 58.6468 27.4337 61.74C23.9436 60.2803 20.8085 58.0864 18.2414 55.3074C15.6744 52.5285 13.7354 49.2298 12.5562 45.635L12.5575 45.64Z" fill="currentColor"/>
<path d="M45 71.875C45.3315 71.875 45.6495 71.7432 45.8839 71.5089C46.1182 71.2745 46.25 70.9565 46.25 70.625V68.75H48.125C48.4565 68.75 48.7745 68.6182 49.0089 68.3839C49.2432 68.1495 49.375 67.8315 49.375 67.5C49.375 67.1685 49.2432 66.8505 49.0089 66.6161C48.7745 66.3818 48.4565 66.25 48.125 66.25H46.25V64.375C46.25 64.0435 46.1182 63.7255 45.8839 63.4911C45.6495 63.2568 45.3315 63.125 45 63.125C44.6685 63.125 44.3505 63.2568 44.1161 63.4911C43.8818 63.7255 43.75 64.0435 43.75 64.375V66.25H41.875C41.5435 66.25 41.2255 66.3818 40.9911 66.6161C40.7568 66.8505 40.625 67.1685 40.625 67.5C40.625 67.8315 40.7568 68.1495 40.9911 68.3839C41.2255 68.6182 41.5435 68.75 41.875 68.75H43.75V70.625C43.75 70.9565 43.8818 71.2745 44.1161 71.5089C44.3505 71.7432 44.6685 71.875 45 71.875Z" fill="currentColor"/>
<path d="M67.5 65C68.1904 65 68.75 64.4404 68.75 63.75C68.75 63.0596 68.1904 62.5 67.5 62.5C66.8096 62.5 66.25 63.0596 66.25 63.75C66.25 64.4404 66.8096 65 67.5 65Z" fill="currentColor"/>
<path d="M67.5 71.25C68.1904 71.25 68.75 70.6904 68.75 70C68.75 69.3096 68.1904 68.75 67.5 68.75C66.8096 68.75 66.25 69.3096 66.25 70C66.25 70.6904 66.8096 71.25 67.5 71.25Z" fill="currentColor"/>
<path d="M64.375 68.125C65.0654 68.125 65.625 67.5654 65.625 66.875C65.625 66.1846 65.0654 65.625 64.375 65.625C63.6846 65.625 63.125 66.1846 63.125 66.875C63.125 67.5654 63.6846 68.125 64.375 68.125Z" fill="currentColor"/>
<path d="M70.625 68.125C71.3154 68.125 71.875 67.5654 71.875 66.875C71.875 66.1846 71.3154 65.625 70.625 65.625C69.9346 65.625 69.375 66.1846 69.375 66.875C69.375 67.5654 69.9346 68.125 70.625 68.125Z" fill="currentColor"/>
<path d="M11.25 16.25C11.9917 16.25 12.7168 16.0301 13.3334 15.618C13.9501 15.206 14.4307 14.6202 14.7145 13.9351C14.9984 13.2499 15.0726 12.4958 14.928 11.7684C14.7832 11.041 14.4261 10.3728 13.9016 9.84835C13.3772 9.3239 12.709 8.96675 11.9816 8.82206C11.2542 8.67736 10.5002 8.75162 9.81494 9.03545C9.12971 9.31929 8.54405 9.79992 8.13199 10.4166C7.71994 11.0333 7.5 11.7583 7.5 12.5C7.5 13.4946 7.89509 14.4484 8.59835 15.1516C9.30161 15.8549 10.2554 16.25 11.25 16.25ZM11.25 11.25C11.4972 11.25 11.7389 11.3233 11.9445 11.4607C12.15 11.598 12.3102 11.7932 12.4048 12.0216C12.4995 12.25 12.5243 12.5014 12.476 12.7439C12.4278 12.9864 12.3087 13.2091 12.1339 13.3839C11.9591 13.5587 11.7363 13.6777 11.4939 13.726C11.2514 13.7742 11.0001 13.7495 10.7717 13.6549C10.5432 13.5602 10.348 13.4 10.2107 13.1945C10.0733 12.9889 10 12.7472 10 12.5C10 12.1685 10.1317 11.8505 10.3661 11.6161C10.6005 11.3817 10.9185 11.25 11.25 11.25Z" fill="currentColor"/>
<path d="M41.25 51.25C40.9185 51.25 40.6005 51.3818 40.3661 51.6161C40.1318 51.8505 40 52.1685 40 52.5C40 52.8315 40.1318 53.1495 40.3661 53.3839C40.6005 53.6182 40.9185 53.75 41.25 53.75H60C60.3315 53.75 60.6495 53.6182 60.8839 53.3839C61.1182 53.1495 61.25 52.8315 61.25 52.5V47.5C61.25 47.1685 61.1182 46.8505 60.8839 46.6161C60.6495 46.3818 60.3315 46.25 60 46.25H41.25C40.9185 46.25 40.6005 46.3818 40.3661 46.6161C40.1318 46.8505 40 47.1685 40 47.5C40 47.8315 40.1318 48.1495 40.3661 48.3839C40.6005 48.6182 40.9185 48.75 41.25 48.75H58.75V51.25H41.25Z" fill="currentColor"/>
</svg>
