<svg width="77" height="77" viewBox="0 0 77 77" fill="none" xmlns="http://www.w3.org/2000/svg">
<g clip-path="url(#clip0_374_104)">
<path d="M71.3744 44.6059L73.0756 42.9047L70.5238 40.3529L69.6732 39.5023L73.9262 35.248L74.7768 36.0986L76.4781 34.3974L74.7768 32.6962L71.3744 29.2937L69.6732 27.5925L67.972 29.2937L68.8226 30.1444L64.5683 34.3974L63.7177 33.5468L61.1659 30.995L59.4647 32.6962L61.1659 34.3974L43.2995 52.2638C42.8291 52.7342 42.8291 53.4946 43.2995 53.965L44.1513 54.8168L39.897 59.0711C39.4266 59.5415 39.4266 60.3019 39.897 60.7723L40.7476 61.6229L27.9873 74.3821L29.6885 76.0833L42.4489 63.3229L43.2995 64.1735C43.5341 64.4082 43.8421 64.5261 44.1501 64.5261C44.4581 64.5261 44.7661 64.4082 45.0007 64.1735L49.2549 59.9193L50.1068 60.7711C50.3414 61.0057 50.6494 61.1236 50.9574 61.1236C51.2654 61.1236 51.5734 61.0057 51.808 60.7711L69.6744 42.9047L71.3744 44.6059ZM70.5238 31.8456L72.225 33.5468L67.972 37.801L66.2695 36.0986L70.5238 31.8456ZM44.1501 61.6217L42.4489 59.9205L45.8525 56.5169L47.5537 58.2181L44.1501 61.6217ZM50.9574 58.2193L50.1092 57.3711C50.108 57.3699 50.108 57.3687 50.1068 57.3675L46.7043 53.965C46.7031 53.9638 46.7019 53.9638 46.7007 53.9626L45.8525 53.1144L48.4055 50.5614L50.9586 53.1144L52.6598 51.4132L50.1068 48.8602L51.808 47.1589L54.3598 49.712L56.061 48.0108L53.5092 45.4577L55.2104 43.7565L57.7634 46.3083L59.4647 44.6071L56.9116 42.0553L58.6129 40.3541L61.1659 42.9071L62.8671 41.2059L60.3141 38.6529L62.8671 36.0998L63.7177 36.9504L67.1214 40.3541L67.972 41.2047L50.9574 58.2193Z" fill="currentColor"/>
<path d="M36.0938 53.5391V21.6562C36.0938 19.6663 37.7132 18.0469 39.7031 18.0469H44.5866C45.187 23.4525 49.7793 27.6719 55.3438 27.6719C61.3149 27.6719 66.1719 22.8149 66.1719 16.8438C66.1719 10.8726 61.3149 6.01562 55.3438 6.01562C49.7793 6.01562 45.187 10.235 44.5866 15.6406H39.7031C36.3861 15.6406 33.6875 18.3392 33.6875 21.6562V53.5391C33.6875 58.5152 29.6402 62.5625 24.6641 62.5625C19.6879 62.5625 15.6406 58.5152 15.6406 53.5391V39.7031H22.8594C26.1764 39.7031 28.875 37.0045 28.875 33.6875V14.4375C28.875 11.4682 26.707 9.009 23.8724 8.52414C23.4044 7.07438 22.0569 6.01562 20.4531 6.01562C18.4632 6.01562 16.8438 7.63503 16.8438 9.625C16.8438 11.615 18.4632 13.2344 20.4531 13.2344C21.9679 13.2344 23.2636 12.2935 23.7978 10.9677C25.3318 11.3828 26.4688 12.7736 26.4688 14.4375V33.6875C26.4688 35.6775 24.8493 37.2969 22.8594 37.2969H6.01562C4.02566 37.2969 2.40625 35.6775 2.40625 33.6875V14.4375C2.40625 12.7736 3.5432 11.3828 5.07719 10.9677C5.61137 12.2935 6.90714 13.2344 8.42188 13.2344C10.4118 13.2344 12.0312 11.615 12.0312 9.625C12.0312 7.63503 10.4118 6.01562 8.42188 6.01562C6.81811 6.01562 5.47061 7.07438 5.00259 8.52414C2.16803 9.009 0 11.4682 0 14.4375V33.6875C0 37.0045 2.69861 39.7031 6.01562 39.7031H13.2344V53.5391C13.2344 59.841 18.3621 64.9688 24.6641 64.9688C30.966 64.9688 36.0938 59.841 36.0938 53.5391ZM55.3438 8.42188C59.9866 8.42188 63.7656 12.2009 63.7656 16.8438C63.7656 21.4866 59.9866 25.2656 55.3438 25.2656C50.7009 25.2656 46.9219 21.4866 46.9219 16.8438C46.9219 12.2009 50.7009 8.42188 55.3438 8.42188ZM20.4531 10.8281C19.789 10.8281 19.25 10.2891 19.25 9.625C19.25 8.96088 19.789 8.42188 20.4531 8.42188C21.1173 8.42188 21.6562 8.96088 21.6562 9.625C21.6562 10.2891 21.1173 10.8281 20.4531 10.8281ZM8.42188 8.42188C9.086 8.42188 9.625 8.96088 9.625 9.625C9.625 10.2891 9.086 10.8281 8.42188 10.8281C7.75775 10.8281 7.21875 10.2891 7.21875 9.625C7.21875 8.96088 7.75775 8.42188 8.42188 8.42188Z" fill="currentColor"/>
<path d="M55.3438 22.8594C58.6608 22.8594 61.3594 20.1608 61.3594 16.8438C61.3594 13.5267 58.6608 10.8281 55.3438 10.8281C52.0267 10.8281 49.3281 13.5267 49.3281 16.8438C49.3281 20.1608 52.0267 22.8594 55.3438 22.8594ZM55.3438 13.2344C57.3337 13.2344 58.9531 14.8538 58.9531 16.8438C58.9531 18.8337 57.3337 20.4531 55.3438 20.4531C53.3538 20.4531 51.7344 18.8337 51.7344 16.8438C51.7344 14.8538 53.3538 13.2344 55.3438 13.2344Z" fill="currentColor"/>
<path d="M2.40625 60.1562H0V62.5625H2.40625V60.1562Z" fill="currentColor"/>
<path d="M7.21875 60.1562H4.8125V62.5625H7.21875V60.1562Z" fill="currentColor"/>
<path d="M2.40625 64.9688H0V67.375H2.40625V64.9688Z" fill="currentColor"/>
<path d="M7.21875 64.9688H4.8125V67.375H7.21875V64.9688Z" fill="currentColor"/>
<path d="M12.0312 64.9688H9.625V67.375H12.0312V64.9688Z" fill="currentColor"/>
<path d="M2.40625 69.7812H0V72.1875H2.40625V69.7812Z" fill="currentColor"/>
<path d="M7.21875 69.7812H4.8125V72.1875H7.21875V69.7812Z" fill="currentColor"/>
<path d="M12.0312 69.7812H9.625V72.1875H12.0312V69.7812Z" fill="currentColor"/>
<path d="M2.40625 74.5938H0V77H2.40625V74.5938Z" fill="currentColor"/>
<path d="M7.21875 74.5938H4.8125V77H7.21875V74.5938Z" fill="currentColor"/>
<path d="M12.0312 74.5938H9.625V77H12.0312V74.5938Z" fill="currentColor"/>
<path d="M16.8438 69.7812H14.4375V72.1875H16.8438V69.7812Z" fill="currentColor"/>
<path d="M16.8438 74.5938H14.4375V77H16.8438V74.5938Z" fill="currentColor"/>
<path d="M21.6562 74.5938H19.25V77H21.6562V74.5938Z" fill="currentColor"/>
<path d="M75.7969 62.5625H72.1875V58.9531C72.1875 58.2878 71.6497 57.75 70.9844 57.75H63.7656C63.1003 57.75 62.5625 58.2878 62.5625 58.9531V62.5625H58.9531C58.2878 62.5625 57.75 63.1003 57.75 63.7656V70.9844C57.75 71.6497 58.2878 72.1875 58.9531 72.1875H62.5625V75.7969C62.5625 76.4622 63.1003 77 63.7656 77H70.9844C71.6497 77 72.1875 76.4622 72.1875 75.7969V72.1875H75.7969C76.4622 72.1875 77 71.6497 77 70.9844V63.7656C77 63.1003 76.4622 62.5625 75.7969 62.5625ZM74.5938 69.7812H70.9844C70.319 69.7812 69.7812 70.319 69.7812 70.9844V74.5938H64.9688V70.9844C64.9688 70.319 64.431 69.7812 63.7656 69.7812H60.1562V64.9688H63.7656C64.431 64.9688 64.9688 64.431 64.9688 63.7656V60.1562H69.7812V63.7656C69.7812 64.431 70.319 64.9688 70.9844 64.9688H74.5938V69.7812Z" fill="currentColor"/>
<path d="M77 14.4375H74.5938V16.8438H77V14.4375Z" fill="currentColor"/>
<path d="M72.1875 14.4375H69.7812V16.8438H72.1875V14.4375Z" fill="currentColor"/>
<path d="M77 9.625H74.5938V12.0312H77V9.625Z" fill="currentColor"/>
<path d="M72.1875 9.625H69.7812V12.0312H72.1875V9.625Z" fill="currentColor"/>
<path d="M77 4.8125H74.5938V7.21875H77V4.8125Z" fill="currentColor"/>
<path d="M72.1875 4.8125H69.7812V7.21875H72.1875V4.8125Z" fill="currentColor"/>
<path d="M67.375 4.8125H64.9688V7.21875H67.375V4.8125Z" fill="currentColor"/>
<path d="M77 0H74.5938V2.40625H77V0Z" fill="currentColor"/>
<path d="M72.1875 0H69.7812V2.40625H72.1875V0Z" fill="currentColor"/>
<path d="M67.375 0H64.9688V2.40625H67.375V0Z" fill="currentColor"/>
<path d="M62.5625 0H60.1562V2.40625H62.5625V0Z" fill="currentColor"/>
</g>
<defs>
<clipPath id="clip0_374_104">
<rect width="77" height="77" fill="white"/>
</clipPath>
</defs>
</svg>
