<svg width="19" height="14" viewBox="0 0 19 14" fill="none" xmlns="http://www.w3.org/2000/svg">
<path fill-rule="evenodd" clip-rule="evenodd" d="M10.601 4.35359C9.40233 5.10064 8.20681 6.32049 7.31516 7.94598L4.68489 6.50317C5.80824 4.4553 7.35186 2.84361 9.0143 1.80756C10.6535 0.785967 12.5396 0.25006 14.2867 0.613299C16.1413 0.998895 17.5475 2.3393 18.155 4.42988C18.7369 6.43252 18.5937 9.09817 17.6428 12.4136L14.7591 11.5865C15.6343 8.5347 15.6328 6.50148 15.2741 5.26695C14.941 4.12037 14.3244 3.68529 13.676 3.55049C12.92 3.39332 11.8229 3.59208 10.601 4.35359Z" fill="#F72C25"/>
<path fill-rule="evenodd" clip-rule="evenodd" d="M8.39902 9.64647C9.59772 8.89942 10.7932 7.67956 11.6849 6.05407L14.3152 7.49689C13.1918 9.54476 11.6482 11.1564 9.98575 12.1925C8.34652 13.2141 6.46048 13.75 4.7134 13.3868C2.85878 13.0012 1.45252 11.6608 0.845072 9.57017C0.263184 7.56754 0.406372 4.90189 1.35722 1.5865L4.24096 2.41355C3.36571 5.46536 3.36722 7.49858 3.72593 8.73311C4.05908 9.87969 4.67569 10.3148 5.32407 10.4496C6.08 10.6067 7.17711 10.408 8.39902 9.64647Z" fill="#F72C25"/>
</svg>
