<svg width="43" height="43" viewBox="0 0 43 43" fill="none" xmlns="http://www.w3.org/2000/svg">
<path d="M8.73438 8.33125C9.27187 8.73438 9.94375 9.27187 10.6156 9.54062C10.2125 10.4812 9.94375 11.2875 9.675 12.0938H12.2281C12.3625 11.6906 12.4969 11.2875 12.6312 10.75C13.8406 11.2875 15.05 11.6906 16.3938 12.0938H26.4719C27.8156 11.825 29.025 11.2875 30.2344 10.75C30.3687 11.1531 30.5031 11.5562 30.6375 12.0938H33.1906C32.9219 11.2875 32.6531 10.4812 32.3844 9.675C33.0562 9.27187 33.5938 8.86875 34.2656 8.46562C35.3406 9.54063 36.4156 10.75 37.2219 12.0938H40.85C37.3563 4.97187 29.9656 0 21.5 0C13.0344 0 5.64375 4.97187 2.15 12.0938H5.77813C6.58438 10.75 7.65938 9.54062 8.73438 8.33125ZM32.3844 6.85313C32.1156 7.12187 31.7125 7.25625 31.3094 7.525C30.9062 6.71875 30.3687 6.04688 29.9656 5.375C30.9062 5.77812 31.5781 6.31562 32.3844 6.85313ZM29.2937 8.6C28.2187 9.1375 27.1437 9.54063 25.9344 9.80937C25.6656 7.525 25.1281 5.24062 24.4563 3.49375C26.3375 4.43437 27.95 6.31563 29.2937 8.6ZM21.2313 3.225C21.3656 3.225 21.3656 3.225 21.5 3.225C21.6344 3.225 21.6344 3.225 21.7688 3.225C22.3063 4.16563 23.1125 6.58437 23.65 10.2125C22.9781 10.3469 22.3062 10.3469 21.6344 10.3469C20.9625 10.3469 20.2906 10.3469 19.6187 10.2125C20.0219 6.58437 20.6938 4.16563 21.2313 3.225ZM18.5438 3.62812C17.8719 5.375 17.4688 7.525 17.0656 9.80937C15.9906 9.54063 14.7812 9.1375 13.7063 8.6C15.05 6.31563 16.6625 4.56875 18.5438 3.62812ZM13.0344 5.24062C12.4969 5.9125 12.0938 6.71875 11.5563 7.525C11.2875 7.25625 10.8844 7.12187 10.6156 6.85313C11.4219 6.31562 12.2281 5.77813 13.0344 5.24062ZM34.2656 34.6688C33.7281 34.2656 33.0562 33.7281 32.3844 33.4594C32.6531 32.6531 33.0563 31.8469 33.1906 31.0406H30.6375C30.5031 31.4438 30.3687 31.9813 30.2344 32.3844C29.025 31.8469 27.8156 31.4438 26.4719 31.0406H16.3938C15.05 31.3094 13.8406 31.7125 12.6312 32.3844C12.4969 31.9813 12.3625 31.5781 12.2281 31.0406H9.675C9.94375 31.8469 10.2125 32.6531 10.4812 33.4594C9.80937 33.8625 9.27187 34.2656 8.6 34.6688C7.65938 33.4594 6.58438 32.25 5.77813 30.9062H2.15C5.64375 38.0281 13.0344 43 21.5 43C29.9656 43 37.3563 38.0281 40.85 30.9062H37.2219C36.4156 32.25 35.3406 33.4594 34.2656 34.6688ZM10.6156 36.1469C10.8844 35.8781 11.2875 35.6094 11.5563 35.475C11.9594 36.2812 12.4969 36.9531 12.9 37.625C12.2281 37.2219 11.4219 36.8187 10.6156 36.1469ZM13.8406 34.4C14.9156 33.8625 15.9906 33.4594 17.2 33.1906C17.4688 35.475 18.0063 37.7594 18.6781 39.3719C16.6625 38.4312 15.05 36.6844 13.8406 34.4ZM21.7688 39.775C21.6344 39.775 21.6344 39.775 21.5 39.775C21.3656 39.775 21.3656 39.775 21.2313 39.775C20.6938 38.8344 19.8875 36.4156 19.35 32.7875C20.0219 32.6531 20.6938 32.6531 21.3656 32.6531C22.0375 32.6531 22.7094 32.6531 23.3813 32.7875C22.9781 36.4156 22.3063 38.8344 21.7688 39.775ZM24.4563 39.5062C25.1281 37.7594 25.5312 35.6094 25.9344 33.1906C27.1437 33.4594 28.2187 33.8625 29.2937 34.4C27.95 36.6844 26.3375 38.5656 24.4563 39.5062ZM29.9656 37.7594C30.5031 37.0875 30.9062 36.2812 31.3094 35.6094C31.7125 35.8781 31.9813 36.0125 32.3844 36.2812C31.5781 36.8187 30.9062 37.2219 29.9656 37.7594ZM6.45 25.8L7.25625 22.8438C7.525 22.0375 7.65938 21.2313 7.79375 20.1562C7.92813 21.2313 8.0625 22.0375 8.33125 22.8438L9.1375 25.8H11.6906L14.2438 17.2H11.6906L11.0188 20.5594C10.8844 21.5 10.6156 22.4406 10.4812 23.5156C10.3469 22.575 10.0781 21.6344 9.80937 20.5594L9.00312 17.2H6.85313L5.9125 20.6938C5.64375 21.5 5.50938 22.575 5.24063 23.5156C5.10625 22.575 4.97187 21.6344 4.70312 20.6938L4.03125 17.2H1.34375L3.7625 25.8H6.45ZM24.5906 20.5594C24.4562 21.5 24.1875 22.4406 24.0531 23.5156C23.9187 22.575 23.65 21.6344 23.3813 20.5594L22.575 17.2H20.425L19.4844 20.6938C19.2156 21.5 19.0812 22.575 18.8125 23.5156C18.6781 22.575 18.5438 21.6344 18.275 20.6938L17.6031 17.2H14.9156L17.3344 25.8H19.8875L20.6938 22.8438C20.9625 22.0375 21.0969 21.2313 21.2313 20.1562C21.3656 21.2313 21.5 22.0375 21.7688 22.8438L22.575 25.8H25.1281L27.6812 17.2H25.1281L24.5906 20.5594ZM38.1625 20.5594C38.0281 21.5 37.7594 22.4406 37.625 23.5156C37.4906 22.575 37.2219 21.6344 36.9531 20.5594L36.1469 17.2H33.9969L33.0562 20.6938C32.7875 21.5 32.6531 22.575 32.3844 23.5156C32.25 22.575 32.1156 21.6344 31.8469 20.6938L31.175 17.2H28.4875L30.9062 25.8H33.5938L34.4 22.8438C34.6688 22.0375 34.8031 21.2313 34.9375 20.1562C35.0719 21.2313 35.2062 22.0375 35.475 22.8438L36.2812 25.8H38.9688L41.5219 17.2H38.9688L38.1625 20.5594Z" fill="currentColor"/>
</svg>
