<svg width="19" height="19" viewBox="0 0 19 19" fill="none" xmlns="http://www.w3.org/2000/svg">
<g clip-path="url(#clip0_502_524)">
<path fill-rule="evenodd" clip-rule="evenodd" d="M19 18.9998H15.2V12.3507C15.2 10.5267 14.3954 9.50903 12.9523 9.50903C11.382 9.50903 10.45 10.5694 10.45 12.3507V18.9998H6.65V6.64976H10.45V8.03857C10.45 8.03857 11.6422 5.94653 14.3288 5.94653C17.0164 5.94653 19 7.58656 19 10.98V18.9998ZM2.3199 4.67461C1.03835 4.67461 0 3.62777 0 2.33672C0 1.04662 1.03835 -0.000244141 2.3199 -0.000244141C3.6005 -0.000244141 4.63885 1.04662 4.63885 2.33672C4.6398 3.62777 3.6005 4.67461 2.3199 4.67461ZM0 18.9998H4.75V6.64976H0V18.9998Z" fill="#373737"/>
</g>
<defs>
<clipPath id="clip0_502_524">
<rect width="19" height="19" fill="white" transform="translate(0 -0.000244141)"/>
</clipPath>
</defs>
</svg>
