<svg width="49" height="33" viewBox="0 0 49 33" fill="none" xmlns="http://www.w3.org/2000/svg">
<rect width="49" height="33" rx="4" fill="#161196"/>
<path fill-rule="evenodd" clip-rule="evenodd" d="M36 24H32.2V17.3509C32.2 15.5269 31.3954 14.5093 29.9523 14.5093C28.382 14.5093 27.45 15.5697 27.45 17.3509V24H23.65V11.65H27.45V13.0388C27.45 13.0388 28.6422 10.9468 31.3288 10.9468C34.0164 10.9468 36 12.5868 36 15.9802V24ZM19.3199 9.67485C18.0384 9.67485 17 8.62801 17 7.33696C17 6.04686 18.0384 5 19.3199 5C20.6005 5 21.6388 6.04686 21.6388 7.33696C21.6398 8.62801 20.6005 9.67485 19.3199 9.67485ZM17 24H21.75V11.65H17V24Z" fill="white"/>
</svg>
