<svg width="62" height="62" viewBox="0 0 62 62" fill="none" xmlns="http://www.w3.org/2000/svg">
<g clip-path="url(#clip0_374_20)">
<path d="M12.7317 39.5741C11.8962 39.5227 11.0939 39.9907 10.2913 40.9976C9.92701 40.7422 9.54635 40.511 9.15181 40.3054C8.923 40.1972 8.66088 40.1826 8.42155 40.2652C8.18222 40.3477 7.98471 40.5206 7.87126 40.7469C7.75782 40.9733 7.73748 41.2349 7.81458 41.476C7.89168 41.7171 8.0601 41.9185 8.28381 42.0371C8.9163 42.376 9.50819 42.7859 10.048 43.2587C10.7673 43.8949 11.6248 44.8894 11.6248 46.0156C11.6248 46.2726 11.7268 46.519 11.9085 46.7006C12.0902 46.8823 12.3366 46.9843 12.5936 46.9843C12.8504 46.9843 13.0968 46.8823 13.2786 46.7006C13.4602 46.519 13.5623 46.2726 13.5623 46.0156C13.5623 44.4743 12.7251 43.1931 11.7799 42.2367C12.2687 41.6126 12.5503 41.5213 12.6042 41.5102C12.6451 41.5422 12.6798 41.5813 12.7064 41.6258C12.7024 41.6193 12.6989 41.6126 12.6959 41.6057L14.4287 40.7392C14.3728 40.6269 13.85 39.6438 12.7317 39.5741Z" fill="currentColor"/>
<path d="M22.7052 42.406C22.9295 42.3102 23.171 42.2613 23.4149 42.2624C23.6785 42.2716 24.0156 42.3547 24.3017 42.9013C22.7577 44.2771 22.2814 46.223 22.2814 47.3476C22.2815 47.6033 22.383 47.8486 22.5636 48.0296C22.7441 48.2107 22.9891 48.3127 23.2447 48.3136H23.2502C23.5056 48.313 23.7504 48.2119 23.9317 48.0321C24.113 47.8522 24.2161 47.6082 24.2189 47.353C24.2204 47.225 24.2895 44.2114 27.3601 43.4437C27.6077 43.3799 27.8201 43.2208 27.9509 43.001C28.0817 42.7813 28.1203 42.5188 28.0583 42.2707C27.9963 42.0225 27.8387 41.809 27.6198 41.6767C27.401 41.5443 27.1388 41.5039 26.8902 41.5641C26.5692 41.6439 26.2545 41.7474 25.9486 41.8737C24.8907 40.0204 22.9382 40.1237 21.8481 40.6687C21.6202 40.7839 21.4471 40.9844 21.3662 41.2266C21.2854 41.4688 21.3035 41.7331 21.4164 41.9621C21.5294 42.191 21.7283 42.3661 21.9697 42.4493C22.2112 42.5325 22.4757 42.5168 22.7056 42.406H22.7052Z" fill="currentColor"/>
<path d="M60.0626 20.3438C60.3195 20.3438 60.566 20.2417 60.7476 20.06C60.9292 19.8784 61.0313 19.632 61.0313 19.375V13.5625C61.0313 13.3055 60.9292 13.0591 60.7476 12.8775C60.566 12.6958 60.3195 12.5938 60.0626 12.5938H55.2188V7.75C55.2188 7.49308 55.1167 7.24666 54.9351 7.06498C54.7535 6.88332 54.507 6.78125 54.2501 6.78125H49.4063V1.9375C49.4063 1.68058 49.3042 1.43416 49.1226 1.25248C48.9409 1.07081 48.6945 0.96875 48.4376 0.96875H42.6251C42.3681 0.96875 42.1217 1.07081 41.94 1.25248C41.7584 1.43416 41.6563 1.68058 41.6563 1.9375V6.78125H35.8438V1.9375C35.8438 1.68058 35.7417 1.43416 35.5601 1.25248C35.3784 1.07081 35.132 0.96875 34.8751 0.96875H29.0626C28.8056 0.96875 28.5592 1.07081 28.3775 1.25248C28.1959 1.43416 28.0938 1.68058 28.0938 1.9375V6.78125H22.2813V1.9375C22.2813 1.68058 22.1792 1.43416 21.9976 1.25248C21.8159 1.07081 21.5695 0.96875 21.3126 0.96875H15.5001C15.2431 0.96875 14.9967 1.07081 14.815 1.25248C14.6334 1.43416 14.5313 1.68058 14.5313 1.9375V6.78125H9.68756C9.43064 6.78125 9.18422 6.88332 9.00256 7.06498C8.82088 7.24666 8.71881 7.49308 8.71881 7.75V12.5938H3.87506C3.61813 12.5938 3.37172 12.6958 3.19006 12.8775C3.00838 13.0591 2.90631 13.3055 2.90631 13.5625V19.375C2.90631 19.632 3.00838 19.8784 3.19006 20.06C3.37172 20.2417 3.61813 20.3438 3.87506 20.3438H8.71881V26.1562H3.87506C3.61813 26.1562 3.37172 26.2583 3.19006 26.44C3.00838 26.6216 2.90631 26.868 2.90631 27.125V32.9375C2.90631 33.1945 3.00838 33.4409 3.19006 33.6225C3.37172 33.8042 3.61813 33.9062 3.87506 33.9062H5.17076C4.47378 34.6063 3.98866 35.4889 3.77121 36.4525C3.55377 37.4162 3.61286 38.4216 3.94166 39.353C3.05127 39.7805 2.29979 40.4509 1.7738 41.2869C1.24782 42.1228 0.96875 43.0905 0.96875 44.0781C0.96875 45.0658 1.24782 46.0334 1.7738 46.8693C2.29979 47.7054 3.05127 48.3757 3.94166 48.8032C3.67481 49.5594 3.58481 50.3669 3.67857 51.1633C3.77235 51.9598 4.04739 52.7242 4.48259 53.3977C4.9178 54.0714 5.50158 54.6363 6.18911 55.0492C6.87665 55.462 7.64965 55.7118 8.44877 55.7794V55.8327C8.44882 56.8743 8.7591 57.8923 9.34003 58.7569C9.92096 59.6214 10.7462 60.2933 11.7106 60.687C12.6749 61.0805 13.7346 61.178 14.7546 60.9669C15.7746 60.7559 16.7086 60.2458 17.4376 59.5018C18.1665 60.2458 19.1005 60.7559 20.1205 60.9669C21.1405 61.178 22.2002 61.0805 23.1646 60.687C24.129 60.2933 24.9542 59.6214 25.5351 58.7569C26.116 57.8923 26.4263 56.8743 26.4263 55.8327V55.7794C27.0018 55.7321 27.5654 55.5893 28.0938 55.3568V58.125C28.0938 58.382 28.1959 58.6284 28.3775 58.81C28.5592 58.9917 28.8056 59.0938 29.0626 59.0938H34.8751C35.132 59.0938 35.3784 58.9917 35.5601 58.81C35.7417 58.6284 35.8438 58.382 35.8438 58.125V53.2812H41.6563V58.125C41.6563 58.382 41.7584 58.6284 41.94 58.81C42.1217 58.9917 42.3681 59.0938 42.6251 59.0938H48.4376C48.6945 59.0938 48.9409 58.9917 49.1226 58.81C49.3042 58.6284 49.4063 58.382 49.4063 58.125V53.2812H54.2501C54.507 53.2812 54.7535 53.1792 54.9351 52.9975C55.1167 52.8159 55.2188 52.5695 55.2188 52.3125V47.4688H60.0626C60.3195 47.4688 60.566 47.3667 60.7476 47.185C60.9292 47.0034 61.0313 46.757 61.0313 46.5V40.6875C61.0313 40.4305 60.9292 40.1841 60.7476 40.0025C60.566 39.8208 60.3195 39.7188 60.0626 39.7188H55.2188V33.9062H60.0626C60.3195 33.9062 60.566 33.8042 60.7476 33.6225C60.9292 33.4409 61.0313 33.1945 61.0313 32.9375V27.125C61.0313 26.868 60.9292 26.6216 60.7476 26.44C60.566 26.2583 60.3195 26.1562 60.0626 26.1562H55.2188V20.3438H60.0626ZM55.2188 14.5312H59.0938V18.4062H55.2188V14.5312ZM43.5938 2.90625H47.4688V6.78125H43.5938V2.90625ZM30.0313 2.90625H33.9063V6.78125H30.0313V2.90625ZM16.4688 2.90625H20.3438V6.78125H16.4688V2.90625ZM4.84381 18.4062V14.5312H8.71881V18.4062H4.84381ZM4.84381 31.9688V28.0938H8.71881V30.667C8.57804 31.0882 8.49176 31.5257 8.46209 31.9688H4.84381ZM16.4628 57.6346C16.0463 58.2754 15.4207 58.752 14.6925 58.9836C13.9642 59.215 13.1782 59.187 12.4682 58.9041C11.7583 58.6214 11.1683 58.1013 10.7986 57.4325C10.429 56.7635 10.3025 55.9873 10.4408 55.2357C11.0189 54.9485 11.5321 54.546 11.9486 54.0527C12.3652 53.5595 12.6763 52.9863 12.8626 52.3682C12.9359 52.1219 12.9083 51.8566 12.7859 51.6306C12.6634 51.4047 12.4562 51.2366 12.2099 51.1633C12.088 51.1271 11.9601 51.1151 11.8335 51.1283C11.7069 51.1415 11.5842 51.1796 11.4723 51.2401C11.2464 51.3625 11.0783 51.5697 11.0051 51.816C10.8323 52.3865 10.4811 52.8865 10.0031 53.2427C9.52514 53.5989 8.94555 53.7923 8.34947 53.7947C8.3192 53.7947 8.28893 53.7971 8.25865 53.7995C7.72903 53.697 7.23253 53.4664 6.81244 53.1279C6.39236 52.7895 6.06143 52.3534 5.84853 51.8578C5.63562 51.362 5.54718 50.8218 5.59093 50.2842C5.6347 49.7465 5.8093 49.2276 6.09955 48.7729C6.18385 48.6417 6.23514 48.492 6.24907 48.3366C6.26299 48.1813 6.23915 48.0248 6.17956 47.8806C6.11997 47.7365 6.0264 47.6089 5.90683 47.5087C5.78726 47.4084 5.64524 47.3387 5.49287 47.3053C4.75906 47.1416 4.10295 46.7327 3.63274 46.146C3.16252 45.5593 2.90629 44.83 2.90629 44.0781C2.90629 43.3263 3.16252 42.5969 3.63274 42.0102C4.10295 41.4235 4.75906 41.0147 5.49287 40.851C5.64524 40.8176 5.78726 40.7478 5.90683 40.6475C6.0264 40.5474 6.11997 40.4198 6.17956 40.2757C6.23915 40.1314 6.26299 39.975 6.24907 39.8196C6.23514 39.6643 6.18385 39.5146 6.09955 39.3833C5.8093 38.9286 5.6347 38.4097 5.59093 37.8721C5.54718 37.3344 5.63562 36.7942 5.84853 36.2985C6.06143 35.8028 6.39236 35.3668 6.81244 35.0283C7.23253 34.6898 7.72903 34.4593 8.25865 34.3567C8.28893 34.3591 8.3192 34.3616 8.34947 34.3616C8.94555 34.364 9.52514 34.5574 10.0031 34.9135C10.4811 35.2698 10.8323 35.7698 11.0051 36.3402C11.0649 36.5402 11.1875 36.7155 11.3548 36.8402C11.5221 36.9651 11.7252 37.0326 11.9338 37.0329C12.0273 37.0326 12.1202 37.0191 12.2099 36.9929C12.4562 36.9197 12.6633 36.7515 12.7857 36.5256C12.908 36.2997 12.9358 36.0344 12.8626 35.788C12.6763 35.17 12.3652 34.5967 11.9486 34.1035C11.5321 33.6103 11.0189 33.2078 10.4408 32.9205C10.3584 32.4729 10.3695 32.0129 10.4733 31.5697C10.5771 31.1264 10.7713 30.7095 11.0438 30.3448C11.3164 29.9801 11.6613 29.6758 12.057 29.4507C12.4527 29.2257 12.8907 29.0849 13.3434 29.0371C13.4153 29.0535 13.4888 29.0621 13.5626 29.0625C13.6548 29.0623 13.7466 29.0488 13.835 29.0225C14.3607 29.0455 14.8733 29.1935 15.3302 29.4542C15.7872 29.715 16.1755 30.0809 16.4628 30.5217V57.6346ZM14.5313 27.1492V12.5938H49.4063V47.4688H32.6518C33.1728 46.8593 33.5467 46.1381 33.7445 45.361C33.9424 44.5841 33.959 43.7719 33.7928 42.9874C33.6268 42.2029 33.2826 41.4672 32.7867 40.8369C32.2909 40.2068 31.6568 39.699 30.9335 39.353C31.2003 38.5968 31.2903 37.7894 31.1966 36.9929C31.1027 36.1965 30.8277 35.432 30.3925 34.7585C29.9573 34.0849 29.3735 33.52 28.686 33.107C27.9985 32.6942 27.2254 32.4444 26.4263 32.3768V32.3236C26.4263 31.2819 26.116 30.264 25.5351 29.3994C24.9542 28.5349 24.129 27.8629 23.1646 27.4693C22.2002 27.0757 21.1405 26.9782 20.1205 27.1893C19.1005 27.4004 18.1665 27.9104 17.4376 28.6544C16.6538 27.8559 15.6357 27.3286 14.5313 27.1492ZM28.7756 48.7729C29.0655 49.2271 29.24 49.7453 29.284 50.2824C29.328 50.8194 29.2401 51.3591 29.028 51.8544C28.8159 52.3498 28.486 52.7857 28.0669 53.1246C27.6479 53.4634 27.1525 53.6947 26.6237 53.7983C26.6019 53.7971 26.5813 53.7947 26.5608 53.7947C25.9645 53.7925 25.3847 53.5991 24.9065 53.243C24.4282 52.8868 24.0769 52.3866 23.904 51.816C23.8307 51.5697 23.6626 51.3625 23.4367 51.2401C23.2107 51.1177 22.9454 51.0901 22.6991 51.1633C22.4528 51.2366 22.2456 51.4047 22.1232 51.6306C22.0007 51.8566 21.9731 52.1219 22.0464 52.3682C22.2308 52.9797 22.5373 53.5475 22.9473 54.0372C23.3573 54.5269 23.8623 54.9285 24.4319 55.2175C24.4698 55.4204 24.4888 55.6264 24.4888 55.8327C24.4888 56.5473 24.2574 57.2426 23.8291 57.8145C23.4008 58.3864 22.7987 58.8042 22.113 59.0052C21.4272 59.2062 20.695 59.1797 20.0256 58.9296C19.3563 58.6794 18.7861 58.2191 18.4003 57.6176V30.5386C18.7861 29.9372 19.3563 29.4769 20.0256 29.2267C20.695 28.9765 21.4272 28.95 22.113 29.151C22.7987 29.352 23.4008 29.7698 23.8291 30.3417C24.2574 30.9137 24.4888 31.609 24.4888 32.3236C24.4888 32.5299 24.4698 32.7359 24.4319 32.9387C23.8623 33.2278 23.3573 33.6293 22.9473 34.119C22.5373 34.6087 22.2308 35.1765 22.0464 35.788C21.9732 36.0344 22.001 36.2997 22.1233 36.5256C22.2457 36.7515 22.4528 36.9197 22.6991 36.9929C22.7888 37.0191 22.8817 37.0326 22.9752 37.0329C23.1838 37.0326 23.3869 36.9651 23.5542 36.8402C23.7215 36.7155 23.8441 36.5402 23.904 36.3402C24.0769 35.7696 24.4282 35.2694 24.9065 34.9133C25.3847 34.5571 25.9645 34.3637 26.5608 34.3616C26.5813 34.3616 26.6019 34.3591 26.6237 34.3579C27.1525 34.4616 27.6479 34.6929 28.0669 35.0317C28.486 35.3705 28.8159 35.8065 29.028 36.3018C29.2401 36.7971 29.328 37.3368 29.284 37.8739C29.24 38.4109 29.0655 38.9291 28.7756 39.3833C28.6913 39.5146 28.6399 39.6643 28.626 39.8196C28.6121 39.975 28.6359 40.1314 28.6955 40.2757C28.7551 40.4198 28.8487 40.5474 28.9683 40.6475C29.0879 40.7478 29.2299 40.8176 29.3822 40.851C30.1161 41.0147 30.7722 41.4235 31.2424 42.0102C31.7126 42.5969 31.9688 43.3263 31.9688 44.0781C31.9688 44.83 31.7126 45.5593 31.2424 46.146C30.7722 46.7327 30.1161 47.1416 29.3822 47.3053C29.2299 47.3387 29.0879 47.4084 28.9683 47.5087C28.8487 47.6089 28.7551 47.7365 28.6955 47.8806C28.6359 48.0248 28.6121 48.1813 28.626 48.3366C28.6399 48.492 28.6913 48.6417 28.7756 48.7729ZM33.9063 57.1562H30.0313V53.8891C30.1904 53.6973 30.3353 53.4941 30.4648 53.2812H33.9063V57.1562ZM47.4688 57.1562H43.5938V53.2812H47.4688V57.1562ZM53.2813 51.3438H31.1732C31.2708 50.6993 31.2478 50.0424 31.1054 49.4062H50.3751C50.632 49.4062 50.8785 49.3042 51.0601 49.1225C51.2417 48.9409 51.3438 48.6945 51.3438 48.4375V11.625C51.3438 11.3681 51.2417 11.1217 51.0601 10.94C50.8785 10.7583 50.632 10.6562 50.3751 10.6562H13.5626C13.3056 10.6562 13.0592 10.7583 12.8775 10.94C12.6959 11.1217 12.5938 11.3681 12.5938 11.625V27.1977C11.8963 27.3472 11.2369 27.6382 10.6563 28.0526V8.71875H53.2813V51.3438ZM59.0938 41.6562V45.5312H55.2188V41.6562H59.0938ZM59.0938 28.0938V31.9688H55.2188V28.0938H59.0938Z" fill="currentColor"/>
</g>
<defs>
<clipPath id="clip0_374_20">
<rect width="62" height="62" fill="white"/>
</clipPath>
</defs>
</svg>
