<svg width="73" height="73" viewBox="0 0 73 73" fill="none" xmlns="http://www.w3.org/2000/svg">
<path d="M68.5561 33.5355L67.6835 33.361C67.0528 33.2344 66.479 32.9276 66.0239 32.4725L63.6868 30.1353C62.642 29.0905 61.2538 28.5156 59.7767 28.5156H51.1183C51.246 28.1575 51.3281 27.7765 51.3281 27.375V11.4062C51.3281 9.51966 49.7928 7.98438 47.9062 7.98438H42.2031V5.70312C42.2031 3.81653 40.6678 2.28125 38.7812 2.28125H34.2188C32.3322 2.28125 30.7969 3.81653 30.7969 5.70312V7.98438H25.0938C23.2072 7.98438 21.6719 9.51966 21.6719 11.4062V27.375C21.6719 27.7765 21.754 28.1575 21.8818 28.5156H14.2977L7.79275 18.7576C7.58059 18.4405 7.22472 18.25 6.84375 18.25H1.14062C0.511 18.25 0 18.761 0 19.3906V29.6562H0.0285156C0.0228125 29.6562 0 29.6061 0 29.6562V36.5C0 37.003 0.330781 37.4479 0.813266 37.5927L23.6258 44.4365C23.7318 44.4684 23.8425 44.4844 23.9531 44.4844H28.5156V58.1719C28.5156 58.8015 29.0266 59.3125 29.6562 59.3125H35.3594C35.7917 59.3125 36.1863 59.0684 36.3802 58.6817L43.4783 44.4844H67.4714C70.5203 44.4844 73 42.0047 73 38.9558C73 36.33 71.1305 34.0511 68.5561 33.5355ZM49.0469 11.4062V27.375C49.0469 28.0035 48.5347 28.5156 47.9062 28.5156H44.4844V10.2656H47.9062C48.5347 10.2656 49.0469 10.7778 49.0469 11.4062ZM30.7969 28.5156V10.2656H42.2031V28.5156H30.7969ZM33.0781 5.70312C33.0781 5.07464 33.5903 4.5625 34.2188 4.5625H38.7812C39.4097 4.5625 39.9219 5.07464 39.9219 5.70312V7.98438H33.0781V5.70312ZM23.9531 27.375V11.4062C23.9531 10.7778 24.4653 10.2656 25.0938 10.2656H28.5156V28.5156H25.0938C24.4653 28.5156 23.9531 28.0035 23.9531 27.375ZM11.5568 28.5156H8.55469L2.56641 20.5312H6.23352L11.5568 28.5156ZM2.28125 23.9531L5.70312 28.5156H2.28125V23.9531ZM34.6545 57.0312H30.7969V43.3438V38.7812H43.7795L41.7537 42.8339L34.6545 57.0312ZM67.4714 42.2031H44.619L46.6447 38.1505C46.8215 37.7969 46.8021 37.3771 46.5945 37.0407C46.3869 36.7053 46.0208 36.5 45.625 36.5H29.6562C29.0266 36.5 28.5156 37.011 28.5156 37.6406V42.2031H24.1208L2.28125 35.6514V30.7969H25.0938H47.9062H59.7767C60.6436 30.7969 61.4592 31.1345 62.0728 31.7482L64.41 34.0853C65.1844 34.8598 66.1608 35.3833 67.2353 35.5978L68.1079 35.7723C69.6215 36.0745 70.7188 37.4136 70.7188 38.9558C70.7188 40.7465 69.2622 42.2031 67.4714 42.2031Z" fill="currentColor"/>
<path d="M58.1719 33.0781H55.8906V35.3594H58.1719V33.0781Z" fill="currentColor"/>
<path d="M53.6094 33.0781H51.3281V35.3594H53.6094V33.0781Z" fill="currentColor"/>
<path d="M49.0469 33.0781H46.7656V35.3594H49.0469V33.0781Z" fill="currentColor"/>
<path d="M44.4844 33.0781H42.2031V35.3594H44.4844V33.0781Z" fill="currentColor"/>
<path d="M39.9219 33.0781H37.6406V35.3594H39.9219V33.0781Z" fill="currentColor"/>
<path d="M35.3594 33.0781H33.0781V35.3594H35.3594V33.0781Z" fill="currentColor"/>
<path d="M30.7969 33.0781H28.5156V35.3594H30.7969V33.0781Z" fill="currentColor"/>
<path d="M26.2344 33.0781H23.9531V35.3594H26.2344V33.0781Z" fill="currentColor"/>
<path d="M21.6719 33.0781H19.3906V35.3594H21.6719V33.0781Z" fill="currentColor"/>
<path d="M17.1094 33.0781H14.8281V35.3594H17.1094V33.0781Z" fill="currentColor"/>
<path d="M37.6406 17.1094H35.3594V19.3906H37.6406V17.1094Z" fill="currentColor"/>
<path d="M23.9531 55.8906H9.125V58.1719H23.9531V55.8906Z" fill="currentColor"/>
<path d="M6.84375 55.8906H4.5625V58.1719H6.84375V55.8906Z" fill="currentColor"/>
<path d="M2.28125 55.8906H0V58.1719H2.28125V55.8906Z" fill="currentColor"/>
<path d="M73 51.3281H65.0156V53.6094H73V51.3281Z" fill="currentColor"/>
<path d="M58.1719 51.3281H55.8906V53.6094H58.1719V51.3281Z" fill="currentColor"/>
<path d="M62.7344 51.3281H60.4531V53.6094H62.7344V51.3281Z" fill="currentColor"/>
<path d="M53.6094 51.3281H51.3281V53.6094H53.6094V51.3281Z" fill="currentColor"/>
<path d="M67.2969 68.4375H52.4688V70.7188H67.2969V68.4375Z" fill="currentColor"/>
<path d="M50.1875 68.4375H47.9062V70.7188H50.1875V68.4375Z" fill="currentColor"/>
<path d="M45.625 68.4375H43.3438V70.7188H45.625V68.4375Z" fill="currentColor"/>
</svg>
