<svg width="22" height="17" viewBox="0 0 22 17" fill="none" xmlns="http://www.w3.org/2000/svg">
<g clip-path="url(#clip0_502_529)">
<path fill-rule="evenodd" clip-rule="evenodd" d="M6.919 16.9995C15.2207 16.9995 19.7615 10.4583 19.7615 4.78649C19.7615 4.60029 19.7615 4.41549 19.7483 4.23138C20.6316 3.62465 21.3939 2.87133 22 2.00936C21.1772 2.35666 20.3027 2.58442 19.4084 2.68484C20.35 2.1482 21.0551 1.30512 21.3928 0.310298C20.5062 0.810322 19.5371 1.16322 18.5262 1.35257C16.8168 -0.375559 13.9579 -0.459287 12.1396 1.16632C10.9681 2.21448 10.4698 3.77728 10.8339 5.26794C7.205 5.0943 3.8236 3.46453 1.5312 0.783443C0.3333 2.74483 0.946 5.25306 2.9293 6.51254C2.211 6.49266 1.5081 6.30875 0.88 5.9761V6.03057C0.8811 8.07357 2.3958 9.83269 4.5012 10.2375C3.8368 10.4101 3.1394 10.4351 2.464 10.3107C3.0547 12.0597 4.7498 13.2577 6.6803 13.2922C5.082 14.4868 3.1075 15.1355 1.0747 15.1334C0.7161 15.1324 0.3575 15.1125 0 15.0717C2.0647 16.3312 4.466 16.9996 6.919 16.9964" fill="#373737"/>
</g>
<defs>
<clipPath id="clip0_502_529">
<rect width="22" height="17" fill="white" transform="translate(0 -0.000244141)"/>
</clipPath>
</defs>
</svg>
