<svg width="49" height="33" viewBox="0 0 49 33" fill="none" xmlns="http://www.w3.org/2000/svg">
<rect width="49" height="33" rx="4" fill="#161196"/>
<path fill-rule="evenodd" clip-rule="evenodd" d="M22.919 24.9998C31.2207 24.9998 35.7615 18.4586 35.7615 12.7867C35.7615 12.6005 35.7615 12.4157 35.7483 12.2316C36.6316 11.6249 37.3939 10.8716 38 10.0096C37.1772 10.3569 36.3027 10.5847 35.4084 10.6851C36.35 10.1484 37.0551 9.30536 37.3928 8.31054C36.5062 8.81057 35.5371 9.16346 34.5262 9.35281C32.8168 7.62469 29.9579 7.54096 28.1396 9.16656C26.9681 10.2147 26.4698 11.7775 26.8339 13.2682C23.205 13.0945 19.8236 11.4648 17.5312 8.78369C16.3333 10.7451 16.946 13.2533 18.9293 14.5128C18.211 14.4929 17.5081 14.309 16.88 13.9763V14.0308C16.8811 16.0738 18.3958 17.8329 20.5012 18.2378C19.8368 18.4104 19.1394 18.4354 18.464 18.3109C19.0547 20.06 20.7498 21.2579 22.6803 21.2924C21.082 22.4871 19.1075 23.1357 17.0747 23.1337C16.7161 23.1326 16.3575 23.1127 16 23.0719C18.0647 24.3314 20.466 24.9998 22.919 24.9967" fill="white"/>
</svg>
