<svg width="49" height="33" viewBox="0 0 49 33" fill="none" xmlns="http://www.w3.org/2000/svg">
<rect width="49" height="33" rx="4" fill="#161196"/>
<path fill-rule="evenodd" clip-rule="evenodd" d="M22.7844 20.325V13.1098C25.4739 14.3151 27.5569 15.4794 30.0204 16.7347C27.9885 17.8079 25.4739 19.012 22.7844 20.325ZM37.7729 9.52137C37.3089 8.93925 36.5182 8.48611 35.6764 8.3361C33.2021 7.8886 17.7658 7.88733 15.2929 8.3361C14.6178 8.45662 14.0167 8.74794 13.5003 9.20056C11.3245 11.1239 12.0063 21.4379 12.5307 23.1086C12.7513 23.8318 13.0364 24.3533 13.3954 24.6957C13.858 25.1483 14.4914 25.4599 15.2189 25.5997C17.2562 26.001 27.7519 26.2254 35.6334 25.66C36.3595 25.5394 37.0023 25.2178 37.5093 24.7459C39.521 22.8303 39.3839 11.937 37.7729 9.52137Z" fill="white"/>
</svg>
